<svg xmlns="http://www.w3.org/2000/svg" xmlns:xlink="http://www.w3.org/1999/xlink" xmlns:lucid="lucid" width="1440" height="1240"><g transform="translate(-40 -60)" lucid:page-tab-id="VT7wJzK2fPTy"><path d="M280 142c0-16.57 13.43-30 30-30h660c16.57 0 30 13.43 30 30v1108c0 16.57-13.43 30-30 30H310c-16.57 0-30-13.43-30-30z" stroke="#474747" fill="none"/><path d="M388 114.4v3.54c0 6.42-7.1 13.05-15.76 13.05h-46.48c-8.66 0-15.75-6.64-15.75-13.06v-3.54z" fill="#9d5125"/><path d="M340.03 80c8.03 0 14.82 4.4 18.17 11.67 4.6-3.14 10.92-1.98 14.04 2.65 1.17 1.64 1.7 3.32 1.8 5.3 7.87.68 13.95 8.25 13.95 14.27v1.3c0 6.45-7.1 13-15.76 13h-46.5c-8.64 0-15.74-6.55-15.74-13v-1.3c0-5.02 4.2-11.87 10.06-13.56v-.57c.08-10.95 8.97-19.82 19.97-19.77z" fill="#f58535"/><path d="M329.54 103.13l-5.2 18.2h3.04l1.17-4.43h5.38l1.1 4.43h3.05l-4.8-18.2zm-.47 11.4l2.22-8.98 2.1 8.97zM351.2 117.34h-.03l-2.47-14.2h-3.1l-2.4 14.13h-.06l-2.4-14.14h-2.95l3.53 18.2h3.38l2.35-13.7h.06l2.36 13.7h3.4l3.64-18.2h-2.9l-2.4 14.2zM365.9 111.4l-1.98-.72c-1.93-.7-2.74-1.53-2.74-3.1-.17-1.26.74-2.43 2-2.6.16-.02.3-.02.45-.02 1.26-.17 2.4.72 2.58 1.96.04.25.03.44 0 .68v.38h2.93v-.4c0-1.9-.5-4.8-5.18-4.8-3.44 0-5.7 1.84-5.7 5.16 0 2.6 1.1 3.97 3.82 5l2 .68c1.6.23 2.73 1.6 2.64 3.2.04 1.45-1.08 2.64-2.5 2.68h-.28c-2 0-3-1.12-3-3.33v-.47h-2.9v.44c0 2.54 1.02 5.53 5.52 5.53 3.7 0 6.07-1.6 6.07-5.48.04-2.5-1.1-3.9-3.7-4.8z" fill="#fff"/><path d="M124.84 500.2c7.1 0 12.05 4.86 12.05 11.78v15h-6.24V516.8h-1.72V527h-9.58c-.64-7.62-6.3-12.8-14.26-12.8h-5.52v-4.15c6.08-.6 10.97-3.14 11.5-9.87h.55zM85.2 500.2h.6c.57 6.73 5.42 9.27 11.5 9.86v4.13h-5.4c-7.96 0-13.66 5.2-14.26 12.8h-9.4v-10.2h-1.7V527H60v-15.06c0-6.95 4.96-11.77 12.08-11.77z" fill="#7d7c7c"/><path d="M105.05 520.53c7.1 0 12.05 4.85 12.05 11.77v15.05h-6.27v-10.22h-1.68v10.2h-21.2v-10.2h-1.63v10.2H79.8V532.3c0-6.92 4.95-11.77 12.04-11.77zM78.63 470.88l10.45 8.06v3.5c.07 6.34-4.6 11.53-10.43 11.6h-.02c-5.74 0-10.46-5.2-10.46-12.1v-3.07zM118.23 470.88l10.46 8.06v3.5c.05 6.34-4.62 11.53-10.45 11.6h-.02c-5.73 0-10.46-5.2-10.46-12.1v-3.07zM98.44 486.73l9.24 7.1v3.12c.1 5.6-4.03 10.24-9.2 10.34h-.04c-5.23-.15-9.36-4.84-9.23-10.52 0-.08 0-.14.02-.22v-2.8z" fill="#7d7c7c"/><path d="M118.24 467.36c5.88-.12 10.74 4.98 10.85 11.37.1 6.4-4.6 11.67-10.48 11.8-5.88.1-10.74-5-10.84-11.38v-.24c-.04-6.3 4.62-11.5 10.46-11.54zM98.42 483.14c5.22-.12 9.55 4.36 9.68 10.03.1 5.67-4 10.37-9.22 10.52-5.22.1-9.55-4.37-9.68-10.04v-.25c-.06-5.6 4.06-10.18 9.22-10.26zM124.84 496.63c7.1 0 12.05 4.86 12.05 11.78v15.07h-6.24v-10.2h-1.72v10.2h-9.58c-.64-7.62-6.3-12.78-14.26-12.78h-5.52v-1.32c6.23-.67 10.97-5.93 11.5-12.7h.55zM85.2 496.64h.6c.53 6.78 5.27 12.04 11.5 12.7v1.3h-5.4c-7.96 0-13.66 5.2-14.26 12.8h-9.4v-10.17h-1.7v10.2H60V508.4c0-6.93 4.96-11.76 12.08-11.76z" fill="#d2d3d3"/><path d="M105.05 517c7.1 0 12.05 4.86 12.05 11.78v15.05h-6.27v-10.2h-1.68v10.2h-21.2v-10.2h-1.63v10.2H79.8v-15.05c0-6.92 4.95-11.77 12.04-11.77zM78.63 467.36c5.88-.12 10.74 4.98 10.85 11.37.1 6.4-4.6 11.67-10.47 11.8-5.87.1-10.73-5-10.83-11.38v-.24c-.05-6.3 4.62-11.47 10.46-11.54z" fill="#d2d3d3"/><use xlink:href="#a" transform="matrix(1,0,0,1,60,547.3579696554183) translate(15.049999999999997 14.4)"/><path d="M272.2 514.88l-16.92 22.62-8.87-22.58 16.18-1 9.62.96zM294.28 514.88l17.1 22.75 8.7-22.7-16-1-9.8.95z" fill="#fbbf93"/><path d="M272.2 499.76l-16.92-22.7-8.87 22.72 16.3.98 9.5-1zM294.28 499.78l17.12-22.7 8.86 22.72-16.2.97-9.78-1z" fill="#6b3a19"/><path d="M294.28 499.76l17.1-1.27v-21.43l-17.1 4.4v18.3z" fill="#9d5025"/><path d="M320.26 499.8l-8.87-1.3v-21.43l8.86 4.4v18.32z" fill="#f58536"/><path d="M294.28 514.88l17.1 1.32v21.43l-17.1-4.46v-18.3z" fill="#9d5025"/><path d="M320.1 514.94l-8.7 1.27v21.43l8.7-4.33v-18.36zM272.2 499.76l-16.93-1.27v-21.43l16.93 4.4v18.3z" fill="#f58536"/><path d="M246.4 499.8l8.87-1.3v-21.43l-8.86 4.4v18.32z" fill="#9d5025"/><path d="M272.2 514.88l-16.93 1.32v21.43l16.93-4.46v-18.3z" fill="#f58536"/><path d="M246.4 514.92l8.87 1.3v21.4l-8.86-4.4v-18.3z" fill="#9d5025"/><path d="M300.96 517.7l-17.65-1.73-17.77 1.7 17.78 33.93 17.66-33.9z" fill="#fbbf93"/><path d="M300.96 497l-17.65 1.74-17.77-1.7 17.78-33.93 17.66 33.9z" fill="#6b3a19"/><path d="M300.96 497l-17.62-2.54V463.1l17.62 8.8V497z" fill="#f58536"/><path d="M265.53 497.02l17.8-2.58V463.1l-17.8 8.86v25.06z" fill="#9d5025"/><path d="M300.96 517.7l-17.62 2.55v31.35l17.62-8.78V517.7z" fill="#f58536"/><path d="M265.53 517.7l17.8 2.56v31.34l-17.8-8.85V517.7z" fill="#9d5025"/><use xlink:href="#b" transform="matrix(1,0,0,1,246.40633915493157,551.6079696554183) translate(-7.400000000000006 14.4)"/><path d="M320.1 517.36h138.4" stroke="#666" stroke-width="2" fill="none"/><path fill="#666"/><path d="M473.5 517.36L459.25 522v-9.28z" fill="#666"/><path d="M476.75 517.36l-18.5 6v-12zm-16.5 3.26l10.02-3.26-10.03-3.26z" fill="#666"/><path d="M394.63 691.37l19.25 2.05 17.77-12.85-17.77-15.32-19.25 2.08v24.04zM447.83 644.26l10.92-2.44 8.04 30-8.05 39.64-10.92-1.4v-65.8z" fill="#692f56"/><path d="M458.76 708.7l8.97 4.26V645.8l-8.97-3.98v66.87z" fill="#ad688b"/><path d="M447.83 700.5l10.93 1.4-44.9 34.8-12-26.1 45.97-10.1z" fill="#cfb2c1"/><path d="M379.9 714.42l-10.93 2.46-6.2-68.36 17.13 2.4v63.5z" fill="#ad688b"/><path d="M379.9 658.22l-10.93-1.42 44.9-34.8 12 26.1-45.97 10.12z" fill="#512843"/><path d="M425.87 710.57l-29.08-6.38-11.6 1.94 28.7 29.47 11.97-25.03z" fill="#cfb2c1"/><path d="M401.86 648.1l11.96-26.08 28.72 30.53-11.6 1.95-29.08-6.4z" fill="#512843"/><path d="M433.1 691.37l-19.23 2.05v-28.17l19.23 2.08v24.04zM467.74 712.96l-53.87 23.74v-22.92l47.84-12.67 3.3.86 2.74 11z" fill="#ad688b"/><path d="M385.2 706.16l28.66 7.6v22.9l-28.67-12.62v-17.88z" fill="#692f56"/><path d="M442.54 652.54l-28.67-7.6v-22.92l28.67 12.64v17.88z" fill="#ad688b"/><path d="M360 645.76L413.87 622v22.94L360 659.18v-13.42z" fill="#692f56"/><path d="M368.97 650.87l-8.97-5.12v67.15l8.97 3.98v-66z" fill="#692f56"/><use xlink:href="#c" transform="matrix(1,0,0,1,360,736.7159393108366) translate(23.049999999999997 14.4)"/><use xlink:href="#d" transform="matrix(1,0,0,1,360,736.7159393108366) translate(25.025 36)"/><path d="M155.13 517.36h73.04" stroke="#474747" stroke-width="2" fill="none"/><path d="M154.4 522l-14.27-4.64 14.26-4.64z" fill="#474747"/><path d="M155.4 523.37l-18.5-6 18.5-6.02zm-12.04-6l10.03 3.25v-6.52zM243.17 517.36L228.9 522v-9.28z" fill="#474747"/><path d="M246.4 517.36l-18.5 6v-12zm-16.5 3.26l10.03-3.26-10.03-3.26z" fill="#474747"/><path d="M98.45 483.14v-189.2c0-2.76 2.24-5 5-5H217.6" stroke="#474747" stroke-width="2" fill="none"/><path d="M97.45 483.28v-.14h.95zm2-.03l-1-.1h1zM232.6 288.94l-14.27 4.64v-9.28z" fill="#474747"/><path d="M235.84 288.94l-18.5 6v-12zm-16.5 3.26l10.02-3.26-10.03-3.26z" fill="#474747"/><path d="M517.73 464.28l50 6.8v4.02c0 5.95-22.4 10.77-50 10.77s-50-4.82-50-10.77v-4.36z" fill="#8c3123"/><path d="M517.76 493.25c20.86 0 38.74-2.8 46.2-6.7l2.47-3.78 1-3.47v4.3l-16.4 63.94c0 4-14.9 7.17-33.27 7.17-18.38 0-33.28-3.16-33.28-7.16l-16.4-63.94v-4.22l3.8 7.3c7.54 3.86 25.22 6.57 45.88 6.57z" fill="#8c3123"/><path d="M517.74 460c27.6 0 50 4.83 50 10.75 0 5.93-22.4 10.7-50 10.7s-50-4.73-50-10.7c0-5.96 22.4-10.75 50-10.75z" fill="#e05243"/><path d="M517.74 488.9c25.73 0 46.9-4.13 49.67-9.53l-16.38 63.94c0 4-14.9 7.2-33.28 7.2-18.38 0-33.28-3.2-33.28-7.2l-16.4-63.93c2.78 5.4 23.95 9.53 49.68 9.53z" fill="#e05243"/><use xlink:href="#e" transform="matrix(1,0,0,1,467.74263753466596,554.7159393108366) translate(29.025 14.4)"/><use xlink:href="#f" transform="matrix(1,0,0,1,467.74263753466596,554.7159393108366) translate(19.549999999999997 36)"/><path d="M850 925.42l49.98 8.62v5.1c0 7.53-22.4 13.63-50 13.63-27.58 0-49.98-6.1-49.98-13.64v-5.53z" fill="#8c3123"/><path d="M850 962.13c20.87 0 38.75-3.54 46.2-8.5l2.5-4.78.98-4.4v5.45l-16.4 81c0 5.08-14.9 9.1-33.26 9.1-18.38 0-33.28-4.02-33.28-9.1l-16.4-81v-5.35l3.78 9.27c7.55 4.87 25.23 8.3 45.9 8.3z" fill="#8c3123"/><path d="M850 920c27.6 0 50 6.12 50 13.62 0 7.5-22.4 13.57-50 13.57s-50-6.02-50-13.58c0-7.56 22.4-13.62 50-13.62z" fill="#e05243"/><path d="M850 956.6c25.73 0 46.9-5.2 49.67-12.06l-16.4 81c0 5.05-14.9 9.1-33.27 9.1-18.38 0-33.3-4.05-33.3-9.1l-16.38-81c2.78 6.85 23.94 12.07 49.67 12.07z" fill="#e05243"/><use xlink:href="#g" transform="matrix(1,0,0,1,800,1040) translate(22.05 14.4)"/><use xlink:href="#h" transform="matrix(1,0,0,1,800,1040) translate(16 36)"/><path d="M646.95 925.42l50 8.62v5.1c0 7.53-22.4 13.63-50 13.63s-50-6.1-50-13.64v-5.53z" fill="#8c3123"/><path d="M646.97 962.13c20.86 0 38.74-3.54 46.2-8.5l2.47-4.78 1-4.4v5.45l-16.4 81c0 5.08-14.9 9.1-33.27 9.1-18.37 0-33.27-4.02-33.27-9.1l-16.4-81v-5.35l3.78 9.27c7.55 4.87 25.23 8.3 45.9 8.3z" fill="#8c3123"/><path d="M646.96 920c27.6 0 50 6.12 50 13.62 0 7.5-22.4 13.57-50 13.57s-50-6.02-50-13.58c0-7.56 22.4-13.62 50-13.62z" fill="#e05243"/><path d="M646.95 956.6c25.73 0 46.9-5.2 49.68-12.06l-16.4 81c0 5.05-14.9 9.1-33.28 9.1-18.38 0-33.28-4.05-33.28-9.1l-16.4-81c2.8 6.85 23.95 12.07 49.68 12.07z" fill="#e05243"/><use xlink:href="#i" transform="matrix(1,0,0,1,596.9578817636649,1040) translate(25.549999999999997 14.4)"/><use xlink:href="#h" transform="matrix(1,0,0,1,596.9578817636649,1040) translate(16 36)"/><path d="M330.83 284.4l-23.08-.72-14.93.7 24.66 25.56 13.35-25.55z" fill="#fad791"/><path d="M330.83 273.83l-23.08.7-14.93-.7 24.66-25.55 13.35 25.55zM235.84 273.78l23.07.76 14.94-.73-24.66-25.4-13.34 25.38z" fill="#624a1e"/><path d="M235.84 284.4l23.07-.72 14.94.7-24.66 25.6-13.34-25.6z" fill="#fad791"/><path d="M317.5 272.8l13.33 1.02v-20.46l-13.34-5.08v24.52z" fill="#d9a741"/><path d="M292.82 253.36l24.66-5.08v24.52l-24.66 1.02v-20.46z" fill="#876929"/><path d="M283.34 250.37l26.7 6.66v10.1l-26.7-3.58v-13.18z" fill="#d9a741"/><path d="M271.3 265.23l12.24-1.64 26.5 3.55-11.85 1-26.9-2.92z" fill="#624a1e"/><path d="M249.17 272.78l-13.33 1v-20.53l13.33-5v24.53z" fill="#876929"/><path d="M273.84 253.34l-24.67-5.1v24.55l24.67 1v-20.46z" fill="#d9a741"/><path d="M283.33 250.37l-26.72 6.66v10.1l26.73-3.58v-13.18z" fill="#876929"/><path d="M295.36 265.23l-12.24-1.64-26.5 3.55 11.85 1 26.9-2.92z" fill="#624a1e"/><path d="M317.5 285.42l13.33-1.02v20.46l-13.34 5.08v-24.52z" fill="#d9a741"/><path d="M292.82 304.86l24.66 5.08v-24.52l-24.66-1.02v20.46z" fill="#876929"/><path d="M283.34 307.84l26.7-6.66v-10.1l-26.7 3.58v13.18z" fill="#d9a741"/><path d="M271.3 292.98l12.24 1.64 26.5-3.55-11.85-1-26.9 2.9z" fill="#fad791"/><path d="M249.17 285.42l-13.33-1.02v20.45l13.33 5.1v-24.53z" fill="#876929"/><path d="M273.84 304.87l-24.67 5.1V285.4l24.67-1.02v20.47z" fill="#d9a741"/><path d="M283.33 307.84l-26.72-6.66v-10.1l26.73 3.58v13.18z" fill="#876929"/><path d="M295.36 292.98l-12.24 1.64-26.5-3.55 11.85-1 26.9 2.9z" fill="#fad791"/><path d="M269.12 317.2l14.2 5.4 7.88-2.96 6.34-78.95-14.2-5.43-14.22 5.42v76.5z" fill="#876929"/><path d="M297.54 317.2l-14.2 5.4v-87.33l14.2 5.42v76.5z" fill="#d9a741"/><use xlink:href="#j" transform="matrix(1,0,0,1,235.83501790388254,322.60652275841585) translate(33.5 14.4)"/><use xlink:href="#k" transform="matrix(1,0,0,1,235.83501790388254,322.60652275841585) translate(12.524999999999999 36)"/><path d="M320.1 1154.25h321.86c2.76 0 5-2.24 5-5v-71" stroke="#000" stroke-width="2" fill="none"/><path/><path d="M651.6 1077.5h-9.28l4.64-14.26z"/><path d="M652.97 1078.5h-12.02l6-18.5zm-9.27-2h6.52l-3.26-10.03z"/><path d="M330.83 288.94h180.15c2.76 0 5-2.24 5-5V192.2c0-2.76 2.24-5 5-5H682.9" stroke="#000" stroke-width="2" fill="none"/><path d="M327.93 289.94h-.1v-2h1.14zM697.9 187.2l-14.26 4.64v-9.27z"/><path d="M701.14 187.2l-18.5 6v-12zm-16.5 3.26l10.03-3.26-10.03-3.26z"/><path d="M120 569.32c-.86 0-1.55.7-1.55 1.55V985c0 2.76 2.24 5 5 5h463.73" fill="none"/><path d="M120 569.32l-1.1.46-.45 1.1v3.98m0 7.96v7.96m0 7.97v7.96m0 7.98v7.96m0 7.96v7.97m0 7.96v7.97m0 7.96v7.96m0 7.97v7.95m0 7.96v7.98m0 7.96v7.97m0 7.97v7.96m0 7.97v7.96m0 7.97V766m0 7.95v7.97m0 7.96v7.97m0 7.96v7.97m0 7.97v7.96m0 7.97v7.96m0 7.96v7.96m0 7.96v7.97m0 7.95v7.96m0 7.98v7.96m0 7.97v7.97m0 7.96v7.97m0 7.96v7.97m0 7.96v7.95m0 7.97V985l.96 2.95 2.47 1.8 1.58.25h4m8 0h8m7.98 0h8m8 0h8m8 0h7.98m8 0h8m8 0h8m8 0h7.98m8 0h8m8 0h8m7.98 0h8m8 0h8m7.98 0h8m8 0h8m7.98 0h8m8 0h8m8 0h7.98m8 0h8m8 0h7.98m8 0h8m8 0h7.98m8 0h8m8 0h8m7.98 0h8m8 0h8m7.98 0h8m8 0h8m7.98 0h8m8 0h8m8 0h3.98" stroke="#000" stroke-width="2" fill="none"/><path d="M602.18 990l-14.26 4.64v-9.28z"/><path d="M605.42 990l-18.5 6v-12zm-16.5 3.26l10.03-3.26-10.03-3.26z"/><path d="M272.2 1151.77l-16.92 22.62-8.87-22.58 16.18-1 9.62.95zM294.28 1151.77l17.1 22.76 8.7-22.7-16-1-9.8.94z" fill="#fbbf93"/><path d="M272.2 1136.65l-16.92-22.68-8.87 22.7 16.3.98 9.5-1zM294.28 1136.67l17.12-22.7 8.86 22.72-16.2.97-9.78-1z" fill="#6b3a19"/><path d="M294.28 1136.66l17.1-1.27v-21.43l-17.1 4.4v18.3z" fill="#9d5025"/><path d="M320.26 1136.68l-8.87-1.3V1114l8.86 4.4v18.3z" fill="#f58536"/><path d="M294.28 1151.77l17.1 1.32v21.43l-17.1-4.46v-18.3z" fill="#9d5025"/><path d="M320.1 1151.83l-8.7 1.28v21.43l8.7-4.34v-18.37zM272.2 1136.66l-16.93-1.27v-21.43l16.93 4.4v18.3z" fill="#f58536"/><path d="M246.4 1136.68l8.87-1.3V1114l-8.86 4.4v18.3z" fill="#9d5025"/><path d="M272.2 1151.77l-16.93 1.32v21.43l16.93-4.46v-18.3z" fill="#f58536"/><path d="M246.4 1151.8l8.87 1.3v21.43l-8.86-4.4v-18.32z" fill="#9d5025"/><path d="M300.96 1154.6l-17.65-1.74-17.77 1.7 17.78 33.93 17.66-33.9z" fill="#fbbf93"/><path d="M300.96 1133.88l-17.65 1.75-17.77-1.7L283.3 1100l17.66 33.88z" fill="#6b3a19"/><path d="M300.96 1133.9l-17.62-2.55V1100l17.62 8.78v25.12z" fill="#f58536"/><path d="M265.53 1133.9l17.8-2.56V1100l-17.8 8.85v25.06z" fill="#9d5025"/><path d="M300.96 1154.6l-17.62 2.54v31.35l17.62-8.8v-25.1z" fill="#f58536"/><path d="M265.53 1154.58l17.8 2.58v31.33l-17.8-8.86v-25.06z" fill="#9d5025"/><use xlink:href="#b" transform="matrix(1,0,0,1,246.40633915493157,1188.5) translate(-7.400000000000006 14.4)"/><path d="M98.45 547.32v601.93c0 2.76 2.24 5 5 5h124.72" stroke="#474747" stroke-width="2" fill="none"/><path fill="#474747"/><path d="M243.17 1154.25l-14.27 4.64v-9.3z" fill="#474747"/><path d="M246.4 1154.25l-18.5 6v-12zm-16.5 3.26l10.03-3.25-10.03-3.26z" fill="#474747"/><path d="M281.16 1028.47l44.08-24.3v-48.45l-44.08 24.23v48.52z" fill="#fff"/><path d="M237.16 1004.15l44.03 24.27v-48.46l-44.04-24.2v48.4zM324.94 955.74l-43.75-24.07-43.76 24.07 43.75 24.07 43.74-24.06z" fill="#fff"/><path d="M281.2 978.38l41.2-22.64-.05-.02-41.16 22.66z" fill="#fff"/><path d="M240.03 955.72l-.04.02 41.2 22.64-41.17-22.66z" fill="#fff"/><path d="M325.13 954.2L281.16 930l-43.96 24.2-1.36.8v50l44.05 24.2 1.35.8 1.37-.8 44.05-24.2v-50zm-1.37 49.2l-41.14 22.7v-45.4l41.23-22.6zm-43.96 22.7l-41.24-22.7v-45.3l41.24 22.6zM240 955.7l41.16-22.6 41.24 22.6-41.24 22.7L240 955.7z" fill="#444"/><path d="M281.37 1006.1l23.68-13.03v-26l-23.68 13v26.04zM257.33 993.07L281 1006.1v-26.03l-23.67-13v26zM304.8 966.72l-23.6-12.97-23.62 12.97 23.6 13.02 23.62-13.02z" fill="#205e00"/><path d="M281.2 978.4l21.22-11.66-.02-.02-21.2 11.68zM259.97 966.72l-.02.02 21.23 11.67-21.2-11.68z" fill="#96bf3d"/><path d="M305.2 965.14l-24-13.16-24.05 13.16-1.38.8v28.05l24 13.22 1.43.78 1.38-.78L306.63 994v-28.07zm-1.37 27.3l-21.25 11.7V980.7l21.25-11.65zm-24.05 11.7l-21.26-11.7v-23.37l21.26 11.65zm-19.8-37.43l21.22-11.64 21.2 11.65-21.2 11.72-21.26-11.65z" fill="#fff"/><use xlink:href="#l" transform="matrix(1,0,0,1,235.83501790388254,1030) translate(12.575000000000003 14.4)"/><use xlink:href="#m" transform="matrix(1,0,0,1,235.83501790388254,1030) translate(30.5 36)"/><use xlink:href="#n" transform="matrix(1,0,0,1,235.83501790388254,1030) translate(3.549999999999997 57.6)"/><path d="M140 540v144.36c0 2.76 2.24 5 5 5h196.76" stroke="#000" stroke-width="2" fill="none"/><path d="M356.76 689.36L342.5 694v-9.28z"/><path d="M360 689.36l-18.5 6v-12zm-16.5 3.26l10.03-3.26-10.03-3.26z"/><path d="M705.9 688.23c0 3.46-2.8 6.26-6.24 6.26-3.44 0-6.24-2.8-6.24-6.27 0-3.46 2.8-6.27 6.24-6.27 3.44 0 6.24 2.8 6.24 6.27z" fill="#4b612c"/><path d="M693.42 682.7h12.48v5.52h-12.48v-5.52z" fill="#4b612c"/><path d="M675 657.53V720h120v-62.47zm102.96 40.9h-46.2c-5.64 12-19.8 17.13-31.8 11.5-12-5.62-17.04-19.92-11.52-31.9 5.64-12 19.92-17.2 31.92-11.57 5.16 2.5 9 6.25 11.4 11.56h14.16l2.52 4.43 9.36-.87 3.6 3.75 3.24.68 8.52-5.1 10.68 8.1z" fill="#4b612c"/><path d="M705.9 682.7c0 3.45-2.8 6.26-6.24 6.26-3.44 0-6.24-2.8-6.24-6.27 0-3.47 2.8-6.27 6.24-6.27 3.44 0 6.24 2.8 6.24 6.26z" fill="#759c3e"/><path d="M675 652v62.46h120V652zm102.96 40.9h-46.2c-5.64 12-19.8 17.13-31.8 11.5-12-5.6-17.04-19.92-11.52-31.9 5.64-12 19.92-17.2 31.92-11.57 5.16 2.5 9 6.25 11.4 11.56h14.16l2.52 4.42 9.36-.87 3.6 3.75 3.24.68 8.52-5.12 10.68 8.12z" fill="#759c3e"/><use xlink:href="#o" transform="matrix(1,0,0,1,675,720) translate(19.875 14.4)"/><use xlink:href="#p" transform="matrix(1,0,0,1,675,720) translate(65.175 14.4)"/><path d="M467.73 689.36h103.3c.2 0 .34.14.34.32s.14.32.32.32h85.06" stroke="#000" stroke-width="2" fill="none"/><path/><path d="M671.76 690l-14.26 4.64v-9.28z"/><path d="M675 690l-18.5 6v-12zm-16.5 3.26l10.03-3.26-10.03-3.26z"/><path d="M380 1105c0-2.76 2.24-5 5-5h230c2.76 0 5 2.24 5 5v43.2c0 2.76-2.24 5-5 5H385c-2.76 0-5-2.24-5-5z" stroke="#000" stroke-opacity="0" stroke-width="2" fill="#fff" fill-opacity="0"/><use xlink:href="#q" transform="matrix(1,0,0,1,385,1105) translate(50.72500000000001 14.799999999999999)"/><use xlink:href="#r" transform="matrix(1,0,0,1,385,1105) translate(92.32500000000002 14.799999999999999)"/><use xlink:href="#s" transform="matrix(1,0,0,1,385,1105) translate(156.325 14.799999999999999)"/><use xlink:href="#t" transform="matrix(1,0,0,1,385,1105) translate(55.62499999999999 36.4)"/><use xlink:href="#u" transform="matrix(1,0,0,1,385,1105) translate(138.475 36.4)"/><path d="M1060 705c0-2.76 2.24-5 5-5h390c2.76 0 5 2.24 5 5v192c0 2.76-2.24 5-5 5h-390c-2.76 0-5-2.24-5-5z" stroke="#000" stroke-opacity="0" stroke-width="2" fill="#c1e4f7"/><use xlink:href="#v" transform="matrix(1,0,0,1,1065,705) translate(97.27777777777779 32)"/><use xlink:href="#w" transform="matrix(1,0,0,1,1065,705) translate(226.05555555555554 32)"/><use xlink:href="#x" transform="matrix(1,0,0,1,1065,705) translate(26.94444444444443 80)"/><use xlink:href="#y" transform="matrix(1,0,0,1,1065,705) translate(102.49999999999999 80)"/><use xlink:href="#z" transform="matrix(1,0,0,1,1065,705) translate(203.16666666666666 80)"/><use xlink:href="#A" transform="matrix(1,0,0,1,1065,705) translate(329.7222222222223 80)"/><use xlink:href="#B" transform="matrix(1,0,0,1,1065,705) translate(72.94444444444443 128)"/><use xlink:href="#C" transform="matrix(1,0,0,1,1065,705) translate(281.6111111111111 128)"/><use xlink:href="#D" transform="matrix(1,0,0,1,1065,705) translate(95.05555555555556 176)"/><path d="M1056.35 1020c0-2.76 2.23-5 5-5h377.3c2.77 0 5 2.24 5 5v240c0 2.76-2.23 5-5 5h-377.3c-2.77 0-5-2.24-5-5z" stroke="#000" stroke-opacity="0" stroke-width="2" fill="#c1e4f7"/><use xlink:href="#E" transform="matrix(1,0,0,1,1061.3464151222774,1020) translate(28.666666666666686 32)"/><use xlink:href="#F" transform="matrix(1,0,0,1,1061.3464151222774,1020) translate(128.44444444444446 32)"/><use xlink:href="#G" transform="matrix(1,0,0,1,1061.3464151222774,1020) translate(114.6111111111111 80)"/><use xlink:href="#H" transform="matrix(1,0,0,1,1061.3464151222774,1020) translate(18.2222222222222 128)"/><use xlink:href="#I" transform="matrix(1,0,0,1,1061.3464151222774,1020) translate(113.44444444444443 128)"/><use xlink:href="#J" transform="matrix(1,0,0,1,1061.3464151222774,1020) translate(76.88888888888889 176)"/><use xlink:href="#K" transform="matrix(1,0,0,1,1061.3464151222774,1020) translate(134.55555555555554 176)"/><use xlink:href="#L" transform="matrix(1,0,0,1,1061.3464151222774,1020) translate(116.83333333333333 224)"/><path d="M170.8 1170.93l.58.74 2.96 3.5 3.24 3.56 3.57 3.6 3.94 3.64 4.35 3.7 4.84 3.78 5.38 3.85 6.03 3.94 6.78 4.03 7.64 4.12 8.68 4.22 9.9 4.32 11.4 4.4 13.14 4.46 15.3 4.5 17.88 4.43 21.04 4.3 24.84 4 29.35 3.47 34.52 2.62 40.02 1.36 45-.35 48.06-2.38 47.35-4.32 42.24-5.62 34.1-6 25.6-5.6 18.47-4.87 12.47-3.83 126.8-43.67 47.46-19 9.2-3.97 10.05-4.16 8.35-3.05 7.24-2.3 6.52-1.78 6.05-1.38 5.83-1.1 5.8-.8 6-.6 6.57-.37 7.82-.1 11.4.33 68.12 3.43h3.65" stroke="#99d2f2" stroke-width="3" fill="none"/><path d="M162.72 1158.34l11.6 9.5-7.8 5z" stroke="#99d2f2" stroke-width="3" fill="#99d2f2"/><path d="M1056.35 1141.5h-.06l.05-1.5z" fill="#99d2f2"/><path d="M1040 363c0-2.76 2.24-5 5-5h410c2.76 0 5 2.24 5 5v240c0 2.76-2.24 5-5 5h-410c-2.76 0-5-2.24-5-5z" stroke="#000" stroke-opacity="0" stroke-width="2" fill="#c1e4f7"/><use xlink:href="#M" transform="matrix(1,0,0,1,1045,363) translate(14.611111111111086 80)"/><use xlink:href="#N" transform="matrix(1,0,0,1,1045,363) translate(246.6111111111111 80)"/><use xlink:href="#O" transform="matrix(1,0,0,1,1045,363) translate(116.16666666666667 128)"/><use xlink:href="#P" transform="matrix(1,0,0,1,1045,363) translate(127.27777777777779 128)"/><use xlink:href="#Q" transform="matrix(1,0,0,1,1045,363) translate(196.05555555555554 128)"/><use xlink:href="#R" transform="matrix(1,0,0,1,1045,363) translate(30.333333333333343 176)"/><use xlink:href="#y" transform="matrix(1,0,0,1,1045,363) translate(99.11111111111111 176)"/><use xlink:href="#S" transform="matrix(1,0,0,1,1045,363) translate(199.77777777777777 176)"/><use xlink:href="#T" transform="matrix(1,0,0,1,1045,363) translate(279.77777777777777 176)"/><path d="M795 178.8c0 21.68-21.28 39.26-47.5 39.26S700 200.48 700 178.8c0-21.66 21.28-39.25 47.5-39.25s47.5 17.6 47.5 39.26z" fill="#9d5025"/><path d="M700 175.58h95v3.22h-95v-3.22z" fill="#9d5025"/><path d="M795 175.6c0 21.66-21.28 39.24-47.5 39.24S700 197.26 700 175.6c0-21.68 21.28-39.27 47.5-39.27s47.5 17.6 47.5 39.26z" fill="#f58536"/><path d="M778.4 194.88l-3.7-8.02-8.24 2.6-11.75-25.5-3.28-7.02-1.55-3.34-2.38-5.2H731.84v8.54h8.47l3 6.36-24.6 36.12h11.88l17.48-25.75 12.4 26.84 3-.92 6.68-2.1 8.23-2.6z" fill="#fff"/><g><use xlink:href="#U" transform="matrix(1,0,0,1,700,218.07101517229088) translate(1.0499999999999972 14.4)"/><use xlink:href="#V" transform="matrix(1,0,0,1,700,218.07101517229088) translate(42 14.4)"/><use xlink:href="#W" transform="matrix(1,0,0,1,700,218.07101517229088) translate(10.5 36)"/><use xlink:href="#X" transform="matrix(1,0,0,1,700,218.07101517229088) translate(64.5 36)"/><use xlink:href="#Y" transform="matrix(1,0,0,1,700,218.07101517229088) translate(7.074999999999996 57.6)"/></g><path d="M975 280.55c0 21.66-21.28 39.25-47.5 39.25S880 302.2 880 280.55c0-21.67 21.28-39.26 47.5-39.26s47.5 17.58 47.5 39.25z" fill="#9d5025"/><path d="M880 277.32h95v3.22h-95v-3.22z" fill="#9d5025"/><path d="M975 277.33c0 21.66-21.28 39.25-47.5 39.25s-47.5-17.6-47.5-39.25c0-21.67 21.28-39.26 47.5-39.26s47.5 17.6 47.5 39.26z" fill="#f58536"/><path d="M958.4 296.62l-3.7-8.03-8.24 2.6-11.75-25.5-3.28-7.02-1.55-3.34-2.38-5.2H911.84v8.54h8.47l3 6.35-24.6 36.13h11.88l17.48-25.75 12.4 26.85 3-.94 6.68-2.07 8.23-2.6z" fill="#fff"/><g><use xlink:href="#Z" transform="matrix(1,0,0,1,880,319.8086970112075) translate(0.04999999999999716 14.4)"/><use xlink:href="#m" transform="matrix(1,0,0,1,880,319.8086970112075) translate(64.95 14.4)"/><use xlink:href="#aa" transform="matrix(1,0,0,1,880,319.8086970112075) translate(19.525 36)"/><use xlink:href="#u" transform="matrix(1,0,0,1,880,319.8086970112075) translate(29.549999999999997 57.6)"/></g><path d="M330.83 288.94H862.9" stroke="#000" stroke-width="2" fill="none"/><path d="M327.93 289.94h-.1v-2h1.14zM877.9 288.94l-14.26 4.64v-9.28z"/><path d="M881.14 288.94l-18.5 6v-12zm-16.5 3.26l10.03-3.26-10.03-3.26z"/><path d="M416.3 1153.2h225.66c0-2.76 2.24-5 5-5s5 2.24 5 5H845c2.76 0 5-2.24 5-5v-69.96" stroke="#000" stroke-width="2" fill="none"/><path d="M416.3 1153.2h-3v-1h3zM854.64 1077.5h-9.28l4.64-14.26z"/><path d="M856 1078.5h-12l6-18.5zm-9.26-2h6.52l-3.26-10.03z"/><path d="M217.74 702.34l4.28 3.5 10.02 7.53 10.34 7.1 10.72 6.73 11.2 6.38 11.75 6.07 12.45 5.77 13.3 5.5 14.35 5.26 15.73 5 17.56 4.8 20.15 4.6 24.24 4.48 32.28 4.55 121.76 11.43 94.16 8.25 72 3.13 83.18.63L1060 801" stroke="#99d2f2" stroke-width="3" fill="none"/><path d="M206.4 692.54l13.82 5.82-6.06 7z" stroke="#99d2f2" stroke-width="3" fill="#99d2f2"/><path d="M1060 801v-1.5z" fill="#99d2f2"/><path d="M180.6 302.82l2.8 2.6 9.14 7.82 9.63 7.55 10.2 7.34 10.92 7.17 11.7 7.02 12.67 6.88 13.84 6.8 15.28 6.7 17.04 6.63 19.3 6.6 22.33 6.62 26.47 6.64 32.6 6.74 42.84 6.98 64.5 7.7 168 12.76L849.9 435.1l41.4 5.66 20.03 6.17 1.3.63 2.66 1.5 2.24 1.54 1.9 1.56 1.64 1.57 1.2 1.33 1.07.52 1.7.04 2.18-.34 2.5-.6 2.18-.65 10.7-3.1 6.63-.25 4.57.08 3.8.27 4 .48 29.12 4.45 18.33 1.23 30.95.6" stroke="#99d2f2" stroke-width="3" fill="none"/><path d="M169.87 292.34L183.3 299l-6.47 6.62z" stroke="#99d2f2" stroke-width="3" fill="#99d2f2"/><path d="M1040 459.28h-.03l.03-1.5z" fill="#99d2f2"/><path d="M138.3 826.63l56.93 2.68 107.18.46 226.82-5.4 40.36.87 48.42 3.1 190.32 19.7 11.56.33 113.2.58 126.92-1.9" stroke="#99d2f2" stroke-width="3" fill="none"/><path d="M123.3 825.93l14.47-3.96-.44 9.26z" stroke="#99d2f2" stroke-width="3" fill="#99d2f2"/><path d="M1060 847.03l-.02-1.5h.02z" fill="#99d2f2"/><defs><path d="M232-93c-1 65-40 97-104 97C67 4 28-28 28-90v-158h33c8 89-33 224 67 224 102 0 64-133 71-224h33v155" id="ab"/><path d="M135-143c-3-34-86-38-87 0 15 53 115 12 119 90S17 21 10-45l28-5c4 36 97 45 98 0-10-56-113-15-118-90-4-57 82-63 122-42 12 7 21 19 24 35" id="ac"/><path d="M100-194c63 0 86 42 84 106H49c0 40 14 67 53 68 26 1 43-12 49-29l28 8c-11 28-37 45-77 45C44 4 14-33 15-96c1-61 26-98 85-98zm52 81c6-60-76-77-97-28-3 7-6 17-6 28h103" id="ad"/><path d="M114-163C36-179 61-72 57 0H25l-1-190h30c1 12-1 29 2 39 6-27 23-49 58-41v29" id="ae"/><g id="a"><use transform="matrix(0.05,0,0,0.05,0,0)" xlink:href="#ab"/><use transform="matrix(0.05,0,0,0.05,12.950000000000001,0)" xlink:href="#ac"/><use transform="matrix(0.05,0,0,0.05,21.950000000000003,0)" xlink:href="#ad"/><use transform="matrix(0.05,0,0,0.05,31.950000000000003,0)" xlink:href="#ae"/><use transform="matrix(0.05,0,0,0.05,37.900000000000006,0)" xlink:href="#ac"/></g><path d="M212-179c-10-28-35-45-73-45-59 0-87 40-87 99 0 60 29 101 89 101 43 0 62-24 78-52l27 14C228-24 195 4 139 4 59 4 22-46 18-125c-6-104 99-153 187-111 19 9 31 26 39 46" id="af"/><path d="M24 0v-261h32V0H24" id="ag"/><path d="M100-194c62-1 85 37 85 99 1 63-27 99-86 99S16-35 15-95c0-66 28-99 85-99zM99-20c44 1 53-31 53-75 0-43-8-75-51-75s-53 32-53 75 10 74 51 75" id="ah"/><path d="M84 4C-5 8 30-112 23-190h32v120c0 31 7 50 39 49 72-2 45-101 50-169h31l1 190h-30c-1-10 1-25-2-33-11 22-28 36-60 37" id="ai"/><path d="M85-194c31 0 48 13 60 33l-1-100h32l1 261h-30c-2-10 0-23-3-31C134-8 116 4 85 4 32 4 16-35 15-94c0-66 23-100 70-100zm9 24c-40 0-46 34-46 75 0 40 6 74 45 74 42 0 51-32 51-76 0-42-9-74-50-73" id="aj"/><path d="M63-220v92h138v28H63V0H30v-248h175v28H63" id="ak"/><path d="M117-194c89-4 53 116 60 194h-32v-121c0-31-8-49-39-48C34-167 62-67 57 0H25l-1-190h30c1 10-1 24 2 32 11-22 29-35 61-36" id="al"/><path d="M59-47c-2 24 18 29 38 22v24C64 9 27 4 27-40v-127H5v-23h24l9-43h21v43h35v23H59v120" id="am"/><g id="b"><use transform="matrix(0.05,0,0,0.05,0,0)" xlink:href="#af"/><use transform="matrix(0.05,0,0,0.05,12.950000000000001,0)" xlink:href="#ag"/><use transform="matrix(0.05,0,0,0.05,16.900000000000002,0)" xlink:href="#ah"/><use transform="matrix(0.05,0,0,0.05,26.900000000000002,0)" xlink:href="#ai"/><use transform="matrix(0.05,0,0,0.05,36.900000000000006,0)" xlink:href="#aj"/><use transform="matrix(0.05,0,0,0.05,46.900000000000006,0)" xlink:href="#ak"/><use transform="matrix(0.05,0,0,0.05,57.85,0)" xlink:href="#ae"/><use transform="matrix(0.05,0,0,0.05,63.80000000000001,0)" xlink:href="#ah"/><use transform="matrix(0.05,0,0,0.05,73.80000000000001,0)" xlink:href="#al"/><use transform="matrix(0.05,0,0,0.05,83.80000000000001,0)" xlink:href="#am"/></g><path d="M177-190C167-65 218 103 67 71c-23-6-38-20-44-43l32-5c15 47 100 32 89-28v-30C133-14 115 1 83 1 29 1 15-40 15-95c0-56 16-97 71-98 29-1 48 16 59 35 1-10 0-23 2-32h30zM94-22c36 0 50-32 50-73 0-42-14-75-50-75-39 0-46 34-46 75s6 73 46 73" id="an"/><path d="M24-231v-30h32v30H24zM24 0v-190h32V0H24" id="ao"/><g id="c"><use transform="matrix(0.05,0,0,0.05,0,0)" xlink:href="#af"/><use transform="matrix(0.05,0,0,0.05,12.950000000000001,0)" xlink:href="#ah"/><use transform="matrix(0.05,0,0,0.05,22.950000000000003,0)" xlink:href="#an"/><use transform="matrix(0.05,0,0,0.05,32.95,0)" xlink:href="#al"/><use transform="matrix(0.05,0,0,0.05,42.95,0)" xlink:href="#ao"/><use transform="matrix(0.05,0,0,0.05,46.900000000000006,0)" xlink:href="#am"/><use transform="matrix(0.05,0,0,0.05,51.900000000000006,0)" xlink:href="#ah"/></g><path d="M33 0v-248h34V0H33" id="ap"/><path d="M179-190L93 31C79 59 56 82 12 73V49c39 6 53-20 64-50L1-190h34L92-34l54-156h33" id="aq"/><g id="d"><use transform="matrix(0.05,0,0,0.05,0,0)" xlink:href="#ap"/><use transform="matrix(0.05,0,0,0.05,5,0)" xlink:href="#aj"/><use transform="matrix(0.05,0,0,0.05,15,0)" xlink:href="#ad"/><use transform="matrix(0.05,0,0,0.05,25,0)" xlink:href="#al"/><use transform="matrix(0.05,0,0,0.05,35,0)" xlink:href="#am"/><use transform="matrix(0.05,0,0,0.05,40,0)" xlink:href="#ao"/><use transform="matrix(0.05,0,0,0.05,43.95,0)" xlink:href="#am"/><use transform="matrix(0.05,0,0,0.05,48.95,0)" xlink:href="#aq"/></g><path d="M141-36C126-15 110 5 73 4 37 3 15-17 15-53c-1-64 63-63 125-63 3-35-9-54-41-54-24 1-41 7-42 31l-33-3c5-37 33-52 76-52 45 0 72 20 72 64v82c-1 20 7 32 28 27v20c-31 9-61-2-59-35zM48-53c0 20 12 33 32 33 41-3 63-29 60-74-43 2-92-5-92 41" id="ar"/><path d="M96-169c-40 0-48 33-48 73s9 75 48 75c24 0 41-14 43-38l32 2c-6 37-31 61-74 61-59 0-76-41-82-99-10-93 101-131 147-64 4 7 5 14 7 22l-32 3c-4-21-16-35-41-35" id="as"/><g id="e"><use transform="matrix(0.05,0,0,0.05,0,0)" xlink:href="#ac"/><use transform="matrix(0.05,0,0,0.05,9,0)" xlink:href="#am"/><use transform="matrix(0.05,0,0,0.05,14,0)" xlink:href="#ar"/><use transform="matrix(0.05,0,0,0.05,24,0)" xlink:href="#am"/><use transform="matrix(0.05,0,0,0.05,29,0)" xlink:href="#ao"/><use transform="matrix(0.05,0,0,0.05,32.95,0)" xlink:href="#as"/></g><path d="M206 0h-36l-40-164L89 0H53L-1-190h32L70-26l43-164h34l41 164 42-164h31" id="at"/><path d="M115-194c53 0 69 39 70 98 0 66-23 100-70 100C84 3 66-7 56-30L54 0H23l1-261h32v101c10-23 28-34 59-34zm-8 174c40 0 45-34 45-75 0-40-5-75-45-74-42 0-51 32-51 76 0 43 10 73 51 73" id="au"/><g id="f"><use transform="matrix(0.05,0,0,0.05,0,0)" xlink:href="#at"/><use transform="matrix(0.05,0,0,0.05,12.950000000000001,0)" xlink:href="#ad"/><use transform="matrix(0.05,0,0,0.05,22.950000000000003,0)" xlink:href="#au"/><use transform="matrix(0.05,0,0,0.05,32.95,0)" xlink:href="#ac"/><use transform="matrix(0.05,0,0,0.05,41.95,0)" xlink:href="#ao"/><use transform="matrix(0.05,0,0,0.05,45.900000000000006,0)" xlink:href="#am"/><use transform="matrix(0.05,0,0,0.05,50.900000000000006,0)" xlink:href="#ad"/></g><path d="M30-248c87 1 191-15 191 75 0 78-77 80-158 76V0H30v-248zm33 125c57 0 124 11 124-50 0-59-68-47-124-48v98" id="av"/><path d="M108 0H70L1-190h34L89-25l56-165h34" id="aw"/><g id="g"><use transform="matrix(0.05,0,0,0.05,0,0)" xlink:href="#av"/><use transform="matrix(0.05,0,0,0.05,12,0)" xlink:href="#ae"/><use transform="matrix(0.05,0,0,0.05,17.95,0)" xlink:href="#ao"/><use transform="matrix(0.05,0,0,0.05,21.9,0)" xlink:href="#aw"/><use transform="matrix(0.05,0,0,0.05,30.899999999999995,0)" xlink:href="#ar"/><use transform="matrix(0.05,0,0,0.05,40.9,0)" xlink:href="#am"/><use transform="matrix(0.05,0,0,0.05,45.9,0)" xlink:href="#ad"/></g><g id="h"><use transform="matrix(0.05,0,0,0.05,0,0)" xlink:href="#as"/><use transform="matrix(0.05,0,0,0.05,9,0)" xlink:href="#ah"/><use transform="matrix(0.05,0,0,0.05,19,0)" xlink:href="#al"/><use transform="matrix(0.05,0,0,0.05,29,0)" xlink:href="#am"/><use transform="matrix(0.05,0,0,0.05,34,0)" xlink:href="#ad"/><use transform="matrix(0.05,0,0,0.05,44,0)" xlink:href="#al"/><use transform="matrix(0.05,0,0,0.05,54,0)" xlink:href="#am"/><use transform="matrix(0.05,0,0,0.05,59,0)" xlink:href="#ac"/></g><g id="i"><use transform="matrix(0.05,0,0,0.05,0,0)" xlink:href="#av"/><use transform="matrix(0.05,0,0,0.05,12,0)" xlink:href="#ai"/><use transform="matrix(0.05,0,0,0.05,22,0)" xlink:href="#au"/><use transform="matrix(0.05,0,0,0.05,32,0)" xlink:href="#ag"/><use transform="matrix(0.05,0,0,0.05,35.95,0)" xlink:href="#ao"/><use transform="matrix(0.05,0,0,0.05,39.900000000000006,0)" xlink:href="#as"/></g><path d="M205 0l-28-72H64L36 0H1l101-248h38L239 0h-34zm-38-99l-47-123c-12 45-31 82-46 123h93" id="ax"/><g id="j"><use transform="matrix(0.05,0,0,0.05,0,0)" xlink:href="#ax"/><use transform="matrix(0.05,0,0,0.05,12,0)" xlink:href="#av"/><use transform="matrix(0.05,0,0,0.05,24,0)" xlink:href="#ap"/></g><path d="M143 4C61 4 22-44 18-125c-5-107 100-154 193-111 17 8 29 25 37 43l-32 9c-13-25-37-40-76-40-61 0-88 39-88 99 0 61 29 100 91 101 35 0 62-11 79-27v-45h-74v-28h105v86C228-13 192 4 143 4" id="ay"/><g id="k"><use transform="matrix(0.05,0,0,0.05,0,0)" xlink:href="#ay"/><use transform="matrix(0.05,0,0,0.05,14,0)" xlink:href="#ar"/><use transform="matrix(0.05,0,0,0.05,24,0)" xlink:href="#am"/><use transform="matrix(0.05,0,0,0.05,29,0)" xlink:href="#ad"/><use transform="matrix(0.05,0,0,0.05,39,0)" xlink:href="#at"/><use transform="matrix(0.05,0,0,0.05,51.95,0)" xlink:href="#ar"/><use transform="matrix(0.05,0,0,0.05,61.95,0)" xlink:href="#aq"/></g><path d="M160-131c35 5 61 23 61 61C221 17 115-2 30 0v-248c76 3 177-17 177 60 0 33-19 50-47 57zm-97-11c50-1 110 9 110-42 0-47-63-36-110-37v79zm0 115c55-2 124 14 124-45 0-56-70-42-124-44v89" id="az"/><g id="l"><use transform="matrix(0.05,0,0,0.05,0,0)" xlink:href="#az"/><use transform="matrix(0.05,0,0,0.05,12,0)" xlink:href="#ae"/><use transform="matrix(0.05,0,0,0.05,17.95,0)" xlink:href="#ah"/><use transform="matrix(0.05,0,0,0.05,27.950000000000003,0)" xlink:href="#at"/><use transform="matrix(0.05,0,0,0.05,40.9,0)" xlink:href="#ac"/><use transform="matrix(0.05,0,0,0.05,49.9,0)" xlink:href="#ad"/><use transform="matrix(0.05,0,0,0.05,59.900000000000006,0)" xlink:href="#ae"/></g><g id="m"><use transform="matrix(0.05,0,0,0.05,0,0)" xlink:href="#ar"/><use transform="matrix(0.05,0,0,0.05,10,0)" xlink:href="#al"/><use transform="matrix(0.05,0,0,0.05,20,0)" xlink:href="#aj"/></g><path d="M153-248C145-148 188 4 80 4 36 3 13-21 6-62l32-5c4 25 16 42 43 43 27 0 39-20 39-49v-147H72v-28h81" id="aA"/><path d="M185-189c-5-48-123-54-124 2 14 75 158 14 163 119 3 78-121 87-175 55-17-10-28-26-33-46l33-7c5 56 141 63 141-1 0-78-155-14-162-118-5-82 145-84 179-34 5 7 8 16 11 25" id="aB"/><path d="M115-194c55 1 70 41 70 98S169 2 115 4C84 4 66-9 55-30l1 105H24l-1-265h31l2 30c10-21 28-34 59-34zm-8 174c40 0 45-34 45-75s-6-73-45-74c-42 0-51 32-51 76 0 43 10 73 51 73" id="aC"/><g id="n"><use transform="matrix(0.05,0,0,0.05,0,0)" xlink:href="#aA"/><use transform="matrix(0.05,0,0,0.05,9,0)" xlink:href="#ar"/><use transform="matrix(0.05,0,0,0.05,19,0)" xlink:href="#aw"/><use transform="matrix(0.05,0,0,0.05,28,0)" xlink:href="#ar"/><use transform="matrix(0.05,0,0,0.05,38,0)" xlink:href="#aB"/><use transform="matrix(0.05,0,0,0.05,50,0)" xlink:href="#as"/><use transform="matrix(0.05,0,0,0.05,59,0)" xlink:href="#ae"/><use transform="matrix(0.05,0,0,0.05,64.95,0)" xlink:href="#ao"/><use transform="matrix(0.05,0,0,0.05,68.9,0)" xlink:href="#aC"/><use transform="matrix(0.05,0,0,0.05,78.9,0)" xlink:href="#am"/></g><path d="M266 0h-40l-56-210L115 0H75L2-248h35L96-30l15-64 43-154h32l59 218 59-218h35" id="aD"/><g id="o"><use transform="matrix(0.05,0,0,0.05,0,0)" xlink:href="#ax"/><use transform="matrix(0.05,0,0,0.05,11.35,0)" xlink:href="#aD"/><use transform="matrix(0.05,0,0,0.05,28.299999999999997,0)" xlink:href="#aB"/></g><path d="M127-220V0H93v-220H8v-28h204v28h-85" id="aE"/><g id="p"><use transform="matrix(0.05,0,0,0.05,0,0)" xlink:href="#aB"/><use transform="matrix(0.05,0,0,0.05,12,0)" xlink:href="#aE"/><use transform="matrix(0.05,0,0,0.05,22.950000000000003,0)" xlink:href="#aB"/></g><path d="M30 0v-248h187v28H63v79h144v27H63v87h162V0H30" id="aF"/><g id="q"><use transform="matrix(0.05,0,0,0.05,0,0)" xlink:href="#ay"/><use transform="matrix(0.05,0,0,0.05,14,0)" xlink:href="#aF"/><use transform="matrix(0.05,0,0,0.05,26,0)" xlink:href="#aE"/></g><g id="r"><use transform="matrix(0.05,0,0,0.05,0,0)" xlink:href="#as"/><use transform="matrix(0.05,0,0,0.05,9,0)" xlink:href="#ah"/><use transform="matrix(0.05,0,0,0.05,19,0)" xlink:href="#al"/><use transform="matrix(0.05,0,0,0.05,29,0)" xlink:href="#am"/><use transform="matrix(0.05,0,0,0.05,34,0)" xlink:href="#ad"/><use transform="matrix(0.05,0,0,0.05,44,0)" xlink:href="#al"/><use transform="matrix(0.05,0,0,0.05,54,0)" xlink:href="#am"/></g><g id="s"><use transform="matrix(0.05,0,0,0.05,0,0)" xlink:href="#aw"/><use transform="matrix(0.05,0,0,0.05,9,0)" xlink:href="#ao"/><use transform="matrix(0.05,0,0,0.05,12.949999999999998,0)" xlink:href="#ar"/></g><path d="M106-169C34-169 62-67 57 0H25v-261h32l-1 103c12-21 28-36 61-36 89 0 53 116 60 194h-32v-121c2-32-8-49-39-48" id="aG"/><path d="M16-82v-28h88v28H16" id="aH"/><path d="M143 0L79-87 56-68V0H24v-261h32v163l83-92h37l-77 82L181 0h-38" id="aI"/><g id="t"><use transform="matrix(0.05,0,0,0.05,0,0)" xlink:href="#aC"/><use transform="matrix(0.05,0,0,0.05,10,0)" xlink:href="#ar"/><use transform="matrix(0.05,0,0,0.05,20,0)" xlink:href="#am"/><use transform="matrix(0.05,0,0,0.05,25,0)" xlink:href="#aG"/><use transform="matrix(0.05,0,0,0.05,35,0)" xlink:href="#aH"/><use transform="matrix(0.05,0,0,0.05,40.95,0)" xlink:href="#ar"/><use transform="matrix(0.05,0,0,0.05,50.95,0)" xlink:href="#ag"/><use transform="matrix(0.05,0,0,0.05,54.900000000000006,0)" xlink:href="#ao"/><use transform="matrix(0.05,0,0,0.05,58.85,0)" xlink:href="#aI"/><use transform="matrix(0.05,0,0,0.05,67.85000000000001,0)" xlink:href="#ad"/></g><path d="M233-177c-1 41-23 64-60 70L243 0h-38l-65-103H63V0H30v-248c88 3 205-21 203 71zM63-129c60-2 137 13 137-47 0-61-80-42-137-45v92" id="aJ"/><path d="M30 0v-248h33v221h125V0H30" id="aK"/><g id="u"><use transform="matrix(0.05,0,0,0.05,0,0)" xlink:href="#ab"/><use transform="matrix(0.05,0,0,0.05,12.950000000000001,0)" xlink:href="#aJ"/><use transform="matrix(0.05,0,0,0.05,25.900000000000002,0)" xlink:href="#aK"/></g><path fill="#0c7cba" d="M140-251c81 0 123 46 123 126C263-46 219 4 140 4 59 4 17-45 17-125s42-126 123-126zm0 227c63 0 89-41 89-101s-29-99-89-99c-61 0-89 39-89 99S79-25 140-24" id="aL"/><path fill="#0c7cba" d="M115-194c53 0 69 39 70 98 0 66-23 100-70 100C84 3 66-7 56-30L54 0H23l1-261h32v101c10-23 28-34 59-34zm-8 174c40 0 45-34 45-75 0-40-5-75-45-74-42 0-51 32-51 76 0 43 10 73 51 73" id="aM"/><path fill="#0c7cba" d="M59-47c-2 24 18 29 38 22v24C64 9 27 4 27-40v-127H5v-23h24l9-43h21v43h35v23H59v120" id="aN"/><path fill="#0c7cba" d="M141-36C126-15 110 5 73 4 37 3 15-17 15-53c-1-64 63-63 125-63 3-35-9-54-41-54-24 1-41 7-42 31l-33-3c5-37 33-52 76-52 45 0 72 20 72 64v82c-1 20 7 32 28 27v20c-31 9-61-2-59-35zM48-53c0 20 12 33 32 33 41-3 63-29 60-74-43 2-92-5-92 41" id="aO"/><path fill="#0c7cba" d="M24-231v-30h32v30H24zM24 0v-190h32V0H24" id="aP"/><path fill="#0c7cba" d="M117-194c89-4 53 116 60 194h-32v-121c0-31-8-49-39-48C34-167 62-67 57 0H25l-1-190h30c1 10-1 24 2 32 11-22 29-35 61-36" id="aQ"/><g id="v"><use transform="matrix(0.1111111111111111,0,0,0.1111111111111111,0,0)" xlink:href="#aL"/><use transform="matrix(0.1111111111111111,0,0,0.1111111111111111,31.11111111111111,0)" xlink:href="#aM"/><use transform="matrix(0.1111111111111111,0,0,0.1111111111111111,53.33333333333333,0)" xlink:href="#aN"/><use transform="matrix(0.1111111111111111,0,0,0.1111111111111111,64.44444444444444,0)" xlink:href="#aO"/><use transform="matrix(0.1111111111111111,0,0,0.1111111111111111,86.66666666666666,0)" xlink:href="#aP"/><use transform="matrix(0.1111111111111111,0,0,0.1111111111111111,95.44444444444443,0)" xlink:href="#aQ"/></g><path fill="#0c7cba" d="M85-194c31 0 48 13 60 33l-1-100h32l1 261h-30c-2-10 0-23-3-31C134-8 116 4 85 4 32 4 16-35 15-94c0-66 23-100 70-100zm9 24c-40 0-46 34-46 75 0 40 6 74 45 74 42 0 51-32 51-76 0-42-9-74-50-73" id="aR"/><g id="w"><use transform="matrix(0.1111111111111111,0,0,0.1111111111111111,0,0)" xlink:href="#aO"/><use transform="matrix(0.1111111111111111,0,0,0.1111111111111111,22.22222222222222,0)" xlink:href="#aQ"/><use transform="matrix(0.1111111111111111,0,0,0.1111111111111111,44.44444444444444,0)" xlink:href="#aR"/></g><path fill="#0c7cba" d="M84 4C-5 8 30-112 23-190h32v120c0 31 7 50 39 49 72-2 45-101 50-169h31l1 190h-30c-1-10 1-25-2-33-11 22-28 36-60 37" id="aS"/><path fill="#0c7cba" d="M135-143c-3-34-86-38-87 0 15 53 115 12 119 90S17 21 10-45l28-5c4 36 97 45 98 0-10-56-113-15-118-90-4-57 82-63 122-42 12 7 21 19 24 35" id="aT"/><path fill="#0c7cba" d="M100-194c63 0 86 42 84 106H49c0 40 14 67 53 68 26 1 43-12 49-29l28 8c-11 28-37 45-77 45C44 4 14-33 15-96c1-61 26-98 85-98zm52 81c6-60-76-77-97-28-3 7-6 17-6 28h103" id="aU"/><g id="x"><use transform="matrix(0.1111111111111111,0,0,0.1111111111111111,0,0)" xlink:href="#aS"/><use transform="matrix(0.1111111111111111,0,0,0.1111111111111111,22.22222222222222,0)" xlink:href="#aT"/><use transform="matrix(0.1111111111111111,0,0,0.1111111111111111,42.22222222222222,0)" xlink:href="#aU"/></g><path fill="#0c7cba" d="M205 0l-28-72H64L36 0H1l101-248h38L239 0h-34zm-38-99l-47-123c-12 45-31 82-46 123h93" id="aV"/><path fill="#0c7cba" d="M266 0h-40l-56-210L115 0H75L2-248h35L96-30l15-64 43-154h32l59 218 59-218h35" id="aW"/><path fill="#0c7cba" d="M185-189c-5-48-123-54-124 2 14 75 158 14 163 119 3 78-121 87-175 55-17-10-28-26-33-46l33-7c5 56 141 63 141-1 0-78-155-14-162-118-5-82 145-84 179-34 5 7 8 16 11 25" id="aX"/><g id="y"><use transform="matrix(0.1111111111111111,0,0,0.1111111111111111,0,0)" xlink:href="#aV"/><use transform="matrix(0.1111111111111111,0,0,0.1111111111111111,25.22222222222222,0)" xlink:href="#aW"/><use transform="matrix(0.1111111111111111,0,0,0.1111111111111111,62.888888888888886,0)" xlink:href="#aX"/></g><path fill="#0c7cba" d="M96-169c-40 0-48 33-48 73s9 75 48 75c24 0 41-14 43-38l32 2c-6 37-31 61-74 61-59 0-76-41-82-99-10-93 101-131 147-64 4 7 5 14 7 22l-32 3c-4-21-16-35-41-35" id="aY"/><path fill="#0c7cba" d="M114-163C36-179 61-72 57 0H25l-1-190h30c1 12-1 29 2 39 6-27 23-49 58-41v29" id="aZ"/><g id="z"><use transform="matrix(0.1111111111111111,0,0,0.1111111111111111,0,0)" xlink:href="#aX"/><use transform="matrix(0.1111111111111111,0,0,0.1111111111111111,26.666666666666664,0)" xlink:href="#aU"/><use transform="matrix(0.1111111111111111,0,0,0.1111111111111111,48.888888888888886,0)" xlink:href="#aY"/><use transform="matrix(0.1111111111111111,0,0,0.1111111111111111,68.88888888888889,0)" xlink:href="#aZ"/><use transform="matrix(0.1111111111111111,0,0,0.1111111111111111,82.11111111111111,0)" xlink:href="#aU"/><use transform="matrix(0.1111111111111111,0,0,0.1111111111111111,104.33333333333334,0)" xlink:href="#aN"/></g><path fill="#0c7cba" d="M100-194c62-1 85 37 85 99 1 63-27 99-86 99S16-35 15-95c0-66 28-99 85-99zM99-20c44 1 53-31 53-75 0-43-8-75-51-75s-53 32-53 75 10 74 51 75" id="ba"/><g id="A"><use transform="matrix(0.1111111111111111,0,0,0.1111111111111111,0,0)" xlink:href="#aN"/><use transform="matrix(0.1111111111111111,0,0,0.1111111111111111,11.11111111111111,0)" xlink:href="#ba"/></g><path fill="#0c7cba" d="M30 0v-248h33v221h125V0H30" id="bb"/><path fill="#0c7cba" d="M24-231v-30h32v30H24zM-9 49c24 4 33-6 33-30v-209h32V24c2 40-23 58-65 49V49" id="bc"/><g id="B"><use transform="matrix(0.1111111111111111,0,0,0.1111111111111111,0,0)" xlink:href="#bb"/><use transform="matrix(0.1111111111111111,0,0,0.1111111111111111,22.22222222222222,0)" xlink:href="#aP"/><use transform="matrix(0.1111111111111111,0,0,0.1111111111111111,31,0)" xlink:href="#aT"/><use transform="matrix(0.1111111111111111,0,0,0.1111111111111111,51,0)" xlink:href="#aN"/><use transform="matrix(0.1111111111111111,0,0,0.1111111111111111,62.11111111111112,0)" xlink:href="#aL"/><use transform="matrix(0.1111111111111111,0,0,0.1111111111111111,93.22222222222223,0)" xlink:href="#aM"/><use transform="matrix(0.1111111111111111,0,0,0.1111111111111111,115.44444444444446,0)" xlink:href="#bc"/><use transform="matrix(0.1111111111111111,0,0,0.1111111111111111,124.22222222222224,0)" xlink:href="#aU"/><use transform="matrix(0.1111111111111111,0,0,0.1111111111111111,146.44444444444446,0)" xlink:href="#aY"/><use transform="matrix(0.1111111111111111,0,0,0.1111111111111111,166.44444444444446,0)" xlink:href="#aN"/><use transform="matrix(0.1111111111111111,0,0,0.1111111111111111,177.55555555555557,0)" xlink:href="#aT"/></g><g id="C"><use transform="matrix(0.1111111111111111,0,0,0.1111111111111111,0,0)" xlink:href="#ba"/><use transform="matrix(0.1111111111111111,0,0,0.1111111111111111,22.22222222222222,0)" xlink:href="#aZ"/></g><path fill="#0c7cba" d="M143 4C61 4 22-44 18-125c-5-107 100-154 193-111 17 8 29 25 37 43l-32 9c-13-25-37-40-76-40-61 0-88 39-88 99 0 61 29 100 91 101 35 0 62-11 79-27v-45h-74v-28h105v86C228-13 192 4 143 4" id="bd"/><g id="D"><use transform="matrix(0.1111111111111111,0,0,0.1111111111111111,0,0)" xlink:href="#bd"/><use transform="matrix(0.1111111111111111,0,0,0.1111111111111111,31.11111111111111,0)" xlink:href="#aU"/><use transform="matrix(0.1111111111111111,0,0,0.1111111111111111,53.33333333333333,0)" xlink:href="#aN"/><use transform="matrix(0.1111111111111111,0,0,0.1111111111111111,64.44444444444444,0)" xlink:href="#aL"/><use transform="matrix(0.1111111111111111,0,0,0.1111111111111111,95.55555555555556,0)" xlink:href="#aM"/><use transform="matrix(0.1111111111111111,0,0,0.1111111111111111,117.77777777777777,0)" xlink:href="#bc"/><use transform="matrix(0.1111111111111111,0,0,0.1111111111111111,126.55555555555554,0)" xlink:href="#aU"/><use transform="matrix(0.1111111111111111,0,0,0.1111111111111111,148.77777777777777,0)" xlink:href="#aY"/><use transform="matrix(0.1111111111111111,0,0,0.1111111111111111,168.77777777777777,0)" xlink:href="#aN"/><use transform="matrix(0.1111111111111111,0,0,0.1111111111111111,179.88888888888889,0)" xlink:href="#aT"/></g><path fill="#0c7cba" d="M30-248c87 1 191-15 191 75 0 78-77 80-158 76V0H30v-248zm33 125c57 0 124 11 124-50 0-59-68-47-124-48v98" id="be"/><path fill="#0c7cba" d="M24 0v-261h32V0H24" id="bf"/><g id="E"><use transform="matrix(0.1111111111111111,0,0,0.1111111111111111,0,0)" xlink:href="#be"/><use transform="matrix(0.1111111111111111,0,0,0.1111111111111111,26.666666666666664,0)" xlink:href="#bf"/><use transform="matrix(0.1111111111111111,0,0,0.1111111111111111,35.44444444444444,0)" xlink:href="#aO"/><use transform="matrix(0.1111111111111111,0,0,0.1111111111111111,57.666666666666664,0)" xlink:href="#aP"/><use transform="matrix(0.1111111111111111,0,0,0.1111111111111111,66.44444444444444,0)" xlink:href="#aQ"/></g><path fill="#0c7cba" d="M197 0v-115H63V0H30v-248h33v105h134v-105h34V0h-34" id="bg"/><path fill="#0c7cba" d="M127-220V0H93v-220H8v-28h204v28h-85" id="bh"/><path fill="#0c7cba" d="M0 4l72-265h28L28 4H0" id="bi"/><path fill="#0c7cba" d="M233-177c-1 41-23 64-60 70L243 0h-38l-65-103H63V0H30v-248c88 3 205-21 203 71zM63-129c60-2 137 13 137-47 0-61-80-42-137-45v92" id="bj"/><path fill="#0c7cba" d="M30 0v-248h187v28H63v79h144v27H63v87h162V0H30" id="bk"/><g id="F"><use transform="matrix(0.1111111111111111,0,0,0.1111111111111111,0,0)" xlink:href="#bg"/><use transform="matrix(0.1111111111111111,0,0,0.1111111111111111,28.777777777777775,0)" xlink:href="#bh"/><use transform="matrix(0.1111111111111111,0,0,0.1111111111111111,53.11111111111111,0)" xlink:href="#bh"/><use transform="matrix(0.1111111111111111,0,0,0.1111111111111111,77.44444444444444,0)" xlink:href="#be"/><use transform="matrix(0.1111111111111111,0,0,0.1111111111111111,104.11111111111111,0)" xlink:href="#bi"/><use transform="matrix(0.1111111111111111,0,0,0.1111111111111111,115.22222222222224,0)" xlink:href="#bj"/><use transform="matrix(0.1111111111111111,0,0,0.1111111111111111,144,0)" xlink:href="#bk"/><use transform="matrix(0.1111111111111111,0,0,0.1111111111111111,170.66666666666666,0)" xlink:href="#aX"/><use transform="matrix(0.1111111111111111,0,0,0.1111111111111111,197.33333333333331,0)" xlink:href="#bh"/></g><path fill="#0c7cba" d="M145-31C134-9 116 4 85 4 32 4 16-35 15-94c0-59 17-99 70-100 32-1 48 14 60 33 0-11-1-24 2-32h30l-1 268h-32zM93-21c41 0 51-33 51-76s-8-73-50-73c-40 0-46 35-46 75s5 74 45 74" id="bl"/><g id="G"><use transform="matrix(0.1111111111111111,0,0,0.1111111111111111,0,0)" xlink:href="#bj"/><use transform="matrix(0.1111111111111111,0,0,0.1111111111111111,28.777777777777775,0)" xlink:href="#aU"/><use transform="matrix(0.1111111111111111,0,0,0.1111111111111111,51,0)" xlink:href="#bl"/><use transform="matrix(0.1111111111111111,0,0,0.1111111111111111,73.22222222222223,0)" xlink:href="#aS"/><use transform="matrix(0.1111111111111111,0,0,0.1111111111111111,95.44444444444446,0)" xlink:href="#aU"/><use transform="matrix(0.1111111111111111,0,0,0.1111111111111111,117.66666666666669,0)" xlink:href="#aT"/><use transform="matrix(0.1111111111111111,0,0,0.1111111111111111,137.66666666666669,0)" xlink:href="#aN"/></g><path fill="#0c7cba" d="M87 75C49 33 22-17 22-94c0-76 28-126 65-167h31c-38 41-64 92-64 168S80 34 118 75H87" id="bm"/><path fill="#0c7cba" d="M206 0h-36l-40-164L89 0H53L-1-190h32L70-26l43-164h34l41 164 42-164h31" id="bn"/><path fill="#0c7cba" d="M106-169C34-169 62-67 57 0H25v-261h32l-1 103c12-21 28-36 61-36 89 0 53 116 60 194h-32v-121c2-32-8-49-39-48" id="bo"/><g id="H"><use transform="matrix(0.1111111111111111,0,0,0.1111111111111111,0,0)" xlink:href="#bm"/><use transform="matrix(0.1111111111111111,0,0,0.1111111111111111,13.222222222222221,0)" xlink:href="#bn"/><use transform="matrix(0.1111111111111111,0,0,0.1111111111111111,42,0)" xlink:href="#aP"/><use transform="matrix(0.1111111111111111,0,0,0.1111111111111111,50.77777777777778,0)" xlink:href="#aN"/><use transform="matrix(0.1111111111111111,0,0,0.1111111111111111,61.888888888888886,0)" xlink:href="#bo"/></g><path fill="#0c7cba" d="M177-190C167-65 218 103 67 71c-23-6-38-20-44-43l32-5c15 47 100 32 89-28v-30C133-14 115 1 83 1 29 1 15-40 15-95c0-56 16-97 71-98 29-1 48 16 59 35 1-10 0-23 2-32h30zM94-22c36 0 50-32 50-73 0-42-14-75-50-75-39 0-46 34-46 75s6 73 46 73" id="bp"/><path fill="#0c7cba" d="M16-82v-28h88v28H16" id="bq"/><path fill="#0c7cba" d="M143 0L79-87 56-68V0H24v-261h32v163l83-92h37l-77 82L181 0h-38" id="br"/><g id="I"><use transform="matrix(0.1111111111111111,0,0,0.1111111111111111,0,0)" xlink:href="#aT"/><use transform="matrix(0.1111111111111111,0,0,0.1111111111111111,20,0)" xlink:href="#aP"/><use transform="matrix(0.1111111111111111,0,0,0.1111111111111111,28.777777777777775,0)" xlink:href="#bp"/><use transform="matrix(0.1111111111111111,0,0,0.1111111111111111,51,0)" xlink:href="#aQ"/><use transform="matrix(0.1111111111111111,0,0,0.1111111111111111,73.22222222222223,0)" xlink:href="#aU"/><use transform="matrix(0.1111111111111111,0,0,0.1111111111111111,95.44444444444446,0)" xlink:href="#aR"/><use transform="matrix(0.1111111111111111,0,0,0.1111111111111111,117.66666666666669,0)" xlink:href="#bq"/><use transform="matrix(0.1111111111111111,0,0,0.1111111111111111,130.8888888888889,0)" xlink:href="#aY"/><use transform="matrix(0.1111111111111111,0,0,0.1111111111111111,150.8888888888889,0)" xlink:href="#ba"/><use transform="matrix(0.1111111111111111,0,0,0.1111111111111111,173.11111111111114,0)" xlink:href="#ba"/><use transform="matrix(0.1111111111111111,0,0,0.1111111111111111,195.33333333333337,0)" xlink:href="#br"/><use transform="matrix(0.1111111111111111,0,0,0.1111111111111111,215.33333333333337,0)" xlink:href="#aP"/><use transform="matrix(0.1111111111111111,0,0,0.1111111111111111,224.11111111111114,0)" xlink:href="#aU"/></g><path fill="#0c7cba" d="M101-234c-31-9-42 10-38 44h38v23H63V0H32v-167H5v-23h27c-7-52 17-82 69-68v24" id="bs"/><g id="J"><use transform="matrix(0.1111111111111111,0,0,0.1111111111111111,0,0)" xlink:href="#bs"/><use transform="matrix(0.1111111111111111,0,0,0.1111111111111111,11.11111111111111,0)" xlink:href="#ba"/><use transform="matrix(0.1111111111111111,0,0,0.1111111111111111,33.33333333333333,0)" xlink:href="#aZ"/></g><path fill="#0c7cba" d="M115-194c55 1 70 41 70 98S169 2 115 4C84 4 66-9 55-30l1 105H24l-1-265h31l2 30c10-21 28-34 59-34zm-8 174c40 0 45-34 45-75s-6-73-45-74c-42 0-51 32-51 76 0 43 10 73 51 73" id="bt"/><g id="K"><use transform="matrix(0.1111111111111111,0,0,0.1111111111111111,0,0)" xlink:href="#bt"/><use transform="matrix(0.1111111111111111,0,0,0.1111111111111111,22.22222222222222,0)" xlink:href="#aZ"/><use transform="matrix(0.1111111111111111,0,0,0.1111111111111111,35.44444444444444,0)" xlink:href="#ba"/><use transform="matrix(0.1111111111111111,0,0,0.1111111111111111,57.666666666666664,0)" xlink:href="#aN"/><use transform="matrix(0.1111111111111111,0,0,0.1111111111111111,68.77777777777777,0)" xlink:href="#aU"/><use transform="matrix(0.1111111111111111,0,0,0.1111111111111111,91,0)" xlink:href="#aY"/><use transform="matrix(0.1111111111111111,0,0,0.1111111111111111,111,0)" xlink:href="#aN"/><use transform="matrix(0.1111111111111111,0,0,0.1111111111111111,122.1111111111111,0)" xlink:href="#aU"/><use transform="matrix(0.1111111111111111,0,0,0.1111111111111111,144.33333333333334,0)" xlink:href="#aR"/></g><path fill="#0c7cba" d="M33-261c38 41 65 92 65 168S71 34 33 75H2C39 34 66-17 66-93S39-220 2-261h31" id="bu"/><g id="L"><use transform="matrix(0.1111111111111111,0,0,0.1111111111111111,0,0)" xlink:href="#aY"/><use transform="matrix(0.1111111111111111,0,0,0.1111111111111111,20,0)" xlink:href="#ba"/><use transform="matrix(0.1111111111111111,0,0,0.1111111111111111,42.22222222222222,0)" xlink:href="#aQ"/><use transform="matrix(0.1111111111111111,0,0,0.1111111111111111,64.44444444444444,0)" xlink:href="#aN"/><use transform="matrix(0.1111111111111111,0,0,0.1111111111111111,75.55555555555556,0)" xlink:href="#aU"/><use transform="matrix(0.1111111111111111,0,0,0.1111111111111111,97.77777777777777,0)" xlink:href="#aQ"/><use transform="matrix(0.1111111111111111,0,0,0.1111111111111111,120,0)" xlink:href="#aN"/><use transform="matrix(0.1111111111111111,0,0,0.1111111111111111,131.11111111111111,0)" xlink:href="#bu"/></g><g id="M"><use transform="matrix(0.1111111111111111,0,0,0.1111111111111111,0,0)" xlink:href="#bg"/><use transform="matrix(0.1111111111111111,0,0,0.1111111111111111,28.777777777777775,0)" xlink:href="#bh"/><use transform="matrix(0.1111111111111111,0,0,0.1111111111111111,53.11111111111111,0)" xlink:href="#bh"/><use transform="matrix(0.1111111111111111,0,0,0.1111111111111111,77.44444444444444,0)" xlink:href="#be"/><use transform="matrix(0.1111111111111111,0,0,0.1111111111111111,104.11111111111111,0)" xlink:href="#bi"/><use transform="matrix(0.1111111111111111,0,0,0.1111111111111111,115.22222222222224,0)" xlink:href="#bj"/><use transform="matrix(0.1111111111111111,0,0,0.1111111111111111,144,0)" xlink:href="#bk"/><use transform="matrix(0.1111111111111111,0,0,0.1111111111111111,170.66666666666666,0)" xlink:href="#aX"/><use transform="matrix(0.1111111111111111,0,0,0.1111111111111111,197.33333333333331,0)" xlink:href="#bh"/></g><g id="N"><use transform="matrix(0.1111111111111111,0,0,0.1111111111111111,0,0)" xlink:href="#bj"/><use transform="matrix(0.1111111111111111,0,0,0.1111111111111111,28.777777777777775,0)" xlink:href="#aU"/><use transform="matrix(0.1111111111111111,0,0,0.1111111111111111,51,0)" xlink:href="#bl"/><use transform="matrix(0.1111111111111111,0,0,0.1111111111111111,73.22222222222223,0)" xlink:href="#aS"/><use transform="matrix(0.1111111111111111,0,0,0.1111111111111111,95.44444444444446,0)" xlink:href="#aU"/><use transform="matrix(0.1111111111111111,0,0,0.1111111111111111,117.66666666666669,0)" xlink:href="#aT"/><use transform="matrix(0.1111111111111111,0,0,0.1111111111111111,137.66666666666669,0)" xlink:href="#aN"/></g><g id="P"><use transform="matrix(0.1111111111111111,0,0,0.1111111111111111,0,0)" xlink:href="#aV"/><use transform="matrix(0.1111111111111111,0,0,0.1111111111111111,26.666666666666664,0)" xlink:href="#bt"/><use transform="matrix(0.1111111111111111,0,0,0.1111111111111111,48.888888888888886,0)" xlink:href="#aP"/></g><g id="Q"><use transform="matrix(0.1111111111111111,0,0,0.1111111111111111,0,0)" xlink:href="#aN"/><use transform="matrix(0.1111111111111111,0,0,0.1111111111111111,11.11111111111111,0)" xlink:href="#ba"/><use transform="matrix(0.1111111111111111,0,0,0.1111111111111111,33.33333333333333,0)" xlink:href="#br"/><use transform="matrix(0.1111111111111111,0,0,0.1111111111111111,53.33333333333333,0)" xlink:href="#aU"/><use transform="matrix(0.1111111111111111,0,0,0.1111111111111111,75.55555555555554,0)" xlink:href="#aQ"/></g><g id="R"><use transform="matrix(0.1111111111111111,0,0,0.1111111111111111,0,0)" xlink:href="#bm"/><use transform="matrix(0.1111111111111111,0,0,0.1111111111111111,13.222222222222221,0)" xlink:href="#aQ"/><use transform="matrix(0.1111111111111111,0,0,0.1111111111111111,35.44444444444444,0)" xlink:href="#ba"/></g><path fill="#0c7cba" d="M194 0L95-120 63-95V0H30v-248h33v124l119-124h40L117-140 236 0h-42" id="bv"/><path fill="#0c7cba" d="M179-190L93 31C79 59 56 82 12 73V49c39 6 53-20 64-50L1-190h34L92-34l54-156h33" id="bw"/><g id="S"><use transform="matrix(0.1111111111111111,0,0,0.1111111111111111,0,0)" xlink:href="#bv"/><use transform="matrix(0.1111111111111111,0,0,0.1111111111111111,26.666666666666664,0)" xlink:href="#aU"/><use transform="matrix(0.1111111111111111,0,0,0.1111111111111111,48.888888888888886,0)" xlink:href="#bw"/></g><g id="T"><use transform="matrix(0.1111111111111111,0,0,0.1111111111111111,0,0)" xlink:href="#aS"/><use transform="matrix(0.1111111111111111,0,0,0.1111111111111111,22.22222222222222,0)" xlink:href="#aT"/><use transform="matrix(0.1111111111111111,0,0,0.1111111111111111,42.22222222222222,0)" xlink:href="#aU"/><use transform="matrix(0.1111111111111111,0,0,0.1111111111111111,64.44444444444444,0)" xlink:href="#aR"/><use transform="matrix(0.1111111111111111,0,0,0.1111111111111111,86.66666666666666,0)" xlink:href="#bu"/></g><g id="U"><use transform="matrix(0.05,0,0,0.05,0,0)" xlink:href="#aB"/><use transform="matrix(0.05,0,0,0.05,12,0)" xlink:href="#ao"/><use transform="matrix(0.05,0,0,0.05,15.949999999999998,0)" xlink:href="#an"/><use transform="matrix(0.05,0,0,0.05,25.950000000000003,0)" xlink:href="#al"/></g><g id="V"><use transform="matrix(0.05,0,0,0.05,0,0)" xlink:href="#as"/><use transform="matrix(0.05,0,0,0.05,9,0)" xlink:href="#ah"/><use transform="matrix(0.05,0,0,0.05,19,0)" xlink:href="#ah"/><use transform="matrix(0.05,0,0,0.05,29,0)" xlink:href="#aI"/><use transform="matrix(0.05,0,0,0.05,38,0)" xlink:href="#ao"/><use transform="matrix(0.05,0,0,0.05,41.95,0)" xlink:href="#ad"/></g><g id="W"><use transform="matrix(0.05,0,0,0.05,0,0)" xlink:href="#au"/><use transform="matrix(0.05,0,0,0.05,10,0)" xlink:href="#ar"/><use transform="matrix(0.05,0,0,0.05,20,0)" xlink:href="#ac"/><use transform="matrix(0.05,0,0,0.05,29,0)" xlink:href="#ad"/><use transform="matrix(0.05,0,0,0.05,39,0)" xlink:href="#aj"/></g><g id="X"><use transform="matrix(0.05,0,0,0.05,0,0)" xlink:href="#ah"/><use transform="matrix(0.05,0,0,0.05,10,0)" xlink:href="#al"/></g><g id="Y"><use transform="matrix(0.05,0,0,0.05,0,0)" xlink:href="#ab"/><use transform="matrix(0.05,0,0,0.05,12.950000000000001,0)" xlink:href="#ac"/><use transform="matrix(0.05,0,0,0.05,21.950000000000003,0)" xlink:href="#ad"/><use transform="matrix(0.05,0,0,0.05,31.950000000000003,0)" xlink:href="#ae"/><use transform="matrix(0.05,0,0,0.05,37.900000000000006,0)" xlink:href="#aH"/><use transform="matrix(0.05,0,0,0.05,43.85000000000001,0)" xlink:href="#ax"/><use transform="matrix(0.05,0,0,0.05,55.85,0)" xlink:href="#ai"/><use transform="matrix(0.05,0,0,0.05,65.85000000000001,0)" xlink:href="#am"/><use transform="matrix(0.05,0,0,0.05,70.85000000000001,0)" xlink:href="#aG"/></g><g id="Z"><use transform="matrix(0.05,0,0,0.05,0,0)" xlink:href="#ax"/><use transform="matrix(0.05,0,0,0.05,12,0)" xlink:href="#ae"/><use transform="matrix(0.05,0,0,0.05,17.95,0)" xlink:href="#as"/><use transform="matrix(0.05,0,0,0.05,26.950000000000003,0)" xlink:href="#aG"/><use transform="matrix(0.05,0,0,0.05,36.95,0)" xlink:href="#ao"/><use transform="matrix(0.05,0,0,0.05,40.900000000000006,0)" xlink:href="#aw"/><use transform="matrix(0.05,0,0,0.05,49.900000000000006,0)" xlink:href="#ad"/></g><g id="aa"><use transform="matrix(0.05,0,0,0.05,0,0)" xlink:href="#aB"/><use transform="matrix(0.05,0,0,0.05,12,0)" xlink:href="#ao"/><use transform="matrix(0.05,0,0,0.05,15.949999999999998,0)" xlink:href="#an"/><use transform="matrix(0.05,0,0,0.05,25.950000000000003,0)" xlink:href="#al"/><use transform="matrix(0.05,0,0,0.05,35.95,0)" xlink:href="#ad"/><use transform="matrix(0.05,0,0,0.05,45.95,0)" xlink:href="#aj"/></g></defs></g></svg>