<svg xmlns="http://www.w3.org/2000/svg" xmlns:xlink="http://www.w3.org/1999/xlink" xmlns:lucid="lucid" width="1400" height="1240"><g transform="translate(-60 -60)" lucid:page-tab-id="VT7wJzK2fPTy"><path d="M280 142c0-16.57 13.43-30 30-30h740c16.57 0 30 13.43 30 30v1108c0 16.57-13.43 30-30 30H310c-16.57 0-30-13.43-30-30z" stroke="#474747" fill="none"/><path d="M388 114.4v3.54c0 6.42-7.1 13.05-15.76 13.05h-46.48c-8.66 0-15.75-6.64-15.75-13.06v-3.54z" fill="#9d5125"/><path d="M340.03 80c8.03 0 14.82 4.4 18.17 11.67 4.6-3.14 10.92-1.98 14.04 2.65 1.17 1.64 1.7 3.32 1.8 5.3 7.87.68 13.95 8.25 13.95 14.27v1.3c0 6.45-7.1 13-15.76 13h-46.5c-8.64 0-15.74-6.55-15.74-13v-1.3c0-5.02 4.2-11.87 10.06-13.56v-.57c.08-10.95 8.97-19.82 19.97-19.77z" fill="#f58535"/><path d="M329.54 103.13l-5.2 18.2h3.04l1.17-4.43h5.38l1.1 4.43h3.05l-4.8-18.2zm-.47 11.4l2.22-8.98 2.1 8.97zM351.2 117.34h-.03l-2.47-14.2h-3.1l-2.4 14.13h-.06l-2.4-14.14h-2.95l3.53 18.2h3.38l2.35-13.7h.06l2.36 13.7h3.4l3.64-18.2h-2.9l-2.4 14.2zM365.9 111.4l-1.98-.72c-1.93-.7-2.74-1.53-2.74-3.1-.17-1.26.74-2.43 2-2.6.16-.02.3-.02.45-.02 1.26-.17 2.4.72 2.58 1.96.04.25.03.44 0 .68v.38h2.93v-.4c0-1.9-.5-4.8-5.18-4.8-3.44 0-5.7 1.84-5.7 5.16 0 2.6 1.1 3.97 3.82 5l2 .68c1.6.23 2.73 1.6 2.64 3.2.04 1.45-1.08 2.64-2.5 2.68h-.28c-2 0-3-1.12-3-3.33v-.47h-2.9v.44c0 2.54 1.02 5.53 5.52 5.53 3.7 0 6.07-1.6 6.07-5.48.04-2.5-1.1-3.9-3.7-4.8z" fill="#fff"/><path d="M144.84 632.85c7.1 0 12.05 4.85 12.05 11.77v15h-6.24v-10.18h-1.72v10.2h-9.58c-.64-7.62-6.3-12.8-14.26-12.8h-5.52v-4.15c6.08-.6 10.97-3.15 11.5-9.88h.55zM105.2 632.83h.6c.57 6.74 5.42 9.3 11.5 9.88v4.14h-5.4c-7.96 0-13.66 5.2-14.26 12.8h-9.4v-10.2h-1.7v10.2H80v-15.06c0-6.94 4.96-11.77 12.08-11.77z" fill="#7d7c7c"/><path d="M125.05 653.17c7.1 0 12.05 4.85 12.05 11.77V680h-6.27v-10.23h-1.68v10.2h-21.2v-10.2h-1.63v10.2H99.8v-15.03c0-6.92 4.95-11.77 12.04-11.77zM98.63 603.52l10.45 8.06v3.5c.07 6.34-4.6 11.53-10.43 11.6h-.02c-5.74 0-10.46-5.2-10.46-12.1v-3.07zM138.23 603.52l10.46 8.06v3.5c.05 6.34-4.62 11.53-10.45 11.6h-.02c-5.73 0-10.46-5.2-10.46-12.1v-3.07zM118.44 619.37l9.24 7.1v3.12c.1 5.6-4.03 10.23-9.2 10.34h-.04c-5.23-.15-9.36-4.84-9.23-10.5 0-.1 0-.16.02-.24v-2.8z" fill="#7d7c7c"/><path d="M138.24 600c5.88-.12 10.74 4.98 10.85 11.37.1 6.4-4.6 11.67-10.48 11.8-5.88.1-10.74-5-10.84-11.38v-.24c-.04-6.33 4.62-11.5 10.46-11.56zM118.42 615.78c5.22-.12 9.55 4.36 9.68 10.03.1 5.68-4 10.38-9.22 10.53-5.22.12-9.55-4.36-9.68-10.03v-.24c-.06-5.6 4.06-10.2 9.22-10.28zM144.84 629.27c7.1 0 12.05 4.86 12.05 11.78v15.06h-6.24v-10.2h-1.72v10.2h-9.58c-.64-7.6-6.3-12.76-14.26-12.76h-5.52v-1.32c6.23-.67 10.97-5.93 11.5-12.7h.55zM105.2 629.28h.6c.53 6.8 5.27 12.04 11.5 12.7v1.3h-5.4c-7.96 0-13.66 5.2-14.26 12.8h-9.4V645.9h-1.7v10.2H80v-15.04c0-6.95 4.96-11.78 12.08-11.78z" fill="#d2d3d3"/><path d="M125.05 649.65c7.1 0 12.05 4.85 12.05 11.77v15.05h-6.27v-10.2h-1.68v10.2h-21.2v-10.2h-1.63v10.2H99.8v-15.05c0-6.92 4.95-11.77 12.04-11.77zM98.63 600c5.88-.12 10.74 4.98 10.85 11.37.1 6.4-4.6 11.67-10.47 11.8-5.87.1-10.73-5-10.83-11.38v-.24c-.05-6.33 4.62-11.5 10.46-11.56z" fill="#d2d3d3"/><use xlink:href="#a" transform="matrix(1,0,0,1,80,680) translate(15.049999999999997 14.4)"/><path d="M365.8 647.52l-16.93 22.62-8.87-22.57 16.18-1 9.62.95zM387.87 647.52l17.1 22.76 8.7-22.7-16-1-9.8.94z" fill="#fbbf93"/><path d="M365.8 632.4l-16.93-22.68-8.87 22.7 16.3.98 9.5-1zM387.87 632.42l17.12-22.7 8.85 22.72-16.18.98-9.8-1z" fill="#6b3a19"/><path d="M387.87 632.4l17.1-1.26v-21.42l-17.1 4.4v18.3z" fill="#9d5025"/><path d="M413.85 632.43l-8.86-1.3v-21.4l8.85 4.4v18.3z" fill="#f58536"/><path d="M387.87 647.52l17.1 1.32v21.44l-17.1-4.46v-18.3z" fill="#9d5025"/><path d="M413.68 647.58l-8.7 1.28v21.42l8.7-4.34v-18.36zM365.8 632.4l-16.94-1.26v-21.42l16.94 4.4v18.3z" fill="#f58536"/><path d="M340 632.43l8.86-1.3v-21.4l-8.86 4.4v18.3z" fill="#9d5025"/><path d="M365.8 647.52l-16.94 1.32v21.44l16.94-4.46v-18.3z" fill="#f58536"/><path d="M340 647.56l8.86 1.3v21.42l-8.86-4.4v-18.32z" fill="#9d5025"/><path d="M394.55 650.36l-17.64-1.75-17.78 1.72 17.8 33.92 17.63-33.88z" fill="#fbbf93"/><path d="M394.55 629.63l-17.64 1.75-17.78-1.7 17.8-33.93 17.63 33.88z" fill="#6b3a19"/><path d="M394.55 629.65l-17.62-2.55v-31.35l17.62 8.78v25.12z" fill="#f58536"/><path d="M359.12 629.66l17.8-2.57v-31.35l-17.8 8.85v25.06z" fill="#9d5025"/><path d="M394.55 650.35l-17.62 2.54v31.34l17.62-8.78v-25.1z" fill="#f58536"/><path d="M359.12 650.33l17.8 2.58v31.34l-17.8-8.85v-25.07z" fill="#9d5025"/><use xlink:href="#b" transform="matrix(1,0,0,1,340,684.25) translate(-7.400000000000006 14.4)"/><path d="M413.68 650h74.04" stroke="#666" stroke-width="2" fill="none"/><path fill="#666"/><path d="M502.72 650l-14.26 4.64v-9.28z" fill="#666"/><path d="M505.96 650l-18.5 6v-12zm-16.5 3.26L499.5 650l-10.04-3.26z" fill="#666"/><path d="M364.55 796.37l13.93 1.44 12.87-8.95-12.87-10.7-13.93 1.46v16.77zM403.06 763.52l7.9-1.7 5.83 20.93-5.83 27.63-7.9-.97v-45.88z" fill="#692f56"/><path d="M410.97 808.46l6.5 2.97V764.6l-6.5-2.78v46.64z" fill="#ad688b"/><path d="M403.06 802.74l7.9.98-32.5 24.27-8.68-18.22 33.28-7.04z" fill="#cfb2c1"/><path d="M353.9 812.45l-7.93 1.72-4.5-47.67 12.42 1.66v44.3z" fill="#ad688b"/><path d="M353.9 773.26l-7.92-1 32.5-24.26 8.7 18.2-33.3 7.06z" fill="#512843"/><path d="M387.17 809.77l-21.06-4.45-8.38 1.36 20.8 20.55 8.65-17.46z" fill="#cfb2c1"/><path d="M369.78 766.2l8.66-18.18 20.8 21.3-8.4 1.34-21.06-4.46z" fill="#512843"/><path d="M392.4 796.37l-13.92 1.44v-19.64l13.92 1.45v16.77zM417.48 811.43l-39 16.56v-16l34.63-8.83 2.4.6 1.98 7.66z" fill="#ad688b"/><path d="M357.72 806.7l20.75 5.3v15.97l-20.75-8.8v-12.48z" fill="#692f56"/><path d="M399.23 769.3l-20.75-5.3v-15.98l20.75 8.8v12.48z" fill="#ad688b"/><path d="M339.48 764.57l39-16.57v16l-39 9.93v-9.36z" fill="#692f56"/><path d="M345.98 768.13l-6.5-3.57v46.83l6.5 2.77v-46.04z" fill="#692f56"/><use xlink:href="#c" transform="matrix(1,0,0,1,339.47894088183244,828) translate(8.049999999999997 14.4)"/><use xlink:href="#d" transform="matrix(1,0,0,1,339.47894088183244,828) translate(10.024999999999999 36)"/><path d="M175.13 650h146.63" stroke="#3aa6dd" stroke-width="2" fill="none"/><path d="M174.4 654.64L160.12 650l14.26-4.64z" fill="#3aa6dd"/><path d="M175.4 656l-18.5-6 18.5-6zm-12.04-6l10.03 3.26v-6.52zM336.76 650l-14.26 4.64v-9.28z" fill="#3aa6dd"/><path d="M340 650l-18.5 6v-12zm-16.5 3.26l10.03-3.26-10.03-3.26z" fill="#3aa6dd"/><path d="M118.45 615.8V293.93c0-2.76 2.24-5 5-5h94.15" stroke="#3aa6dd" stroke-width="2" fill="none"/><path d="M117.45 615.92v-.13h.95zm2-.03l-1-.1h1zM232.6 288.94l-14.27 4.64v-9.28z" fill="#3aa6dd"/><path d="M235.84 288.94l-18.5 6v-12zm-16.5 3.26l10.02-3.26-10.03-3.26z" fill="#3aa6dd"/><path d="M546.95 596.92l50 6.8v4.02c0 5.96-22.4 10.77-50 10.77s-50-4.8-50-10.76v-4.36z" fill="#8c3123"/><path d="M546.97 625.9c20.86 0 38.74-2.8 46.2-6.72l2.47-3.77 1-3.45v4.3l-16.4 63.94c0 3.98-14.9 7.15-33.27 7.15-18.37 0-33.27-3.17-33.27-7.16l-16.4-63.96v-4.22l3.78 7.3c7.55 3.86 25.23 6.57 45.9 6.57z" fill="#8c3123"/><path d="M546.96 592.64c27.6 0 50 4.83 50 10.75s-22.4 10.7-50 10.7-50-4.74-50-10.7c0-5.97 22.4-10.76 50-10.76z" fill="#e05243"/><path d="M546.95 621.54c25.73 0 46.9-4.12 49.68-9.53l-16.4 63.95c0 3.98-14.9 7.18-33.28 7.18-18.38 0-33.28-3.2-33.28-7.18L497.27 612c2.8 5.42 23.95 9.54 49.68 9.54z" fill="#e05243"/><use xlink:href="#e" transform="matrix(1,0,0,1,496.9578817636649,687.3579696554183) translate(29.025 14.4)"/><use xlink:href="#f" transform="matrix(1,0,0,1,496.9578817636649,687.3579696554183) translate(19.549999999999997 36)"/><path d="M850 925.42l49.98 8.62v5.1c0 7.53-22.4 13.63-50 13.63-27.58 0-49.98-6.1-49.98-13.64v-5.53z" fill="#8c3123"/><path d="M850 962.13c20.87 0 38.75-3.54 46.2-8.5l2.5-4.78.98-4.4v5.45l-16.4 81c0 5.08-14.9 9.1-33.26 9.1-18.38 0-33.28-4.02-33.28-9.1l-16.4-81v-5.35l3.78 9.27c7.55 4.87 25.23 8.3 45.9 8.3z" fill="#8c3123"/><path d="M850 920c27.6 0 50 6.12 50 13.62 0 7.5-22.4 13.57-50 13.57s-50-6.02-50-13.58c0-7.56 22.4-13.62 50-13.62z" fill="#e05243"/><path d="M850 956.6c25.73 0 46.9-5.2 49.67-12.06l-16.4 81c0 5.05-14.9 9.1-33.27 9.1-18.38 0-33.3-4.05-33.3-9.1l-16.38-81c2.78 6.85 23.94 12.07 49.67 12.07z" fill="#e05243"/><use xlink:href="#g" transform="matrix(1,0,0,1,800,1040) translate(22.05 14.4)"/><use xlink:href="#h" transform="matrix(1,0,0,1,800,1040) translate(16 36)"/><path d="M646.95 925.42l50 8.62v5.1c0 7.53-22.4 13.63-50 13.63s-50-6.1-50-13.64v-5.53z" fill="#8c3123"/><path d="M646.97 962.13c20.86 0 38.74-3.54 46.2-8.5l2.47-4.78 1-4.4v5.45l-16.4 81c0 5.08-14.9 9.1-33.27 9.1-18.37 0-33.27-4.02-33.27-9.1l-16.4-81v-5.35l3.78 9.27c7.55 4.87 25.23 8.3 45.9 8.3z" fill="#8c3123"/><path d="M646.96 920c27.6 0 50 6.12 50 13.62 0 7.5-22.4 13.57-50 13.57s-50-6.02-50-13.58c0-7.56 22.4-13.62 50-13.62z" fill="#e05243"/><path d="M646.95 956.6c25.73 0 46.9-5.2 49.68-12.06l-16.4 81c0 5.05-14.9 9.1-33.28 9.1-18.38 0-33.28-4.05-33.28-9.1l-16.4-81c2.8 6.85 23.95 12.07 49.68 12.07z" fill="#e05243"/><use xlink:href="#i" transform="matrix(1,0,0,1,596.9578817636649,1040) translate(25.549999999999997 14.4)"/><use xlink:href="#h" transform="matrix(1,0,0,1,596.9578817636649,1040) translate(16 36)"/><path d="M330.83 284.4l-23.08-.72-14.93.7 24.66 25.56 13.35-25.55z" fill="#fad791"/><path d="M330.83 273.83l-23.08.7-14.93-.7 24.66-25.55 13.35 25.55zM235.84 273.78l23.07.76 14.94-.73-24.66-25.4-13.34 25.38z" fill="#624a1e"/><path d="M235.84 284.4l23.07-.72 14.94.7-24.66 25.6-13.34-25.6z" fill="#fad791"/><path d="M317.5 272.8l13.33 1.02v-20.46l-13.34-5.08v24.52z" fill="#d9a741"/><path d="M292.82 253.36l24.66-5.08v24.52l-24.66 1.02v-20.46z" fill="#876929"/><path d="M283.34 250.37l26.7 6.66v10.1l-26.7-3.58v-13.18z" fill="#d9a741"/><path d="M271.3 265.23l12.24-1.64 26.5 3.55-11.85 1-26.9-2.92z" fill="#624a1e"/><path d="M249.17 272.78l-13.33 1v-20.53l13.33-5v24.53z" fill="#876929"/><path d="M273.84 253.34l-24.67-5.1v24.55l24.67 1v-20.46z" fill="#d9a741"/><path d="M283.33 250.37l-26.72 6.66v10.1l26.73-3.58v-13.18z" fill="#876929"/><path d="M295.36 265.23l-12.24-1.64-26.5 3.55 11.85 1 26.9-2.92z" fill="#624a1e"/><path d="M317.5 285.42l13.33-1.02v20.46l-13.34 5.08v-24.52z" fill="#d9a741"/><path d="M292.82 304.86l24.66 5.08v-24.52l-24.66-1.02v20.46z" fill="#876929"/><path d="M283.34 307.84l26.7-6.66v-10.1l-26.7 3.58v13.18z" fill="#d9a741"/><path d="M271.3 292.98l12.24 1.64 26.5-3.55-11.85-1-26.9 2.9z" fill="#fad791"/><path d="M249.17 285.42l-13.33-1.02v20.45l13.33 5.1v-24.53z" fill="#876929"/><path d="M273.84 304.87l-24.67 5.1V285.4l24.67-1.02v20.47z" fill="#d9a741"/><path d="M283.33 307.84l-26.72-6.66v-10.1l26.73 3.58v13.18z" fill="#876929"/><path d="M295.36 292.98l-12.24 1.64-26.5-3.55 11.85-1 26.9 2.9z" fill="#fad791"/><path d="M269.12 317.2l14.2 5.4 7.88-2.96 6.34-78.95-14.2-5.43-14.22 5.42v76.5z" fill="#876929"/><path d="M297.54 317.2l-14.2 5.4v-87.33l14.2 5.42v76.5z" fill="#d9a741"/><use xlink:href="#j" transform="matrix(1,0,0,1,235.83501790388254,322.60652275841585) translate(33.5 14.4)"/><use xlink:href="#k" transform="matrix(1,0,0,1,235.83501790388254,322.60652275841585) translate(12.524999999999999 36)"/><path d="M320.1 1154.25h321.86c2.76 0 5-2.24 5-5v-71" stroke="#000" stroke-width="2" fill="none"/><path/><path d="M651.6 1077.5h-9.28l4.64-14.26z"/><path d="M652.97 1078.5h-12.02l6-18.5zm-9.27-2h6.52l-3.26-10.03z"/><path d="M118.45 615.8V464c0-2.76 2.24-5 5-5h98.3" fill="none"/><path d="M118.45 615.8v-4.23m0-8.43v-8.43m0-8.43v-8.43m0-8.43v-8.43m0-8.43v-8.43m0-8.42v-8.44m0-8.43v-8.42m0-8.43v-8.44m0-8.42v-8.43m0-8.43V464l.96-2.95 2.47-1.8 1.58-.25h4.1m8.2 0h8.18m8.2 0h8.2m8.18 0h8.2m8.2 0h8.2m8.18 0h8.2m8.2 0h4.08" stroke="#000" stroke-width="2" fill="none"/><path d="M117.45 615.92v-.13h.95zm2-.03l-1-.1h1zM236.76 459l-14.26 4.64v-9.28z"/><path d="M240 459l-18.5 6v-12zm-16.5 3.26l10.03-3.26-10.03-3.26z"/><path d="M330.83 288.94h180.15c2.76 0 5-2.24 5-5V192.2c0-2.76 2.24-5 5-5H682.9" stroke="#000" stroke-width="2" fill="none"/><path d="M327.93 289.94h-.1v-2h1.14zM697.9 187.2l-14.26 4.64v-9.27z"/><path d="M701.14 187.2l-18.5 6v-12zm-16.5 3.26l10.03-3.26-10.03-3.26z"/><path d="M118.45 679.97V985c0 2.76 2.24 5 5 5h463.73" fill="none"/><path d="M118.45 679.97v4m0 8.04v8.03m0 8.03v8.03m0 8v8.04m0 8.03v8.03m0 8.02v8.03m0 8.03v8.03m0 8.03v8.03m0 8.03v8m0 8.04v8.03m0 8.03v8.02m0 8.03v8.03m0 8.03v8.03m0 8.03v8.03m0 8v8.04m0 8.03v8.03m0 8.02v8.03m0 8.03v8.02m0 8.03v8.03m0 8.03v4l.96 2.95 2.47 1.8 1.58.25h4m8 0h8m7.98 0h8m8 0h8m8 0h7.98m8 0h8m8 0h8m8 0h7.98m8 0h8m8 0h8m7.98 0h8m8 0h8m7.98 0h8m8 0h8m7.98 0h8m8 0h8m8 0h7.98m8 0h8m8 0h7.98m8 0h8m8 0h7.98m8 0h8m8 0h8m7.98 0h8m8 0h8m7.98 0h8m8 0h8m7.98 0h8m8 0h8m8 0h3.98" stroke="#000" stroke-width="2" fill="none"/><path/><path d="M602.18 990l-14.26 4.64v-9.28z"/><path d="M605.42 990l-18.5 6v-12zm-16.5 3.26l10.03-3.26-10.03-3.26z"/><path d="M272.2 1151.77l-16.92 22.62-8.87-22.58 16.18-1 9.62.95zM294.28 1151.77l17.1 22.76 8.7-22.7-16-1-9.8.94z" fill="#fbbf93"/><path d="M272.2 1136.65l-16.92-22.68-8.87 22.7 16.3.98 9.5-1zM294.28 1136.67l17.12-22.7 8.86 22.72-16.2.97-9.78-1z" fill="#6b3a19"/><path d="M294.28 1136.66l17.1-1.27v-21.43l-17.1 4.4v18.3z" fill="#9d5025"/><path d="M320.26 1136.68l-8.87-1.3V1114l8.86 4.4v18.3z" fill="#f58536"/><path d="M294.28 1151.77l17.1 1.32v21.43l-17.1-4.46v-18.3z" fill="#9d5025"/><path d="M320.1 1151.83l-8.7 1.28v21.43l8.7-4.34v-18.37zM272.2 1136.66l-16.93-1.27v-21.43l16.93 4.4v18.3z" fill="#f58536"/><path d="M246.4 1136.68l8.87-1.3V1114l-8.86 4.4v18.3z" fill="#9d5025"/><path d="M272.2 1151.77l-16.93 1.32v21.43l16.93-4.46v-18.3z" fill="#f58536"/><path d="M246.4 1151.8l8.87 1.3v21.43l-8.86-4.4v-18.32z" fill="#9d5025"/><path d="M300.96 1154.6l-17.65-1.74-17.77 1.7 17.78 33.93 17.66-33.9z" fill="#fbbf93"/><path d="M300.96 1133.88l-17.65 1.75-17.77-1.7L283.3 1100l17.66 33.88z" fill="#6b3a19"/><path d="M300.96 1133.9l-17.62-2.55V1100l17.62 8.78v25.12z" fill="#f58536"/><path d="M265.53 1133.9l17.8-2.56V1100l-17.8 8.85v25.06z" fill="#9d5025"/><path d="M300.96 1154.6l-17.62 2.54v31.35l17.62-8.8v-25.1z" fill="#f58536"/><path d="M265.53 1154.58l17.8 2.58v31.33l-17.8-8.86v-25.06z" fill="#9d5025"/><use xlink:href="#b" transform="matrix(1,0,0,1,246.40633915493157,1188.5) translate(-7.400000000000006 14.4)"/><path d="M118.45 679.97v469.28c0 2.76 2.24 5 5 5h104.72" stroke="#3aa6dd" stroke-width="2" fill="none"/><path fill="#3aa6dd"/><path d="M243.17 1154.25l-14.27 4.64v-9.3z" fill="#3aa6dd"/><path d="M246.4 1154.25l-18.5 6v-12zm-16.5 3.26l10.03-3.25-10.03-3.26z" fill="#3aa6dd"/><path d="M279.92 1018.78l38.82-19.44v-38.76l-38.82 19.38v38.82z" fill="#fff"/><path d="M241.17 999.32l38.77 19.42v-38.78l-38.77-19.35v38.72zM318.48 960.6l-38.53-19.26-38.53 19.25 38.53 19.25 38.53-19.26z" fill="#fff"/><path d="M279.94 978.7l36.3-18.1-.04-.02-36.26 18.12zM243.7 960.58h-.04l36.28 18.12-36.25-18.12z" fill="#fff"/><path d="M318.64 959.36L279.92 940l-38.72 19.36-1.2.64v40l38.8 19.36 1.2.64 1.2-.64L320 1000v-40zm-1.2 39.36l-36.24 18.16v-36.32l36.32-18.08zm-38.72 18.16l-36.32-18.16v-36.24l36.32 18.08zm-35.04-56.32l36.24-18.08 36.32 18.08-36.32 18.16-36.24-18.16z" fill="#444"/><path d="M280.1 1000.9l20.86-10.44v-20.8l-20.86 10.4v20.83zM258.93 990.46l20.85 10.43v-20.84l-20.85-10.4v20.8zM300.74 969.38L279.94 959l-20.8 10.38 20.8 10.4 20.8-10.4z" fill="#205e00"/><path d="M279.94 978.73l18.7-9.34-.02-.02-18.68 9.34zM261.26 969.38h-.02l18.7 9.35-18.68-9.35z" fill="#96bf3d"/><path d="M301.1 968.12l-21.14-10.54-21.2 10.54-1.2.62v22.46l21.14 10.57 1.26.63 1.2-.63 21.2-10.57v-22.46zm-1.2 21.82l-18.73 9.37v-18.73l18.72-9.32zm-21.2 9.37l-18.72-9.36v-18.7l18.72 9.33zm-17.42-29.93l18.68-9.32 18.67 9.32-18.67 9.37-18.73-9.32z" fill="#fff"/><use xlink:href="#l" transform="matrix(1,0,0,1,240,1020) translate(-1.9500000000000028 14.4)"/><path d="M118.45 679.97V793c0 2.76 2.24 5 5 5h197.8" stroke="#000" stroke-width="2" fill="none"/><path/><path d="M336.24 798l-14.26 4.64v-9.28z"/><path d="M339.48 798l-18.5 6v-12zm-16.5 3.26L333 798 323 794.74z"/><path d="M517.86 796.23c0 3.46-2.8 6.26-6.24 6.26-3.45 0-6.24-2.8-6.24-6.27 0-3.46 2.8-6.27 6.24-6.27 3.44 0 6.24 2.8 6.24 6.27z" fill="#4b612c"/><path d="M505.38 790.7h12.48v5.52h-12.48v-5.52z" fill="#4b612c"/><path d="M486.96 765.53V828h120v-62.47zm102.96 40.9h-46.2c-5.64 12-19.8 17.13-31.8 11.5-12-5.62-17.04-19.92-11.52-31.9 5.64-12 19.92-17.2 31.92-11.57 5.16 2.5 9 6.25 11.4 11.56h14.16l2.52 4.43 9.36-.87 3.6 3.75 3.24.68 8.52-5.1 10.68 8.1z" fill="#4b612c"/><path d="M517.86 790.7c0 3.45-2.8 6.26-6.24 6.26-3.45 0-6.24-2.8-6.24-6.27 0-3.47 2.8-6.27 6.24-6.27 3.44 0 6.24 2.8 6.24 6.26z" fill="#759c3e"/><path d="M486.96 760v62.46h120V760zm102.96 40.9h-46.2c-5.64 12-19.8 17.13-31.8 11.5-12-5.6-17.04-19.92-11.52-31.9 5.64-12 19.92-17.2 31.92-11.57 5.16 2.5 9 6.25 11.4 11.56h14.16l2.52 4.42 9.36-.87 3.6 3.75 3.24.68 8.52-5.12 10.68 8.12z" fill="#759c3e"/><use xlink:href="#m" transform="matrix(1,0,0,1,486.9578817636649,828) translate(19.875 14.4)"/><use xlink:href="#n" transform="matrix(1,0,0,1,486.9578817636649,828) translate(65.175 14.4)"/><path d="M417.47 798h51.25" stroke="#000" stroke-width="2" fill="none"/><path/><path d="M483.72 798l-14.26 4.64v-9.28z"/><path d="M486.96 798l-18.5 6v-12zm-16.5 3.26L480.5 798l-10.04-3.26z"/><path d="M380 1105c0-2.76 2.24-5 5-5h230c2.76 0 5 2.24 5 5v43.2c0 2.76-2.24 5-5 5H385c-2.76 0-5-2.24-5-5z" stroke="#000" stroke-opacity="0" stroke-width="2" fill="#fff" fill-opacity="0"/><use xlink:href="#o" transform="matrix(1,0,0,1,385,1105) translate(50.72500000000001 14.799999999999999)"/><use xlink:href="#p" transform="matrix(1,0,0,1,385,1105) translate(92.32500000000002 14.799999999999999)"/><use xlink:href="#q" transform="matrix(1,0,0,1,385,1105) translate(156.325 14.799999999999999)"/><use xlink:href="#r" transform="matrix(1,0,0,1,385,1105) translate(55.62499999999999 36.4)"/><use xlink:href="#s" transform="matrix(1,0,0,1,385,1105) translate(138.475 36.4)"/><path d="M1140 805c0-2.76 2.24-5 5-5h290c2.76 0 5 2.24 5 5v92c0 2.76-2.24 5-5 5h-290c-2.76 0-5-2.24-5-5z" stroke="#000" stroke-opacity="0" stroke-width="2" fill="#c1e4f7"/><use xlink:href="#t" transform="matrix(1,0,0,1,1145,805) translate(16.543209876543216 37.611111111111114)"/><use xlink:href="#u" transform="matrix(1,0,0,1,1145,805) translate(58.518518518518526 37.611111111111114)"/><use xlink:href="#v" transform="matrix(1,0,0,1,1145,805) translate(114.44444444444444 37.611111111111114)"/><use xlink:href="#w" transform="matrix(1,0,0,1,1145,805) translate(179.8148148148148 37.611111111111114)"/><use xlink:href="#x" transform="matrix(1,0,0,1,1145,805) translate(230.30864197530863 37.611111111111114)"/><use xlink:href="#y" transform="matrix(1,0,0,1,1145,805) translate(12.993827160493822 64.27777777777777)"/><use xlink:href="#z" transform="matrix(1,0,0,1,1145,805) translate(132.68518518518516 64.27777777777777)"/><use xlink:href="#A" transform="matrix(1,0,0,1,1145,805) translate(167.19135802469134 64.27777777777777)"/><use xlink:href="#B" transform="matrix(1,0,0,1,1145,805) translate(222.68518518518516 64.27777777777777)"/><path d="M1150 1025c0-2.76 2.24-5 5-5h280c2.76 0 5 2.24 5 5v138c0 2.76-2.24 5-5 5h-280c-2.76 0-5-2.24-5-5z" stroke="#000" stroke-opacity="0" stroke-width="2" fill="#c1e4f7"/><use xlink:href="#C" transform="matrix(1,0,0,1,1155,1025) translate(6.5123456790123555 47.27777777777778)"/><use xlink:href="#D" transform="matrix(1,0,0,1,1155,1025) translate(61.94444444444445 47.27777777777778)"/><use xlink:href="#E" transform="matrix(1,0,0,1,1155,1025) translate(190.83333333333334 47.27777777777778)"/><use xlink:href="#F" transform="matrix(1,0,0,1,1155,1025) translate(24.104938271604937 73.94444444444446)"/><use xlink:href="#G" transform="matrix(1,0,0,1,1155,1025) translate(83.30246913580247 73.94444444444446)"/><use xlink:href="#H" transform="matrix(1,0,0,1,1155,1025) translate(230.03086419753086 73.94444444444446)"/><use xlink:href="#I" transform="matrix(1,0,0,1,1155,1025) translate(65.98765432098764 100.61111111111111)"/><use xlink:href="#J" transform="matrix(1,0,0,1,1155,1025) translate(141.17283950617283 100.61111111111111)"/><path d="M317.3 1171.58l2.38 4.47 2.5 4.26 2.64 4.1 2.76 3.9 2.9 3.78 3.07 3.65 3.22 3.52 3.4 3.42 3.6 3.32 3.8 3.22 4.02 3.14 4.28 3.07 4.58 3 4.9 2.92 5.28 2.84 5.7 2.77 6.17 2.7 6.74 2.6 7.37 2.5 8.12 2.38 9 2.24 10.04 2.04 11.3 1.82 12.82 1.52 14.7 1.1 17.06.6 20.1-.17 24.1-1.2 29.68-2.73 38.22-5.16 54.6-9.73 120.5-26.32 20.67-4.9 23.9-6.7 30.6-10.05 171.6-63.6 24.7-6.94 21.45-5.08 19.57-3.77 18.4-2.73 17.6-1.88 14.84-.97" stroke="#99d2f2" stroke-width="3" fill="none"/><path d="M316 1172.34l-.04-.1 1.4-.7zM1145.15 1094.13l-14.14 5-.24-9.25z" fill="#99d2f2"/><path d="M1150 1094l-20.43 7.25-.36-13.4zm-17.54 3.04l7.84-2.78-7.98-2.36z" fill="#99d2f2"/><path d="M1120 503c0-2.76 2.24-5 5-5h310c2.76 0 5 2.24 5 5v92c0 2.76-2.24 5-5 5h-310c-2.76 0-5-2.24-5-5z" stroke="#000" stroke-opacity="0" stroke-width="2" fill="#c1e4f7"/><use xlink:href="#K" transform="matrix(1,0,0,1,1125,502.99999999999994) translate(48.111111111111086 35.833333333333336)"/><use xlink:href="#L" transform="matrix(1,0,0,1,1125,502.99999999999994) translate(114.62962962962962 35.833333333333336)"/><use xlink:href="#M" transform="matrix(1,0,0,1,1125,502.99999999999994) translate(105.40740740740739 67.83333333333334)"/><path d="M254.85 650l.07-3.64.22-3.45.34-3.25.46-3.12.57-2.98.68-2.87.78-2.77.87-2.66.96-2.6 1.06-2.54 1.16-2.48 1.28-2.42 1.38-2.4 1.5-2.35 1.6-2.34 1.77-2.3 1.9-2.3 2.08-2.3 2.25-2.3 2.45-2.3 2.68-2.3 2.95-2.34 3.24-2.35 3.57-2.37 3.97-2.4 4.43-2.43 4.97-2.47 5.6-2.5 6.4-2.52 7.3-2.54 8.47-2.54 9.88-2.53 11.65-2.48 13.92-2.34 16.87-2.12 20.8-1.73 26.16-1.08 33.75.04 45.02 1.92 63.33 5.4 102.94 13.26 124.07 19.46 18.57 2.44 15.96 1.4 14.04.66 12.6.06 11.6-.43 10.86-.87 10.43-1.27 10.3-1.7 10.54-2.2 11.37-2.87 13.66-4.07 79.5-27.03 14.34-3.62 13.95-2.9 14.28-2.36 15.1-1.85 16.43-1.3 8.04-.3" stroke="#ccc" stroke-width="2" fill="none"/><path d="M1116.76 549.08l-14.14 4.98-.23-9.26z" fill="#ccc"/><path d="M1120 549l-18.35 6.46-.3-12zm-16.42 3.66l9.95-3.5-10.1-3z" fill="#ccc"/><path d="M153.1 288.94l.1 4.02.23 3.75.37 3.53.5 3.32.6 3.14.7 2.97.8 2.85.88 2.74.97 2.63 1.07 2.53 1.16 2.46 1.25 2.38 1.34 2.33 1.45 2.3 1.55 2.22 1.67 2.2 1.8 2.17 1.93 2.14 2.1 2.13 2.24 2.1 2.45 2.12 2.65 2.1 2.9 2.1 3.17 2.1 3.5 2.1 3.85 2.13 4.3 2.12 4.8 2.14 5.4 2.13 6.14 2.14 7.04 2.12 8.15 2.07 9.54 2.03 11.32 1.9 13.7 1.73 16.88 1.4 21.45.88 28.38-.02 40.37-1.75 69.7-6.04 208.08-22.67 26.5-1.15 17.13-.03 9.77.36 10.66.8 10.75 1.26 10.93 1.75 11.22 2.28 11.58 2.86 12.1 3.53 12.8 4.33 13.72 5.3 15.05 6.54 17 8.25 20.16 10.85 26.48 15.75 155.84 100.93 22.18 11.94 19.04 9.25 17.12 7.44 13.2 5.08" stroke="#99d2f2" stroke-width="2" fill="none"/><path d="M1116.94 547.94l-15-.28 3.03-8.76z" fill="#99d2f2"/><path d="M1120 549l-19.45-.36 3.93-11.37zm-16.66-2.3l10.54.18-8.4-6.35z" fill="#99d2f2"/><path d="M254.85 650l.07-3.64.22-3.45.34-3.25.46-3.12.57-2.98.68-2.87.78-2.77.87-2.66.96-2.6 1.06-2.54 1.16-2.48 1.28-2.42 1.38-2.4 1.5-2.35 1.6-2.34 1.77-2.3 1.9-2.3 2.08-2.3 2.25-2.3 2.45-2.3 2.68-2.3 2.95-2.34 3.24-2.35 3.57-2.37 3.97-2.4 4.43-2.43 4.97-2.47 5.6-2.5 6.4-2.52 7.3-2.54 8.47-2.54 9.88-2.53 11.65-2.48 13.92-2.34 16.87-2.12 20.8-1.73 26.16-1.08 33.75.04 45.02 1.92 63.33 5.4 102.94 13.26 124.07 19.46 18.57 2.44 15.96 1.4 14.04.66 12.6.06 11.6-.43 10.86-.87 10.43-1.27 10.3-1.7 10.54-2.2 11.37-2.87 13.66-4.07 79.5-27.03 14.34-3.62 13.95-2.9 14.28-2.36 15.1-1.85 16.43-1.3 8.04-.3" stroke="#99d2f2" stroke-width="2" fill="none"/><path d="M1116.76 549.08l-14.14 4.98-.23-9.26z" fill="#99d2f2"/><path d="M1120 549l-18.35 6.46-.3-12zm-16.42 3.66l9.95-3.5-10.1-3z" fill="#99d2f2"/><path d="M270.27 456.42l-19.86 22.33-10.4-22.28 18.98-.98 11.3.92zM296.18 456.42l20.07 22.46 10.2-22.4-18.77-1-11.5.94z" fill="#fbbf93"/><path d="M270.27 441.5l-19.86-22.4-10.4 22.43 19.13.95 11.14-.98zM296.18 441.52l20.1-22.4 10.38 22.42-19 .96-11.48-.98z" fill="#6b3a19"/><path d="M296.18 441.5l20.07-1.25V419.1l-20.07 4.36v18.05z" fill="#9d5025"/><path d="M326.66 441.53l-10.4-1.27V419.1l10.4 4.36v18.07z" fill="#f58536"/><path d="M296.18 456.42l20.07 1.3v21.16l-20.07-4.4v-18.06z" fill="#9d5025"/><path d="M326.46 456.48l-10.2 1.26v21.14l10.2-4.28v-18.12zM270.27 441.5l-19.87-1.25V419.1l19.87 4.36v18.05z" fill="#f58536"/><path d="M240 441.53l10.4-1.27V419.1l-10.4 4.36v18.07z" fill="#9d5025"/><path d="M270.27 456.42l-19.87 1.3v21.16l19.87-4.4v-18.06z" fill="#f58536"/><path d="M240 456.46l10.4 1.28v21.14l-10.4-4.35v-18.07z" fill="#9d5025"/><path d="M304 459.22l-20.7-1.72-20.86 1.7 20.87 33.46 20.7-33.44z" fill="#fbbf93"/><path d="M304 438.77l-20.7 1.72-20.86-1.7 20.87-33.47 20.7 33.44z" fill="#6b3a19"/><path d="M304 438.78l-20.66-2.5v-30.95L304 414v24.78z" fill="#f58536"/><path d="M262.44 438.8l20.9-2.54v-30.93l-20.9 8.74v24.73z" fill="#9d5025"/><path d="M304 459.2l-20.66 2.52v30.94L304 484v-24.8z" fill="#f58536"/><path d="M262.44 459.2l20.9 2.54v30.92l-20.9-8.74V459.2z" fill="#9d5025"/><g><use xlink:href="#N" transform="matrix(1,0,0,1,240,492.66666666666674) translate(10.524999999999999 14.4)"/><use xlink:href="#O" transform="matrix(1,0,0,1,240,492.66666666666674) translate(-0.9000000000000057 36)"/></g><path d="M795 178.8c0 21.68-21.28 39.26-47.5 39.26S700 200.48 700 178.8c0-21.66 21.28-39.25 47.5-39.25s47.5 17.6 47.5 39.26z" fill="#9d5025"/><path d="M700 175.58h95v3.22h-95v-3.22z" fill="#9d5025"/><path d="M795 175.6c0 21.66-21.28 39.24-47.5 39.24S700 197.26 700 175.6c0-21.68 21.28-39.27 47.5-39.27s47.5 17.6 47.5 39.26z" fill="#f58536"/><path d="M778.4 194.88l-3.7-8.02-8.24 2.6-11.75-25.5-3.28-7.02-1.55-3.34-2.38-5.2H731.84v8.54h8.47l3 6.36-24.6 36.12h11.88l17.48-25.75 12.4 26.84 3-.92 6.68-2.1 8.23-2.6z" fill="#fff"/><g><use xlink:href="#P" transform="matrix(1,0,0,1,700,218.07101517229088) translate(1.0499999999999972 14.4)"/><use xlink:href="#Q" transform="matrix(1,0,0,1,700,218.07101517229088) translate(42 14.4)"/><use xlink:href="#R" transform="matrix(1,0,0,1,700,218.07101517229088) translate(10.5 36)"/><use xlink:href="#S" transform="matrix(1,0,0,1,700,218.07101517229088) translate(64.5 36)"/><use xlink:href="#T" transform="matrix(1,0,0,1,700,218.07101517229088) translate(7.074999999999996 57.6)"/></g><path d="M975 280.55c0 21.66-21.28 39.25-47.5 39.25S880 302.2 880 280.55c0-21.67 21.28-39.26 47.5-39.26s47.5 17.58 47.5 39.25z" fill="#9d5025"/><path d="M880 277.32h95v3.22h-95v-3.22z" fill="#9d5025"/><path d="M975 277.33c0 21.66-21.28 39.25-47.5 39.25s-47.5-17.6-47.5-39.25c0-21.67 21.28-39.26 47.5-39.26s47.5 17.6 47.5 39.26z" fill="#f58536"/><path d="M958.4 296.62l-3.7-8.03-8.24 2.6-11.75-25.5-3.28-7.02-1.55-3.34-2.38-5.2H911.84v8.54h8.47l3 6.35-24.6 36.13h11.88l17.48-25.75 12.4 26.85 3-.94 6.68-2.07 8.23-2.6z" fill="#fff"/><g><use xlink:href="#U" transform="matrix(1,0,0,1,880,319.8086970112075) translate(0.04999999999999716 14.4)"/><use xlink:href="#V" transform="matrix(1,0,0,1,880,319.8086970112075) translate(64.95 14.4)"/><use xlink:href="#W" transform="matrix(1,0,0,1,880,319.8086970112075) translate(19.525 36)"/><use xlink:href="#s" transform="matrix(1,0,0,1,880,319.8086970112075) translate(29.549999999999997 57.6)"/></g><path d="M330.83 288.94H862.9" stroke="#000" stroke-width="2" fill="none"/><path d="M327.93 289.94h-.1v-2h1.14zM877.9 288.94l-14.26 4.64v-9.28z"/><path d="M881.14 288.94l-18.5 6v-12zm-16.5 3.26l10.03-3.26-10.03-3.26z"/><path d="M416.3 1153.2h225.66c0-2.76 2.24-5 5-5s5 2.24 5 5H845c2.76 0 5-2.24 5-5v-69.96" stroke="#000" stroke-width="2" fill="none"/><path d="M416.3 1153.2h-3v-1h3zM854.64 1077.5h-9.28l4.64-14.26z"/><path d="M856 1078.5h-12l6-18.5zm-9.26-2h6.52l-3.26-10.03z"/><path d="M432.3 990l.2-9.4.5-8.17.76-7.2.95-6.42 1.1-5.74 1.22-5.2 1.32-4.72 1.4-4.33 1.48-3.97 1.55-3.7 1.6-3.42 1.7-3.2 1.72-3 1.8-2.83 1.85-2.68 1.93-2.55 2-2.42 2.1-2.3 2.15-2.23 2.27-2.12 2.36-2.05 2.5-1.97 2.6-1.9 2.78-1.84 2.93-1.78 3.13-1.72 3.35-1.66 3.6-1.6 3.92-1.55 4.25-1.47 4.66-1.4 5.16-1.33 5.76-1.22 6.5-1.1 7.4-.93 8.63-.72 10.22-.42 12.46.02 15.86.68 21.75 1.86 36.33 4.68 102.94 16.64 16.22 2.12 16.08 1.4 16.18.76 16.5.07 17.16-.65 18.28-1.47 20.2-2.46 23.8-3.94 32.78-6.88 134.6-31.95 26.08-4.32 22.62-2.77 20.84-1.66 7.83-.3" stroke="#99d2f2" stroke-width="3" fill="none"/><path d="M1135.15 851.13l-14.14 5-.23-9.26z" fill="#99d2f2"/><path d="M1140 851l-20.44 7.24-.35-13.4zm-17.55 3.03l7.85-2.78-7.98-2.36z" fill="#99d2f2"/><path d="M438.97 798l.1-5.58.32-4.94.46-4.42.58-4 .7-3.6.77-3.3.85-3.03.9-2.8.97-2.6 1.02-2.4 1.06-2.26 1.1-2.12 1.16-2 1.2-1.88 1.24-1.8 1.3-1.7 1.33-1.62 1.4-1.55 1.46-1.5 1.5-1.42 1.6-1.37 1.68-1.32 1.75-1.27 1.86-1.22 1.95-1.2 2.08-1.13 2.2-1.1 2.4-1.06 2.53-1.02 2.75-.95 3-.9 3.24-.84 3.57-.76 3.94-.67 4.37-.55 4.9-.4 5.55-.24h6.3l7.3.32 8.52.72 10.1 1.28 12.26 2.08 15.2 3.25 19.5 5.02 26.4 8 39.8 13.95 179.18 71.66 28.96 9.94 21.12 6.27 16.72 4.2 14.05 2.9 12.42 2.04 11.5 1.4 11.14.87 11.46.4 12.7-.07 16.54-.8 124.4-9.55 6.85-.1" stroke="#99d2f2" stroke-width="3" fill="none"/><path d="M1135.15 851.06l-14.2 4.83-.13-9.28z" fill="#99d2f2"/><path d="M1140 851l-20.53 6.97-.18-13.4zm-17.58 2.8l7.87-2.67-7.95-2.47z" fill="#99d2f2"/><defs><path d="M232-93c-1 65-40 97-104 97C67 4 28-28 28-90v-158h33c8 89-33 224 67 224 102 0 64-133 71-224h33v155" id="X"/><path d="M135-143c-3-34-86-38-87 0 15 53 115 12 119 90S17 21 10-45l28-5c4 36 97 45 98 0-10-56-113-15-118-90-4-57 82-63 122-42 12 7 21 19 24 35" id="Y"/><path d="M100-194c63 0 86 42 84 106H49c0 40 14 67 53 68 26 1 43-12 49-29l28 8c-11 28-37 45-77 45C44 4 14-33 15-96c1-61 26-98 85-98zm52 81c6-60-76-77-97-28-3 7-6 17-6 28h103" id="Z"/><path d="M114-163C36-179 61-72 57 0H25l-1-190h30c1 12-1 29 2 39 6-27 23-49 58-41v29" id="aa"/><g id="a"><use transform="matrix(0.05,0,0,0.05,0,0)" xlink:href="#X"/><use transform="matrix(0.05,0,0,0.05,12.950000000000001,0)" xlink:href="#Y"/><use transform="matrix(0.05,0,0,0.05,21.950000000000003,0)" xlink:href="#Z"/><use transform="matrix(0.05,0,0,0.05,31.950000000000003,0)" xlink:href="#aa"/><use transform="matrix(0.05,0,0,0.05,37.900000000000006,0)" xlink:href="#Y"/></g><path d="M212-179c-10-28-35-45-73-45-59 0-87 40-87 99 0 60 29 101 89 101 43 0 62-24 78-52l27 14C228-24 195 4 139 4 59 4 22-46 18-125c-6-104 99-153 187-111 19 9 31 26 39 46" id="ab"/><path d="M24 0v-261h32V0H24" id="ac"/><path d="M100-194c62-1 85 37 85 99 1 63-27 99-86 99S16-35 15-95c0-66 28-99 85-99zM99-20c44 1 53-31 53-75 0-43-8-75-51-75s-53 32-53 75 10 74 51 75" id="ad"/><path d="M84 4C-5 8 30-112 23-190h32v120c0 31 7 50 39 49 72-2 45-101 50-169h31l1 190h-30c-1-10 1-25-2-33-11 22-28 36-60 37" id="ae"/><path d="M85-194c31 0 48 13 60 33l-1-100h32l1 261h-30c-2-10 0-23-3-31C134-8 116 4 85 4 32 4 16-35 15-94c0-66 23-100 70-100zm9 24c-40 0-46 34-46 75 0 40 6 74 45 74 42 0 51-32 51-76 0-42-9-74-50-73" id="af"/><path d="M63-220v92h138v28H63V0H30v-248h175v28H63" id="ag"/><path d="M117-194c89-4 53 116 60 194h-32v-121c0-31-8-49-39-48C34-167 62-67 57 0H25l-1-190h30c1 10-1 24 2 32 11-22 29-35 61-36" id="ah"/><path d="M59-47c-2 24 18 29 38 22v24C64 9 27 4 27-40v-127H5v-23h24l9-43h21v43h35v23H59v120" id="ai"/><g id="b"><use transform="matrix(0.05,0,0,0.05,0,0)" xlink:href="#ab"/><use transform="matrix(0.05,0,0,0.05,12.950000000000001,0)" xlink:href="#ac"/><use transform="matrix(0.05,0,0,0.05,16.900000000000002,0)" xlink:href="#ad"/><use transform="matrix(0.05,0,0,0.05,26.900000000000002,0)" xlink:href="#ae"/><use transform="matrix(0.05,0,0,0.05,36.900000000000006,0)" xlink:href="#af"/><use transform="matrix(0.05,0,0,0.05,46.900000000000006,0)" xlink:href="#ag"/><use transform="matrix(0.05,0,0,0.05,57.85,0)" xlink:href="#aa"/><use transform="matrix(0.05,0,0,0.05,63.80000000000001,0)" xlink:href="#ad"/><use transform="matrix(0.05,0,0,0.05,73.80000000000001,0)" xlink:href="#ah"/><use transform="matrix(0.05,0,0,0.05,83.80000000000001,0)" xlink:href="#ai"/></g><path d="M177-190C167-65 218 103 67 71c-23-6-38-20-44-43l32-5c15 47 100 32 89-28v-30C133-14 115 1 83 1 29 1 15-40 15-95c0-56 16-97 71-98 29-1 48 16 59 35 1-10 0-23 2-32h30zM94-22c36 0 50-32 50-73 0-42-14-75-50-75-39 0-46 34-46 75s6 73 46 73" id="aj"/><path d="M24-231v-30h32v30H24zM24 0v-190h32V0H24" id="ak"/><g id="c"><use transform="matrix(0.05,0,0,0.05,0,0)" xlink:href="#ab"/><use transform="matrix(0.05,0,0,0.05,12.950000000000001,0)" xlink:href="#ad"/><use transform="matrix(0.05,0,0,0.05,22.950000000000003,0)" xlink:href="#aj"/><use transform="matrix(0.05,0,0,0.05,32.95,0)" xlink:href="#ah"/><use transform="matrix(0.05,0,0,0.05,42.95,0)" xlink:href="#ak"/><use transform="matrix(0.05,0,0,0.05,46.900000000000006,0)" xlink:href="#ai"/><use transform="matrix(0.05,0,0,0.05,51.900000000000006,0)" xlink:href="#ad"/></g><path d="M33 0v-248h34V0H33" id="al"/><path d="M179-190L93 31C79 59 56 82 12 73V49c39 6 53-20 64-50L1-190h34L92-34l54-156h33" id="am"/><g id="d"><use transform="matrix(0.05,0,0,0.05,0,0)" xlink:href="#al"/><use transform="matrix(0.05,0,0,0.05,5,0)" xlink:href="#af"/><use transform="matrix(0.05,0,0,0.05,15,0)" xlink:href="#Z"/><use transform="matrix(0.05,0,0,0.05,25,0)" xlink:href="#ah"/><use transform="matrix(0.05,0,0,0.05,35,0)" xlink:href="#ai"/><use transform="matrix(0.05,0,0,0.05,40,0)" xlink:href="#ak"/><use transform="matrix(0.05,0,0,0.05,43.95,0)" xlink:href="#ai"/><use transform="matrix(0.05,0,0,0.05,48.95,0)" xlink:href="#am"/></g><path d="M141-36C126-15 110 5 73 4 37 3 15-17 15-53c-1-64 63-63 125-63 3-35-9-54-41-54-24 1-41 7-42 31l-33-3c5-37 33-52 76-52 45 0 72 20 72 64v82c-1 20 7 32 28 27v20c-31 9-61-2-59-35zM48-53c0 20 12 33 32 33 41-3 63-29 60-74-43 2-92-5-92 41" id="an"/><path d="M96-169c-40 0-48 33-48 73s9 75 48 75c24 0 41-14 43-38l32 2c-6 37-31 61-74 61-59 0-76-41-82-99-10-93 101-131 147-64 4 7 5 14 7 22l-32 3c-4-21-16-35-41-35" id="ao"/><g id="e"><use transform="matrix(0.05,0,0,0.05,0,0)" xlink:href="#Y"/><use transform="matrix(0.05,0,0,0.05,9,0)" xlink:href="#ai"/><use transform="matrix(0.05,0,0,0.05,14,0)" xlink:href="#an"/><use transform="matrix(0.05,0,0,0.05,24,0)" xlink:href="#ai"/><use transform="matrix(0.05,0,0,0.05,29,0)" xlink:href="#ak"/><use transform="matrix(0.05,0,0,0.05,32.95,0)" xlink:href="#ao"/></g><path d="M206 0h-36l-40-164L89 0H53L-1-190h32L70-26l43-164h34l41 164 42-164h31" id="ap"/><path d="M115-194c53 0 69 39 70 98 0 66-23 100-70 100C84 3 66-7 56-30L54 0H23l1-261h32v101c10-23 28-34 59-34zm-8 174c40 0 45-34 45-75 0-40-5-75-45-74-42 0-51 32-51 76 0 43 10 73 51 73" id="aq"/><g id="f"><use transform="matrix(0.05,0,0,0.05,0,0)" xlink:href="#ap"/><use transform="matrix(0.05,0,0,0.05,12.950000000000001,0)" xlink:href="#Z"/><use transform="matrix(0.05,0,0,0.05,22.950000000000003,0)" xlink:href="#aq"/><use transform="matrix(0.05,0,0,0.05,32.95,0)" xlink:href="#Y"/><use transform="matrix(0.05,0,0,0.05,41.95,0)" xlink:href="#ak"/><use transform="matrix(0.05,0,0,0.05,45.900000000000006,0)" xlink:href="#ai"/><use transform="matrix(0.05,0,0,0.05,50.900000000000006,0)" xlink:href="#Z"/></g><path d="M30-248c87 1 191-15 191 75 0 78-77 80-158 76V0H30v-248zm33 125c57 0 124 11 124-50 0-59-68-47-124-48v98" id="ar"/><path d="M108 0H70L1-190h34L89-25l56-165h34" id="as"/><g id="g"><use transform="matrix(0.05,0,0,0.05,0,0)" xlink:href="#ar"/><use transform="matrix(0.05,0,0,0.05,12,0)" xlink:href="#aa"/><use transform="matrix(0.05,0,0,0.05,17.95,0)" xlink:href="#ak"/><use transform="matrix(0.05,0,0,0.05,21.9,0)" xlink:href="#as"/><use transform="matrix(0.05,0,0,0.05,30.899999999999995,0)" xlink:href="#an"/><use transform="matrix(0.05,0,0,0.05,40.9,0)" xlink:href="#ai"/><use transform="matrix(0.05,0,0,0.05,45.9,0)" xlink:href="#Z"/></g><g id="h"><use transform="matrix(0.05,0,0,0.05,0,0)" xlink:href="#ao"/><use transform="matrix(0.05,0,0,0.05,9,0)" xlink:href="#ad"/><use transform="matrix(0.05,0,0,0.05,19,0)" xlink:href="#ah"/><use transform="matrix(0.05,0,0,0.05,29,0)" xlink:href="#ai"/><use transform="matrix(0.05,0,0,0.05,34,0)" xlink:href="#Z"/><use transform="matrix(0.05,0,0,0.05,44,0)" xlink:href="#ah"/><use transform="matrix(0.05,0,0,0.05,54,0)" xlink:href="#ai"/><use transform="matrix(0.05,0,0,0.05,59,0)" xlink:href="#Y"/></g><g id="i"><use transform="matrix(0.05,0,0,0.05,0,0)" xlink:href="#ar"/><use transform="matrix(0.05,0,0,0.05,12,0)" xlink:href="#ae"/><use transform="matrix(0.05,0,0,0.05,22,0)" xlink:href="#aq"/><use transform="matrix(0.05,0,0,0.05,32,0)" xlink:href="#ac"/><use transform="matrix(0.05,0,0,0.05,35.95,0)" xlink:href="#ak"/><use transform="matrix(0.05,0,0,0.05,39.900000000000006,0)" xlink:href="#ao"/></g><path d="M205 0l-28-72H64L36 0H1l101-248h38L239 0h-34zm-38-99l-47-123c-12 45-31 82-46 123h93" id="at"/><g id="j"><use transform="matrix(0.05,0,0,0.05,0,0)" xlink:href="#at"/><use transform="matrix(0.05,0,0,0.05,12,0)" xlink:href="#ar"/><use transform="matrix(0.05,0,0,0.05,24,0)" xlink:href="#al"/></g><path d="M143 4C61 4 22-44 18-125c-5-107 100-154 193-111 17 8 29 25 37 43l-32 9c-13-25-37-40-76-40-61 0-88 39-88 99 0 61 29 100 91 101 35 0 62-11 79-27v-45h-74v-28h105v86C228-13 192 4 143 4" id="au"/><g id="k"><use transform="matrix(0.05,0,0,0.05,0,0)" xlink:href="#au"/><use transform="matrix(0.05,0,0,0.05,14,0)" xlink:href="#an"/><use transform="matrix(0.05,0,0,0.05,24,0)" xlink:href="#ai"/><use transform="matrix(0.05,0,0,0.05,29,0)" xlink:href="#Z"/><use transform="matrix(0.05,0,0,0.05,39,0)" xlink:href="#ap"/><use transform="matrix(0.05,0,0,0.05,51.95,0)" xlink:href="#an"/><use transform="matrix(0.05,0,0,0.05,61.95,0)" xlink:href="#am"/></g><path d="M153-248C145-148 188 4 80 4 36 3 13-21 6-62l32-5c4 25 16 42 43 43 27 0 39-20 39-49v-147H72v-28h81" id="av"/><path d="M185-189c-5-48-123-54-124 2 14 75 158 14 163 119 3 78-121 87-175 55-17-10-28-26-33-46l33-7c5 56 141 63 141-1 0-78-155-14-162-118-5-82 145-84 179-34 5 7 8 16 11 25" id="aw"/><path d="M115-194c55 1 70 41 70 98S169 2 115 4C84 4 66-9 55-30l1 105H24l-1-265h31l2 30c10-21 28-34 59-34zm-8 174c40 0 45-34 45-75s-6-73-45-74c-42 0-51 32-51 76 0 43 10 73 51 73" id="ax"/><g id="l"><use transform="matrix(0.05,0,0,0.05,0,0)" xlink:href="#av"/><use transform="matrix(0.05,0,0,0.05,9,0)" xlink:href="#an"/><use transform="matrix(0.05,0,0,0.05,19,0)" xlink:href="#as"/><use transform="matrix(0.05,0,0,0.05,28,0)" xlink:href="#an"/><use transform="matrix(0.05,0,0,0.05,38,0)" xlink:href="#aw"/><use transform="matrix(0.05,0,0,0.05,50,0)" xlink:href="#ao"/><use transform="matrix(0.05,0,0,0.05,59,0)" xlink:href="#aa"/><use transform="matrix(0.05,0,0,0.05,64.95,0)" xlink:href="#ak"/><use transform="matrix(0.05,0,0,0.05,68.9,0)" xlink:href="#ax"/><use transform="matrix(0.05,0,0,0.05,78.9,0)" xlink:href="#ai"/></g><path d="M266 0h-40l-56-210L115 0H75L2-248h35L96-30l15-64 43-154h32l59 218 59-218h35" id="ay"/><g id="m"><use transform="matrix(0.05,0,0,0.05,0,0)" xlink:href="#at"/><use transform="matrix(0.05,0,0,0.05,11.35,0)" xlink:href="#ay"/><use transform="matrix(0.05,0,0,0.05,28.299999999999997,0)" xlink:href="#aw"/></g><path d="M127-220V0H93v-220H8v-28h204v28h-85" id="az"/><g id="n"><use transform="matrix(0.05,0,0,0.05,0,0)" xlink:href="#aw"/><use transform="matrix(0.05,0,0,0.05,12,0)" xlink:href="#az"/><use transform="matrix(0.05,0,0,0.05,22.950000000000003,0)" xlink:href="#aw"/></g><path d="M30 0v-248h187v28H63v79h144v27H63v87h162V0H30" id="aA"/><g id="o"><use transform="matrix(0.05,0,0,0.05,0,0)" xlink:href="#au"/><use transform="matrix(0.05,0,0,0.05,14,0)" xlink:href="#aA"/><use transform="matrix(0.05,0,0,0.05,26,0)" xlink:href="#az"/></g><g id="p"><use transform="matrix(0.05,0,0,0.05,0,0)" xlink:href="#ao"/><use transform="matrix(0.05,0,0,0.05,9,0)" xlink:href="#ad"/><use transform="matrix(0.05,0,0,0.05,19,0)" xlink:href="#ah"/><use transform="matrix(0.05,0,0,0.05,29,0)" xlink:href="#ai"/><use transform="matrix(0.05,0,0,0.05,34,0)" xlink:href="#Z"/><use transform="matrix(0.05,0,0,0.05,44,0)" xlink:href="#ah"/><use transform="matrix(0.05,0,0,0.05,54,0)" xlink:href="#ai"/></g><g id="q"><use transform="matrix(0.05,0,0,0.05,0,0)" xlink:href="#as"/><use transform="matrix(0.05,0,0,0.05,9,0)" xlink:href="#ak"/><use transform="matrix(0.05,0,0,0.05,12.949999999999998,0)" xlink:href="#an"/></g><path d="M106-169C34-169 62-67 57 0H25v-261h32l-1 103c12-21 28-36 61-36 89 0 53 116 60 194h-32v-121c2-32-8-49-39-48" id="aB"/><path d="M16-82v-28h88v28H16" id="aC"/><path d="M143 0L79-87 56-68V0H24v-261h32v163l83-92h37l-77 82L181 0h-38" id="aD"/><g id="r"><use transform="matrix(0.05,0,0,0.05,0,0)" xlink:href="#ax"/><use transform="matrix(0.05,0,0,0.05,10,0)" xlink:href="#an"/><use transform="matrix(0.05,0,0,0.05,20,0)" xlink:href="#ai"/><use transform="matrix(0.05,0,0,0.05,25,0)" xlink:href="#aB"/><use transform="matrix(0.05,0,0,0.05,35,0)" xlink:href="#aC"/><use transform="matrix(0.05,0,0,0.05,40.95,0)" xlink:href="#an"/><use transform="matrix(0.05,0,0,0.05,50.95,0)" xlink:href="#ac"/><use transform="matrix(0.05,0,0,0.05,54.900000000000006,0)" xlink:href="#ak"/><use transform="matrix(0.05,0,0,0.05,58.85,0)" xlink:href="#aD"/><use transform="matrix(0.05,0,0,0.05,67.85000000000001,0)" xlink:href="#Z"/></g><path d="M233-177c-1 41-23 64-60 70L243 0h-38l-65-103H63V0H30v-248c88 3 205-21 203 71zM63-129c60-2 137 13 137-47 0-61-80-42-137-45v92" id="aE"/><path d="M30 0v-248h33v221h125V0H30" id="aF"/><g id="s"><use transform="matrix(0.05,0,0,0.05,0,0)" xlink:href="#X"/><use transform="matrix(0.05,0,0,0.05,12.950000000000001,0)" xlink:href="#aE"/><use transform="matrix(0.05,0,0,0.05,25.900000000000002,0)" xlink:href="#aF"/></g><path fill="#0c7cba" d="M143 4C61 4 22-44 18-125c-5-107 100-154 193-111 17 8 29 25 37 43l-32 9c-13-25-37-40-76-40-61 0-88 39-88 99 0 61 29 100 91 101 35 0 62-11 79-27v-45h-74v-28h105v86C228-13 192 4 143 4" id="aG"/><path fill="#0c7cba" d="M100-194c63 0 86 42 84 106H49c0 40 14 67 53 68 26 1 43-12 49-29l28 8c-11 28-37 45-77 45C44 4 14-33 15-96c1-61 26-98 85-98zm52 81c6-60-76-77-97-28-3 7-6 17-6 28h103" id="aH"/><path fill="#0c7cba" d="M59-47c-2 24 18 29 38 22v24C64 9 27 4 27-40v-127H5v-23h24l9-43h21v43h35v23H59v120" id="aI"/><g id="t"><use transform="matrix(0.06172839506172839,0,0,0.06172839506172839,0,0)" xlink:href="#aG"/><use transform="matrix(0.06172839506172839,0,0,0.06172839506172839,17.28395061728395,0)" xlink:href="#aH"/><use transform="matrix(0.06172839506172839,0,0,0.06172839506172839,29.629629629629626,0)" xlink:href="#aI"/></g><path fill="#0c7cba" d="M205 0l-28-72H64L36 0H1l101-248h38L239 0h-34zm-38-99l-47-123c-12 45-31 82-46 123h93" id="aJ"/><path fill="#0c7cba" d="M266 0h-40l-56-210L115 0H75L2-248h35L96-30l15-64 43-154h32l59 218 59-218h35" id="aK"/><path fill="#0c7cba" d="M185-189c-5-48-123-54-124 2 14 75 158 14 163 119 3 78-121 87-175 55-17-10-28-26-33-46l33-7c5 56 141 63 141-1 0-78-155-14-162-118-5-82 145-84 179-34 5 7 8 16 11 25" id="aL"/><g id="u"><use transform="matrix(0.06172839506172839,0,0,0.06172839506172839,0,0)" xlink:href="#aJ"/><use transform="matrix(0.06172839506172839,0,0,0.06172839506172839,14.012345679012345,0)" xlink:href="#aK"/><use transform="matrix(0.06172839506172839,0,0,0.06172839506172839,34.938271604938265,0)" xlink:href="#aL"/></g><path fill="#0c7cba" d="M127-220V0H93v-220H8v-28h204v28h-85" id="aM"/><path fill="#0c7cba" d="M100-194c62-1 85 37 85 99 1 63-27 99-86 99S16-35 15-95c0-66 28-99 85-99zM99-20c44 1 53-31 53-75 0-43-8-75-51-75s-53 32-53 75 10 74 51 75" id="aN"/><path fill="#0c7cba" d="M143 0L79-87 56-68V0H24v-261h32v163l83-92h37l-77 82L181 0h-38" id="aO"/><path fill="#0c7cba" d="M117-194c89-4 53 116 60 194h-32v-121c0-31-8-49-39-48C34-167 62-67 57 0H25l-1-190h30c1 10-1 24 2 32 11-22 29-35 61-36" id="aP"/><g id="v"><use transform="matrix(0.06172839506172839,0,0,0.06172839506172839,0,0)" xlink:href="#aM"/><use transform="matrix(0.06172839506172839,0,0,0.06172839506172839,11.049382716049381,0)" xlink:href="#aN"/><use transform="matrix(0.06172839506172839,0,0,0.06172839506172839,23.39506172839506,0)" xlink:href="#aO"/><use transform="matrix(0.06172839506172839,0,0,0.06172839506172839,34.50617283950617,0)" xlink:href="#aH"/><use transform="matrix(0.06172839506172839,0,0,0.06172839506172839,46.85185185185185,0)" xlink:href="#aP"/></g><path fill="#0c7cba" d="M101-234c-31-9-42 10-38 44h38v23H63V0H32v-167H5v-23h27c-7-52 17-82 69-68v24" id="aQ"/><path fill="#0c7cba" d="M114-163C36-179 61-72 57 0H25l-1-190h30c1 12-1 29 2 39 6-27 23-49 58-41v29" id="aR"/><path fill="#0c7cba" d="M210-169c-67 3-38 105-44 169h-31v-121c0-29-5-50-35-48C34-165 62-65 56 0H25l-1-190h30c1 10-1 24 2 32 10-44 99-50 107 0 11-21 27-35 58-36 85-2 47 119 55 194h-31v-121c0-29-5-49-35-48" id="aS"/><g id="w"><use transform="matrix(0.06172839506172839,0,0,0.06172839506172839,0,0)" xlink:href="#aQ"/><use transform="matrix(0.06172839506172839,0,0,0.06172839506172839,6.172839506172839,0)" xlink:href="#aR"/><use transform="matrix(0.06172839506172839,0,0,0.06172839506172839,13.518518518518519,0)" xlink:href="#aN"/><use transform="matrix(0.06172839506172839,0,0,0.06172839506172839,25.864197530864196,0)" xlink:href="#aS"/></g><g id="x"><use transform="matrix(0.06172839506172839,0,0,0.06172839506172839,0,0)" xlink:href="#aL"/><use transform="matrix(0.06172839506172839,0,0,0.06172839506172839,14.814814814814813,0)" xlink:href="#aM"/><use transform="matrix(0.06172839506172839,0,0,0.06172839506172839,28.33333333333333,0)" xlink:href="#aL"/></g><path fill="#0c7cba" d="M30 0v-248h33v221h125V0H30" id="aT"/><path fill="#0c7cba" d="M24-231v-30h32v30H24zM24 0v-190h32V0H24" id="aU"/><path fill="#0c7cba" d="M135-143c-3-34-86-38-87 0 15 53 115 12 119 90S17 21 10-45l28-5c4 36 97 45 98 0-10-56-113-15-118-90-4-57 82-63 122-42 12 7 21 19 24 35" id="aV"/><path fill="#0c7cba" d="M160-131c35 5 61 23 61 61C221 17 115-2 30 0v-248c76 3 177-17 177 60 0 33-19 50-47 57zm-97-11c50-1 110 9 110-42 0-47-63-36-110-37v79zm0 115c55-2 124 14 124-45 0-56-70-42-124-44v89" id="aW"/><path fill="#0c7cba" d="M84 4C-5 8 30-112 23-190h32v120c0 31 7 50 39 49 72-2 45-101 50-169h31l1 190h-30c-1-10 1-25-2-33-11 22-28 36-60 37" id="aX"/><path fill="#0c7cba" d="M96-169c-40 0-48 33-48 73s9 75 48 75c24 0 41-14 43-38l32 2c-6 37-31 61-74 61-59 0-76-41-82-99-10-93 101-131 147-64 4 7 5 14 7 22l-32 3c-4-21-16-35-41-35" id="aY"/><g id="y"><use transform="matrix(0.06172839506172839,0,0,0.06172839506172839,0,0)" xlink:href="#aT"/><use transform="matrix(0.06172839506172839,0,0,0.06172839506172839,12.345679012345679,0)" xlink:href="#aU"/><use transform="matrix(0.06172839506172839,0,0,0.06172839506172839,17.22222222222222,0)" xlink:href="#aV"/><use transform="matrix(0.06172839506172839,0,0,0.06172839506172839,28.333333333333332,0)" xlink:href="#aI"/><use transform="matrix(0.06172839506172839,0,0,0.06172839506172839,34.50617283950617,0)" xlink:href="#aW"/><use transform="matrix(0.06172839506172839,0,0,0.06172839506172839,49.32098765432099,0)" xlink:href="#aX"/><use transform="matrix(0.06172839506172839,0,0,0.06172839506172839,61.666666666666664,0)" xlink:href="#aY"/><use transform="matrix(0.06172839506172839,0,0,0.06172839506172839,72.77777777777777,0)" xlink:href="#aO"/><use transform="matrix(0.06172839506172839,0,0,0.06172839506172839,83.88888888888889,0)" xlink:href="#aH"/><use transform="matrix(0.06172839506172839,0,0,0.06172839506172839,96.23456790123457,0)" xlink:href="#aI"/><use transform="matrix(0.06172839506172839,0,0,0.06172839506172839,102.4074074074074,0)" xlink:href="#aV"/></g><path fill="#0c7cba" d="M108 0H70L1-190h34L89-25l56-165h34" id="aZ"/><path fill="#0c7cba" d="M141-36C126-15 110 5 73 4 37 3 15-17 15-53c-1-64 63-63 125-63 3-35-9-54-41-54-24 1-41 7-42 31l-33-3c5-37 33-52 76-52 45 0 72 20 72 64v82c-1 20 7 32 28 27v20c-31 9-61-2-59-35zM48-53c0 20 12 33 32 33 41-3 63-29 60-74-43 2-92-5-92 41" id="ba"/><g id="z"><use transform="matrix(0.06172839506172839,0,0,0.06172839506172839,0,0)" xlink:href="#aZ"/><use transform="matrix(0.06172839506172839,0,0,0.06172839506172839,11.11111111111111,0)" xlink:href="#aU"/><use transform="matrix(0.06172839506172839,0,0,0.06172839506172839,15.987654320987653,0)" xlink:href="#ba"/></g><path fill="#0c7cba" d="M115-194c55 1 70 41 70 98S169 2 115 4C84 4 66-9 55-30l1 105H24l-1-265h31l2 30c10-21 28-34 59-34zm-8 174c40 0 45-34 45-75s-6-73-45-74c-42 0-51 32-51 76 0 43 10 73 51 73" id="bb"/><g id="A"><use transform="matrix(0.06172839506172839,0,0,0.06172839506172839,0,0)" xlink:href="#aI"/><use transform="matrix(0.06172839506172839,0,0,0.06172839506172839,6.172839506172839,0)" xlink:href="#aH"/><use transform="matrix(0.06172839506172839,0,0,0.06172839506172839,18.51851851851852,0)" xlink:href="#aS"/><use transform="matrix(0.06172839506172839,0,0,0.06172839506172839,36.9753086419753,0)" xlink:href="#bb"/></g><g id="B"><use transform="matrix(0.06172839506172839,0,0,0.06172839506172839,0,0)" xlink:href="#aI"/><use transform="matrix(0.06172839506172839,0,0,0.06172839506172839,6.172839506172839,0)" xlink:href="#aN"/><use transform="matrix(0.06172839506172839,0,0,0.06172839506172839,18.51851851851852,0)" xlink:href="#aO"/><use transform="matrix(0.06172839506172839,0,0,0.06172839506172839,29.62962962962963,0)" xlink:href="#aH"/><use transform="matrix(0.06172839506172839,0,0,0.06172839506172839,41.97530864197531,0)" xlink:href="#aP"/></g><path fill="#0c7cba" d="M30-248c87 1 191-15 191 75 0 78-77 80-158 76V0H30v-248zm33 125c57 0 124 11 124-50 0-59-68-47-124-48v98" id="bc"/><path fill="#0c7cba" d="M24 0v-261h32V0H24" id="bd"/><g id="C"><use transform="matrix(0.06172839506172839,0,0,0.06172839506172839,0,0)" xlink:href="#bc"/><use transform="matrix(0.06172839506172839,0,0,0.06172839506172839,14.814814814814813,0)" xlink:href="#bd"/><use transform="matrix(0.06172839506172839,0,0,0.06172839506172839,19.691358024691354,0)" xlink:href="#ba"/><use transform="matrix(0.06172839506172839,0,0,0.06172839506172839,32.03703703703703,0)" xlink:href="#aU"/><use transform="matrix(0.06172839506172839,0,0,0.06172839506172839,36.913580246913575,0)" xlink:href="#aP"/></g><path fill="#0c7cba" d="M197 0v-115H63V0H30v-248h33v105h134v-105h34V0h-34" id="be"/><path fill="#0c7cba" d="M0 4l72-265h28L28 4H0" id="bf"/><path fill="#0c7cba" d="M233-177c-1 41-23 64-60 70L243 0h-38l-65-103H63V0H30v-248c88 3 205-21 203 71zM63-129c60-2 137 13 137-47 0-61-80-42-137-45v92" id="bg"/><path fill="#0c7cba" d="M30 0v-248h187v28H63v79h144v27H63v87h162V0H30" id="bh"/><g id="D"><use transform="matrix(0.06172839506172839,0,0,0.06172839506172839,0,0)" xlink:href="#be"/><use transform="matrix(0.06172839506172839,0,0,0.06172839506172839,15.987654320987653,0)" xlink:href="#aM"/><use transform="matrix(0.06172839506172839,0,0,0.06172839506172839,29.50617283950617,0)" xlink:href="#aM"/><use transform="matrix(0.06172839506172839,0,0,0.06172839506172839,43.02469135802469,0)" xlink:href="#bc"/><use transform="matrix(0.06172839506172839,0,0,0.06172839506172839,57.839506172839506,0)" xlink:href="#bf"/><use transform="matrix(0.06172839506172839,0,0,0.06172839506172839,64.01234567901234,0)" xlink:href="#bg"/><use transform="matrix(0.06172839506172839,0,0,0.06172839506172839,80,0)" xlink:href="#bh"/><use transform="matrix(0.06172839506172839,0,0,0.06172839506172839,94.81481481481481,0)" xlink:href="#aL"/><use transform="matrix(0.06172839506172839,0,0,0.06172839506172839,109.62962962962962,0)" xlink:href="#aM"/></g><path fill="#0c7cba" d="M145-31C134-9 116 4 85 4 32 4 16-35 15-94c0-59 17-99 70-100 32-1 48 14 60 33 0-11-1-24 2-32h30l-1 268h-32zM93-21c41 0 51-33 51-76s-8-73-50-73c-40 0-46 35-46 75s5 74 45 74" id="bi"/><g id="E"><use transform="matrix(0.06172839506172839,0,0,0.06172839506172839,0,0)" xlink:href="#bg"/><use transform="matrix(0.06172839506172839,0,0,0.06172839506172839,15.987654320987653,0)" xlink:href="#aH"/><use transform="matrix(0.06172839506172839,0,0,0.06172839506172839,28.333333333333332,0)" xlink:href="#bi"/><use transform="matrix(0.06172839506172839,0,0,0.06172839506172839,40.67901234567901,0)" xlink:href="#aX"/><use transform="matrix(0.06172839506172839,0,0,0.06172839506172839,53.02469135802469,0)" xlink:href="#aH"/><use transform="matrix(0.06172839506172839,0,0,0.06172839506172839,65.37037037037037,0)" xlink:href="#aV"/><use transform="matrix(0.06172839506172839,0,0,0.06172839506172839,76.48148148148148,0)" xlink:href="#aI"/></g><path fill="#0c7cba" d="M190 0L58-211 59 0H30v-248h39L202-35l-2-213h31V0h-41" id="bj"/><path fill="#0c7cba" d="M85-194c31 0 48 13 60 33l-1-100h32l1 261h-30c-2-10 0-23-3-31C134-8 116 4 85 4 32 4 16-35 15-94c0-66 23-100 70-100zm9 24c-40 0-46 34-46 75 0 40 6 74 45 74 42 0 51-32 51-76 0-42-9-74-50-73" id="bk"/><g id="F"><use transform="matrix(0.06172839506172839,0,0,0.06172839506172839,0,0)" xlink:href="#bj"/><use transform="matrix(0.06172839506172839,0,0,0.06172839506172839,15.987654320987653,0)" xlink:href="#aH"/><use transform="matrix(0.06172839506172839,0,0,0.06172839506172839,28.333333333333332,0)" xlink:href="#aH"/><use transform="matrix(0.06172839506172839,0,0,0.06172839506172839,40.67901234567901,0)" xlink:href="#bk"/></g><path fill="#0c7cba" d="M177-190C167-65 218 103 67 71c-23-6-38-20-44-43l32-5c15 47 100 32 89-28v-30C133-14 115 1 83 1 29 1 15-40 15-95c0-56 16-97 71-98 29-1 48 16 59 35 1-10 0-23 2-32h30zM94-22c36 0 50-32 50-73 0-42-14-75-50-75-39 0-46 34-46 75s6 73 46 73" id="bl"/><path fill="#0c7cba" d="M16-82v-28h88v28H16" id="bm"/><g id="G"><use transform="matrix(0.06172839506172839,0,0,0.06172839506172839,0,0)" xlink:href="#aL"/><use transform="matrix(0.06172839506172839,0,0,0.06172839506172839,14.814814814814813,0)" xlink:href="#aU"/><use transform="matrix(0.06172839506172839,0,0,0.06172839506172839,19.691358024691354,0)" xlink:href="#bl"/><use transform="matrix(0.06172839506172839,0,0,0.06172839506172839,32.03703703703703,0)" xlink:href="#aP"/><use transform="matrix(0.06172839506172839,0,0,0.06172839506172839,44.38271604938271,0)" xlink:href="#aH"/><use transform="matrix(0.06172839506172839,0,0,0.06172839506172839,56.728395061728385,0)" xlink:href="#bk"/><use transform="matrix(0.06172839506172839,0,0,0.06172839506172839,69.07407407407406,0)" xlink:href="#bm"/><use transform="matrix(0.06172839506172839,0,0,0.06172839506172839,76.41975308641975,0)" xlink:href="#aY"/><use transform="matrix(0.06172839506172839,0,0,0.06172839506172839,87.53086419753086,0)" xlink:href="#aN"/><use transform="matrix(0.06172839506172839,0,0,0.06172839506172839,99.87654320987654,0)" xlink:href="#aN"/><use transform="matrix(0.06172839506172839,0,0,0.06172839506172839,112.22222222222223,0)" xlink:href="#aO"/><use transform="matrix(0.06172839506172839,0,0,0.06172839506172839,123.33333333333334,0)" xlink:href="#aU"/><use transform="matrix(0.06172839506172839,0,0,0.06172839506172839,128.20987654320987,0)" xlink:href="#aH"/></g><g id="H"><use transform="matrix(0.06172839506172839,0,0,0.06172839506172839,0,0)" xlink:href="#aQ"/><use transform="matrix(0.06172839506172839,0,0,0.06172839506172839,6.172839506172839,0)" xlink:href="#aN"/><use transform="matrix(0.06172839506172839,0,0,0.06172839506172839,18.51851851851852,0)" xlink:href="#aR"/></g><g id="I"><use transform="matrix(0.06172839506172839,0,0,0.06172839506172839,0,0)" xlink:href="#bc"/><use transform="matrix(0.06172839506172839,0,0,0.06172839506172839,14.814814814814813,0)" xlink:href="#aR"/><use transform="matrix(0.06172839506172839,0,0,0.06172839506172839,22.160493827160494,0)" xlink:href="#aU"/><use transform="matrix(0.06172839506172839,0,0,0.06172839506172839,27.037037037037038,0)" xlink:href="#aZ"/><use transform="matrix(0.06172839506172839,0,0,0.06172839506172839,38.14814814814815,0)" xlink:href="#ba"/><use transform="matrix(0.06172839506172839,0,0,0.06172839506172839,50.49382716049383,0)" xlink:href="#aI"/><use transform="matrix(0.06172839506172839,0,0,0.06172839506172839,56.66666666666667,0)" xlink:href="#aH"/></g><g id="J"><use transform="matrix(0.06172839506172839,0,0,0.06172839506172839,0,0)" xlink:href="#aY"/><use transform="matrix(0.06172839506172839,0,0,0.06172839506172839,11.11111111111111,0)" xlink:href="#aN"/><use transform="matrix(0.06172839506172839,0,0,0.06172839506172839,23.45679012345679,0)" xlink:href="#aP"/><use transform="matrix(0.06172839506172839,0,0,0.06172839506172839,35.80246913580247,0)" xlink:href="#aI"/><use transform="matrix(0.06172839506172839,0,0,0.06172839506172839,41.97530864197531,0)" xlink:href="#aH"/><use transform="matrix(0.06172839506172839,0,0,0.06172839506172839,54.32098765432099,0)" xlink:href="#aP"/><use transform="matrix(0.06172839506172839,0,0,0.06172839506172839,66.66666666666667,0)" xlink:href="#aI"/></g><g id="K"><use transform="matrix(0.07407407407407408,0,0,0.07407407407407408,0,0)" xlink:href="#bc"/><use transform="matrix(0.07407407407407408,0,0,0.07407407407407408,17.77777777777778,0)" xlink:href="#bd"/><use transform="matrix(0.07407407407407408,0,0,0.07407407407407408,23.629629629629633,0)" xlink:href="#ba"/><use transform="matrix(0.07407407407407408,0,0,0.07407407407407408,38.44444444444445,0)" xlink:href="#aU"/><use transform="matrix(0.07407407407407408,0,0,0.07407407407407408,44.296296296296305,0)" xlink:href="#aP"/></g><g id="L"><use transform="matrix(0.07407407407407408,0,0,0.07407407407407408,0,0)" xlink:href="#be"/><use transform="matrix(0.07407407407407408,0,0,0.07407407407407408,19.185185185185187,0)" xlink:href="#aM"/><use transform="matrix(0.07407407407407408,0,0,0.07407407407407408,35.40740740740741,0)" xlink:href="#aM"/><use transform="matrix(0.07407407407407408,0,0,0.07407407407407408,51.62962962962963,0)" xlink:href="#bc"/><use transform="matrix(0.07407407407407408,0,0,0.07407407407407408,69.40740740740742,0)" xlink:href="#bf"/><use transform="matrix(0.07407407407407408,0,0,0.07407407407407408,76.81481481481482,0)" xlink:href="#bg"/><use transform="matrix(0.07407407407407408,0,0,0.07407407407407408,96.00000000000001,0)" xlink:href="#bh"/><use transform="matrix(0.07407407407407408,0,0,0.07407407407407408,113.7777777777778,0)" xlink:href="#aL"/><use transform="matrix(0.07407407407407408,0,0,0.07407407407407408,131.55555555555557,0)" xlink:href="#aM"/></g><g id="M"><use transform="matrix(0.07407407407407408,0,0,0.07407407407407408,0,0)" xlink:href="#bg"/><use transform="matrix(0.07407407407407408,0,0,0.07407407407407408,19.185185185185187,0)" xlink:href="#aH"/><use transform="matrix(0.07407407407407408,0,0,0.07407407407407408,34,0)" xlink:href="#bi"/><use transform="matrix(0.07407407407407408,0,0,0.07407407407407408,48.81481481481481,0)" xlink:href="#aX"/><use transform="matrix(0.07407407407407408,0,0,0.07407407407407408,63.629629629629626,0)" xlink:href="#aH"/><use transform="matrix(0.07407407407407408,0,0,0.07407407407407408,78.44444444444446,0)" xlink:href="#aV"/><use transform="matrix(0.07407407407407408,0,0,0.07407407407407408,91.7777777777778,0)" xlink:href="#aI"/></g><path d="M210-169c-67 3-38 105-44 169h-31v-121c0-29-5-50-35-48C34-165 62-65 56 0H25l-1-190h30c1 10-1 24 2 32 10-44 99-50 107 0 11-21 27-35 58-36 85-2 47 119 55 194h-31v-121c0-29-5-49-35-48" id="bn"/><path d="M9 0v-24l116-142H16v-24h144v24L44-24h123V0H9" id="bo"/><g id="N"><use transform="matrix(0.05,0,0,0.05,0,0)" xlink:href="#at"/><use transform="matrix(0.05,0,0,0.05,12,0)" xlink:href="#bn"/><use transform="matrix(0.05,0,0,0.05,26.950000000000003,0)" xlink:href="#an"/><use transform="matrix(0.05,0,0,0.05,36.95,0)" xlink:href="#bo"/><use transform="matrix(0.05,0,0,0.05,45.95,0)" xlink:href="#ad"/><use transform="matrix(0.05,0,0,0.05,55.95,0)" xlink:href="#ah"/></g><g id="O"><use transform="matrix(0.05,0,0,0.05,0,0)" xlink:href="#ab"/><use transform="matrix(0.05,0,0,0.05,12.950000000000001,0)" xlink:href="#ac"/><use transform="matrix(0.05,0,0,0.05,16.900000000000002,0)" xlink:href="#ad"/><use transform="matrix(0.05,0,0,0.05,26.900000000000002,0)" xlink:href="#ae"/><use transform="matrix(0.05,0,0,0.05,36.900000000000006,0)" xlink:href="#af"/><use transform="matrix(0.05,0,0,0.05,46.900000000000006,0)" xlink:href="#ag"/><use transform="matrix(0.05,0,0,0.05,57.85,0)" xlink:href="#aa"/><use transform="matrix(0.05,0,0,0.05,63.80000000000001,0)" xlink:href="#ad"/><use transform="matrix(0.05,0,0,0.05,73.80000000000001,0)" xlink:href="#ah"/><use transform="matrix(0.05,0,0,0.05,83.80000000000001,0)" xlink:href="#ai"/></g><g id="P"><use transform="matrix(0.05,0,0,0.05,0,0)" xlink:href="#aw"/><use transform="matrix(0.05,0,0,0.05,12,0)" xlink:href="#ak"/><use transform="matrix(0.05,0,0,0.05,15.949999999999998,0)" xlink:href="#aj"/><use transform="matrix(0.05,0,0,0.05,25.950000000000003,0)" xlink:href="#ah"/></g><g id="Q"><use transform="matrix(0.05,0,0,0.05,0,0)" xlink:href="#ao"/><use transform="matrix(0.05,0,0,0.05,9,0)" xlink:href="#ad"/><use transform="matrix(0.05,0,0,0.05,19,0)" xlink:href="#ad"/><use transform="matrix(0.05,0,0,0.05,29,0)" xlink:href="#aD"/><use transform="matrix(0.05,0,0,0.05,38,0)" xlink:href="#ak"/><use transform="matrix(0.05,0,0,0.05,41.95,0)" xlink:href="#Z"/></g><g id="R"><use transform="matrix(0.05,0,0,0.05,0,0)" xlink:href="#aq"/><use transform="matrix(0.05,0,0,0.05,10,0)" xlink:href="#an"/><use transform="matrix(0.05,0,0,0.05,20,0)" xlink:href="#Y"/><use transform="matrix(0.05,0,0,0.05,29,0)" xlink:href="#Z"/><use transform="matrix(0.05,0,0,0.05,39,0)" xlink:href="#af"/></g><g id="S"><use transform="matrix(0.05,0,0,0.05,0,0)" xlink:href="#ad"/><use transform="matrix(0.05,0,0,0.05,10,0)" xlink:href="#ah"/></g><g id="T"><use transform="matrix(0.05,0,0,0.05,0,0)" xlink:href="#X"/><use transform="matrix(0.05,0,0,0.05,12.950000000000001,0)" xlink:href="#Y"/><use transform="matrix(0.05,0,0,0.05,21.950000000000003,0)" xlink:href="#Z"/><use transform="matrix(0.05,0,0,0.05,31.950000000000003,0)" xlink:href="#aa"/><use transform="matrix(0.05,0,0,0.05,37.900000000000006,0)" xlink:href="#aC"/><use transform="matrix(0.05,0,0,0.05,43.85000000000001,0)" xlink:href="#at"/><use transform="matrix(0.05,0,0,0.05,55.85,0)" xlink:href="#ae"/><use transform="matrix(0.05,0,0,0.05,65.85000000000001,0)" xlink:href="#ai"/><use transform="matrix(0.05,0,0,0.05,70.85000000000001,0)" xlink:href="#aB"/></g><g id="U"><use transform="matrix(0.05,0,0,0.05,0,0)" xlink:href="#at"/><use transform="matrix(0.05,0,0,0.05,12,0)" xlink:href="#aa"/><use transform="matrix(0.05,0,0,0.05,17.95,0)" xlink:href="#ao"/><use transform="matrix(0.05,0,0,0.05,26.950000000000003,0)" xlink:href="#aB"/><use transform="matrix(0.05,0,0,0.05,36.95,0)" xlink:href="#ak"/><use transform="matrix(0.05,0,0,0.05,40.900000000000006,0)" xlink:href="#as"/><use transform="matrix(0.05,0,0,0.05,49.900000000000006,0)" xlink:href="#Z"/></g><g id="V"><use transform="matrix(0.05,0,0,0.05,0,0)" xlink:href="#an"/><use transform="matrix(0.05,0,0,0.05,10,0)" xlink:href="#ah"/><use transform="matrix(0.05,0,0,0.05,20,0)" xlink:href="#af"/></g><g id="W"><use transform="matrix(0.05,0,0,0.05,0,0)" xlink:href="#aw"/><use transform="matrix(0.05,0,0,0.05,12,0)" xlink:href="#ak"/><use transform="matrix(0.05,0,0,0.05,15.949999999999998,0)" xlink:href="#aj"/><use transform="matrix(0.05,0,0,0.05,25.950000000000003,0)" xlink:href="#ah"/><use transform="matrix(0.05,0,0,0.05,35.95,0)" xlink:href="#Z"/><use transform="matrix(0.05,0,0,0.05,45.95,0)" xlink:href="#af"/></g></defs></g></svg>