<svg xmlns="http://www.w3.org/2000/svg" xmlns:xlink="http://www.w3.org/1999/xlink" xmlns:lucid="lucid" width="1626.9" height="960"><g transform="translate(-192.1 -100)" lucid:page-tab-id="1utwQEYwhgfo"><path d="M420 560.34c0 22.63-17.92 40.98-40 40.98s-40-18.35-40-40.98c0-22.62 17.92-40.98 40-40.98s40 18.36 40 40.98z" fill="#9d5025"/><path d="M340 556.98h80v3.36h-80v-3.36z" fill="#9d5025"/><path d="M420 556.98c0 22.62-17.92 40.98-40 40.98s-40-18.36-40-40.98c0-22.62 17.92-40.98 40-40.98s40 18.36 40 40.98z" fill="#f58536"/><path d="M406.02 577.13l-3.12-8.38-6.93 2.72-9.9-26.6-2.77-7.36-1.3-3.47-2-5.44H366.8v8.9h7.14l2.5 6.65-20.7 37.7h10L380.5 555 390.93 583l2.5-.98 5.64-2.17 6.94-2.72z" fill="#fff"/><path d="M859.1 570c0 22.63-17.26 41-38.5 41-21.26 0-38.5-18.37-38.5-41 0-22.6 17.24-40.97 38.5-40.97 21.24 0 38.5 18.36 38.5 40.98z" fill="#9d5025"/><path d="M782.1 566.64h77V570h-77v-3.36z" fill="#9d5025"/><path d="M859.1 566.65c0 22.62-17.26 40.98-38.5 40.98-21.26 0-38.5-18.36-38.5-40.98 0-22.62 17.24-40.98 38.5-40.98 21.24 0 38.5 18.36 38.5 40.98z" fill="#f58536"/><path d="M845.63 586.8l-3-8.4-6.67 2.73-9.53-26.6-2.66-7.35-1.26-3.48-1.92-5.45H807.9v8.93h6.87l2.42 6.64-19.93 37.7h9.62l14.16-26.87 10.06 28.02 2.42-.98 5.42-2.2 6.67-2.7z" fill="#fff"/><path d="M1551 670.56c0 3.97-20.6 7.28-46 7.28s-46-3.25-46-7.28v-3.28l46-3.97 46 3.98zM1505 683.67l-46 40.75v3.28c0 4 20.6 7.3 46 7.3 25.38 0 46-3.24 46-7.3v-3.28z" fill="#19486f"/><path d="M1505 660c25.38 0 46 3.26 46 7.28 0 4.02-20.62 7.3-46 7.3-25.4 0-46-3.28-46-7.3s20.6-7.28 46-7.28z" fill="#2e73b8"/><path d="M1505 680.37c-25.4 0-46-3.22-46-7.27v51.34c0 4 20.6 7.27 46 7.27 25.38 0 46-3.27 46-7.26V673.1c0 4.05-20.62 7.27-46 7.27z" fill="#2e73b8"/><path d="M1475.6 689.62h20.2l9.2 22.07 9.06-22.08h20.44v33.1h-13.02v-25.16h-.17l-11.07 25.16h-10.55l-11.07-25.16h-.1v25.16h-12.9z" fill="#fff"/><use xlink:href="#a" transform="matrix(1,0,0,1,1459,735) translate(12.074999999999996 14.4)"/><use xlink:href="#b" transform="matrix(1,0,0,1,1459,735) translate(54.975 14.4)"/><use xlink:href="#c" transform="matrix(1,0,0,1,1459,735) translate(12.524999999999999 36)"/><path d="M919.04 543.45l-10.44-2.88-9.88-11.1 11 .9 9.32 13.08z" fill="#b8852e"/><path d="M919.04 543.45L926.5 528l-6.97-.97-9.8 3.33 9.3 13.1z" fill="#d9a741"/><path d="M894.9 536.13L889 534.5l-6.46-7.28 6.87 1.06 5.46 7.85z" fill="#b8852e"/><path d="M894.9 536.13l4.2-8.7-3.93-.55-5.75 1.4 5.47 7.85z" fill="#d9a741"/><path d="M880 527.43l6 1.23 29.38-25.24L886 475.2l-6 2.98v49.25z" fill="#876929"/><path d="M909.18 480.16v46.36l-23.2 2.14V475.2l23.2 4.96z" fill="#d9a741"/><path d="M893.4 530.24l10.3 2.04 28.4-32.5-28.4-33.42-10.3 5.14v58.74z" fill="#876929"/><path d="M962.43 484.75v40.08l-58.73 7.45v-65.92l58.73 18.4z" fill="#d9a741"/><path d="M951.8 553l-14.84-4.1-14.03-15.8 15.65 1.28 13.2 18.6z" fill="#b8852e"/><path d="M951.8 553l10.62-21.95-9.94-1.4-13.9 4.74 13.2 18.6z" fill="#d9a741"/><path d="M915.38 534.47l15.12 2.87 20.54-42.17L930.5 453l-15.12 7.6v73.87z" fill="#876929"/><path d="M930.5 537.34l50.58-9.95v-49.44L930.5 453v84.34z" fill="#d9a741"/><path d="M1666.2 202.92V225h-79.3V202.9z" fill="#876929"/><path d="M1585.82 202.1h79.14v21.6h-79.14z" fill="#fff"/><path d="M1666.2 174.3v47.86h-79.3v-29.4c6.98 1.35 13.64-.85 18.24-6.06l20.86 13 40.2-25.4z" fill="#d9a741"/><path d="M1606.57 181.62v2.84l19.45 11.88 37.1-23.44v-2.84z" fill="#876929"/><path d="M1609.48 170.06h53.64L1626 193.5l-19.46-11.9c2.43-3.55 3.4-7.3 2.94-11.54zM1604.02 166.54c1.9 3.6 2.1 7.78.62 11.56-.77 2.2-2.27 3.82-4.4 4.88-.7.36-1.48.54-2.25.54-2.07 0-3.8-.9-4.97-2.5l-.47-.67c-1.14 1.3-2.66 1.95-4.42 1.84-2.1.13-3.88-1.37-4.03-3.36 0-.2 0-.38.04-.62-.06-1.83 1.05-3.43 2.84-4.14 1.7-.53 3.22-.8 5-.86v-.35c.1-.65 0-1.2-.3-1.84-.38-.44-.94-.68-1.5-.65-1.02-.06-1.95.6-2.16 1.54-.03.24-.24.42-.48.45l-2.6-.27c-.26-.06-.44-.27-.4-.53.62-3 3.42-3.9 6-3.9 1.54-.04 2.88.4 4.08 1.32 1.25 1.15 1.16 2.68 1.16 4.37v3.96c0 .86.36 1.66.98 2.3.3.22.63.34 1.02.34 1.25 0 2.7-1.2 3.46-3.08 1.2-2.85 1.1-6-.2-8.8-1.83-3.25-6.15-5.05-10.36-5.05-2.5-.06-4.7.56-6.75 1.92-5.58 3.93-6.98 11.3-3.2 16.9 2.55 3.57 6.5 5.52 11.02 5.43 2.48 0 4.9-.62 7-1.83.55-.3 1.27-.15 1.6.38v.03c.3.5.12 1.16-.42 1.45h-.03c-2.5 1.48-5.43 2.28-8.4 2.25-5.15.12-10-2.28-12.97-6.33-4.77-6.7-3.2-15.74 3.6-20.62 2.52-1.77 5.6-2.7 8.7-2.63 1.07 0 2 .1 3.07.27 4.36.53 7.85 2.7 10.12 6.27zm-12.57 12c.42-.82.6-1.77.5-2.68v-.54c-1.93 0-4 .4-4 2.55 0 1.1.6 1.83 1.65 1.83.8-.03 1.5-.5 1.85-1.18v.03z" fill="#d9a741"/><use xlink:href="#d" transform="matrix(1,0,0,1,1575.7870567506222,225) translate(4.850000000000001 14.4)"/><use xlink:href="#e" transform="matrix(1,0,0,1,1575.7870567506222,225) translate(50.15 14.4)"/><path d="M981.08 503h57.75c.1 0 .17-.08.17-.17 0-.1.08-.18.17-.18h187.6" fill="none"/><path d="M981.08 503h9.62m9.63 0h19.25m9.62 0h9.63l.12-.05.05-.12.05-.13.12-.05h10.42m10.42 0h20.84m10.42 0h20.84m10.42 0h20.85m10.4 0h20.85m10.42 0h20.84m10.43 0h10.43" stroke="#000" stroke-width="2" fill="none"/><path/><path d="M1241.76 502.65l-14.27 4.64V498z"/><path d="M1245 502.65l-18.5 6v-12zm-16.5 3.26l10.02-3.25-10.03-3.26z"/><path d="M1337 504.68c0 22.62-20.6 40.98-46 40.98s-46-18.36-46-40.98c0-22.62 20.6-40.98 46-40.98s46 18.36 46 40.98z" fill="#9d5025"/><path d="M1245 501.3h92v3.37h-92v-3.36z" fill="#9d5025"/><path d="M1337 501.3c0 22.64-20.6 41-46 41s-46-18.36-46-41c0-22.6 20.6-40.97 46-40.97s46 18.36 46 40.98z" fill="#f58536"/><path d="M1320.92 521.46l-3.6-8.38-7.96 2.72-11.4-26.6-3.16-7.36-1.5-3.48-2.32-5.44h-15.15v8.92h8.22l2.9 6.64-23.82 37.7h11.5l16.93-26.87 12.02 28.04 2.9-.98 6.46-2.18 7.98-2.72z" fill="#fff"/><path d="M568.3 339.2l-6.3 2.67v46.8l6.3 2.66 15.38-26.06-15.4-26.06z" fill="#8c3123"/><path d="M601 384.6l-32.73 6.73V339.2l32.72 6.74 15.45 19.38L601 384.6z" fill="#e05243"/><path d="M601 384.6l32.72 6.73 5.64-25.38-5.64-26.74-32.72 6.74v38.66z" fill="#8c3123"/><path d="M633.7 339.2l6.3 2.67v46.8l-6.3 2.66V339.2z" fill="#e05243"/><path d="M586.73 373.9l14.27 1.55 11.3-10.1-11.3-10.1-14.27 1.53v17.1z" fill="#8c3123"/><path d="M615.26 348.5L601 350.7l-14.27-2.2L601 325.32l14.26 23.16z" fill="#5e1f18"/><path d="M615.26 382.17L601 379.93l-14.27 2.24L601 405.33l14.26-23.16z" fill="#f2b0a9"/><path d="M615.27 348.5l-14.27-3v-20.17l14.27 6.05v17.12z" fill="#e05243"/><path d="M586.73 348.5l14.26-3v-20.17l-14.27 6.05v17.12z" fill="#8c3123"/><path d="M601 405.33l14.27-6.05v-17.12l-14.27 3v20.17z" fill="#e05243"/><path d="M601 405.33l-14.27-6.05v-17.12l14.26 3v20.17z" fill="#8c3123"/><path d="M615.27 373.9L601 375.44v-20.2l14.27 1.53v17.1z" fill="#e05243"/><use xlink:href="#f" transform="matrix(1,0,0,1,562,405.33333333333337) translate(-11.925000000000004 14.4)"/><path d="M819.85 585.62c0 21.92-17.03 39.7-38.02 39.7-20.98 0-38-17.78-38-39.7 0-21.9 17.02-39.7 38-39.7 21 0 38.02 17.8 38.02 39.7z" fill="#9d5025"/><path d="M743.82 582.36h76.03v3.26h-76.03v-3.26z" fill="#9d5025"/><path d="M819.85 582.37c0 21.9-17.03 39.7-38.02 39.7-20.98 0-38-17.8-38-39.7 0-21.92 17.02-39.7 38-39.7 21 0 38.02 17.78 38.02 39.7z" fill="#f58536"/><path d="M806.56 601.88l-2.96-8.12-6.6 2.64-9.4-25.78-2.63-7.1-1.24-3.4-1.9-5.26H769.3v8.65h6.8l2.38 6.44-19.67 36.53h9.5l14-26.04 9.93 27.15 2.4-.95 5.34-2.1 6.6-2.65z" fill="#fff"/><path d="M380 587c0 22.63-17.92 41-40 41s-40-18.37-40-41c0-22.6 17.92-40.97 40-40.97s40 18.36 40 40.98z" fill="#9d5025"/><path d="M300 583.64h80V587h-80v-3.36z" fill="#9d5025"/><path d="M380 583.65c0 22.62-17.92 40.98-40 40.98s-40-18.36-40-40.98c0-22.62 17.92-40.98 40-40.98s40 18.36 40 40.98z" fill="#f58536"/><path d="M366.02 603.8l-3.12-8.4-6.93 2.73-9.9-26.6-2.77-7.35-1.3-3.48-2-5.45H326.8v8.93h7.14l2.5 6.64-20.7 37.7h10l14.73-26.87 10.44 28.02 2.5-.98 5.64-2.2 6.94-2.7z" fill="#fff"/><path d="M562 375.33H345c-2.76 0-5 2.24-5 5v144.1" stroke="#000" stroke-width="2" fill="none"/><path/><path d="M340 539.43l-4.64-14.27h9.28z"/><path d="M340 542.67l-6-18.5h12zm-3.26-16.5l3.26 10.02 3.26-10.04z"/><path d="M340 628v206c0 2.76 2.24 5 5 5h156.76" stroke="#000" stroke-width="2" fill="none"/><path d="M340 628h-1v-.07zm1 0h-1l1-.06zM516.76 839l-14.26 4.64v-9.28z"/><path d="M520 839l-18.5 6v-12zm-16.5 3.26l10.03-3.26-10.03-3.26z"/><path d="M781.83 643.56V834c0 2.76-2.23 5-5 5H640" stroke="#000" stroke-width="2" fill="none"/><path d="M786.47 642.83h-9.27l4.63-14.27z"/><path d="M787.85 643.83h-12.03l6-18.5zm-9.27-2h6.5l-3.25-10.03z"/><path/><path d="M781.83 542.67V380.33c0-2.76-2.23-5-5-5h-118.6" stroke="#000" stroke-width="2" fill="none"/><path d="M782.83 542.73l-1-.06-1 .03v-.03h2zM657.5 379.97l-14.27-4.64 14.26-4.63z"/><path d="M658.5 381.35l-18.5-6.02 18.5-6zm-12.04-6.02l10.03 3.26v-6.53z"/><path d="M601 425.33V498c0 2.76 2.24 5 5 5h255.76" fill="none"/><path d="M601 425.33v12.1m0 12.13v24.22m0 12.1V498l.96 2.95 2.46 1.8 1.58.25h9.47m9.48 0h18.94m9.46 0h18.95m9.48 0h18.95m9.47 0h18.95m9.47 0h18.94m9.48 0h18.94m9.47 0h18.95m9.47 0h18.95m9.47 0h9.46" stroke="#000" stroke-width="2" fill="none"/><path d="M602 425.33h-2v-3h2zM876.76 503l-14.26 4.64v-9.28z"/><path d="M880 503l-18.5 6v-12zm-16.5 3.26l10.03-3.26-10.03-3.26z"/><path d="M429.83 585.36H561c2.76 0 5 2.24 5 5v51.44" stroke="#000" stroke-width="2" fill="none"/><path d="M429.1 590l-14.27-4.64 14.27-4.64z"/><path d="M430.1 591.37l-18.5-6 18.5-6.02zm-12.03-6l10.03 3.25v-6.52zM567 642.27l-1-.47h1z"/><path d="M626 691.8v5.47c0 9.94-10.93 20.22-24.25 20.22h-71.5c-13.32 0-24.24-10.3-24.24-20.23v-5.48z" fill="#7d7c7c"/><path d="M552.2 638.5c12.35 0 22.8 6.8 27.95 18.07 7.08-4.85 16.8-3.06 21.6 4.1 1.8 2.55 2.64 5.16 2.76 8.22 12.13 1.04 21.5 12.76 21.5 22.1v2.02c0 10-10.93 20.16-24.25 20.16h-71.5c-13.33 0-24.25-10.16-24.25-20.16V691c0-7.77 6.48-18.37 15.48-21v-.88c.12-16.95 13.8-30.7 30.72-30.62z" fill="#d2d3d3"/><path d="M539.62 687.75h13.64v18.98h-13.64v-18.98z" fill="#fff"/><path d="M529.45 692.75l17-29.63 17 29.63h-34zM573.63 662.98h13.63v19h-13.63v-19z" fill="#fff"/><path d="M597.44 676.97l-17 29.62-17-29.63h34z" fill="#fff"/><use xlink:href="#g" transform="matrix(1,0,0,1,506,717.5) translate(11.049999999999997 14.4)"/><use xlink:href="#h" transform="matrix(1,0,0,1,506,717.5) translate(75.05 14.4)"/><path d="M520 800h120v78H520v-78z" fill="#876929"/><path d="M520 800h120v72.67H520z" fill="#d9a741"/><path d="M553.3 809.78h12.78v54.8H553.3v-54.8zM573.6 809.78h12.78v54.8H573.6v-54.8zM593.9 809.78h12.78v54.8H593.9v-54.8zM534.8 825.3v23.77l10.96-11.9-10.95-11.87zM614.2 825.3v23.77l10.97-11.9-10.96-11.87z" fill="#fff"/><path d="M1291 545.66V702.5c0 2.76 2.23 5 5 5h144.76" stroke="#000" stroke-width="2" fill="none"/><path d="M1291 545.66h-1v-.06zm1 0h-1l1-.03zM1455.76 707.5l-14.26 4.64v-9.28z"/><path d="M1459 707.5l-18.5 6v-12zm-16.5 3.26l10.03-3.26-10.03-3.26z"/><path d="M1505 660v-89.14c0-2.76 2.24-5 5-5h57.53" stroke="#000" stroke-width="2" fill="none"/><path d="M1506 660.05l-1-.05h1zm-2-.03V660h1zM1582.53 565.86l-14.27 4.63v-9.28z"/><path d="M1585.76 565.86l-18.5 6v-12zm-16.5 3.26l10.03-3.26-10.04-3.26z"/><path d="M1138 337c0-16.57 13.43-30 30-30h560c16.57 0 30 13.43 30 30v673c0 16.57-13.43 30-30 30h-560c-16.57 0-30-13.43-30-30z" stroke="#99d2f2" stroke-width="3" fill="none"/><path d="M1199.97 295.24v-5.9c0-7.25-5.88-13.13-13.12-13.13-7.24 0-13.12 5.9-13.12 13.14v5.9h6.64v-5.9c0-3.58 2.9-6.5 6.48-6.5 3.57 0 6.48 2.92 6.48 6.5v5.9h6.64z" fill="#876a22"/><path d="M1199.98 295.26h5.42v20.83H1168v-20.84h5.72v-7.1c0-7.28 5.87-13.16 13.13-13.16 7.26 0 13.13 5.88 13.13 13.15v7.1zm-6.66 0v-7.1c0-3.6-2.88-6.5-6.47-6.5-3.6 0-6.47 2.9-6.47 6.5v7.1h12.94z" fill="#daa835"/><path d="M1168 316.1h37.4v.9H1168z" fill="#876a22"/><path d="M1771.74 422.74l-12.7-.6-40.04 2 11.3 19.77 41.44-21.16z" fill="#fbbf93"/><path d="M1730.14 391.17l-11.14 4.37v21.95h11.14l15.76-11.1-15.76-15.23z" fill="#9d5025"/><path d="M1771.74 422.74l-41.44 2.68v18.5l41.44-8.76v-12.43zM1750.34 417.5h-20.2v-26.33l20.2 4.24v22.1z" fill="#f58536"/><path d="M1779.38 417.47l14.5.02v-21.6l-14.5 1.86v19.7z" fill="#9d5025"/><path d="M1750.98 399.94l13.04-10.16 29.85 13.34-14.5 1.58-28.4-4.76z" fill="#6b3a19"/><path d="M1737.63 417.5h21.32l11.18-17.32-11.18-20.18-21.32 8.25v29.25z" fill="#9d5025"/><path d="M1758.95 380v37.5h11.97v-19.73l22.95 5.37v14.36h5.12v-21.98L1758.94 380z" fill="#f58536"/><path d="M1719 424.13l11.3 1.3v18.48l-11.3-4.36v-15.4z" fill="#9d5025"/><path d="M1799 424.05l-19.28-.93-42.1 3.16 21.3 28.72 40.07-30.95z" fill="#fbbf93"/><path d="M1799 424.05l-40.05 4.64V455l40.04-15.54v-15.4z" fill="#f58536"/><path d="M1737.63 426.28l21.32 2.4V455l-21.32-8.23v-20.47z" fill="#9d5025"/><use xlink:href="#i" transform="matrix(1,0,0,1,1719,455) translate(7.024999999999999 14.4)"/><use xlink:href="#j" transform="matrix(1,0,0,1,1719,455) translate(21.525 36)"/><path d="M1291 460.33v-81.76" stroke="#000" stroke-width="2" fill="none"/><path d="M1292 460.4l-1-.07-1 .03v-.03h2zM1295.63 377.84h-9.27l4.64-14.27z"/><path d="M1297 378.84H1285l6.02-18.5zm-9.26-2h6.52L1291 366.8z"/><path d="M1328 308.95c0 17.32-16.58 31.38-37 31.38-20.43 0-37-14.06-37-31.38s16.57-31.38 37-31.38c20.42 0 37 14.06 37 31.38z" fill="#9d5025"/><path d="M1328 306.38c0 17.32-16.58 31.37-37 31.37-20.43 0-37-14.05-37-31.37s16.57-31.38 37-31.38c20.42 0 37 14.06 37 31.38z" fill="#f58536"/><path d="M1291 329.68l-.58-.18c-4.6-1.63-8.13-3.83-11.28-7.1-3.5-3.4-5.8-6.8-7.62-11.04-2.47-6.1-3.47-11.56-3.38-18v-1.5h1.78c1.55 0 4.52-.45 5.66-1.43 1.2-1.2 1.87-2.52 2.05-4.1l.05-.94 1.1-.38c4.1-1.26 7.8-1.86 12.23-1.96 4.4.14 8.1.75 12.2 1.96l1.1.37.1.93c.17 1.58.8 2.84 1.95 4.05 1.1.93 4.34 1.35 5.7 1.4l1.75.05v1.44c.13 6.48-.92 11.94-3.34 18.04-1.78 4.3-4.1 7.66-7.58 11.1-3.15 3.27-6.66 5.47-11.27 7.1zm-19.2-34.92c.26 10.6 3.64 19.4 9.9 25.55 2.65 2.72 5.52 4.63 9.3 6.17 3.76-1.54 6.63-3.45 9.28-6.16 6.26-6.2 9.63-15 9.9-25.63-1.86-.23-4.74-.74-6.34-2.1-1.55-1.44-2.46-3.03-2.83-4.94-3.4-.98-6.43-1.44-10-1.54-3.6.1-6.6.5-10.03 1.48-.37 1.96-1.24 3.5-2.8 5-1.9 1.3-3.9 2-6.38 2.18z" fill="#fff"/><path d="M1302 304.93c-2.2 1.85-8.85 5.8-11.4 7.97v-6.18h-29.45v-3.7h29.38v-6.1c2.45 2.04 9.1 6 11.48 8z" fill="#fff"/><use xlink:href="#k" transform="matrix(1,0,0,1,1253.9961,340.33333333333337) translate(-1.9750000000000014 14.4)"/><path d="M1291 275v-50c0-2.76-2.24-5-5-5H606c-2.76 0-5 2.24-5 5v82.1" stroke="#000" stroke-width="2" fill="none"/><path d="M1292 275.07l-1-.07-1 .04V275h2zM601 322.1l-4.64-14.27h9.28z"/><path d="M601 325.33l-6-18.5h12zm-3.26-16.5l3.26 10.03 3.26-10.03z"/><path d="M1621 513.17V263.24" stroke="#000" stroke-width="2" fill="none"/><path d="M1622 513.24l-1-.07h1zm-2 0v-.07h.82zM1625.64 262.5h-9.28l4.64-14.26z"/><path d="M1627 263.5h-12l6-18.5zm-9.26-2h6.52l-3.26-10.03z"/><path d="M1587.82 800.4l-4.8 1.65v46.9l4.8 1.65 19.5-23.9-19.5-26.3z" fill="#9d5025"/><path d="M1599.03 848.8l-11.2 1.8v-50.2l11.2 1.75v46.64z" fill="#f58536"/><path d="M1593.13 798.55l5.9-2.03 28.1 31.06-28.1 26.88-5.9-2.03v-53.88z" fill="#9d5025"/><path d="M1613.03 851.74l-14 2.72v-57.94l14 2.73v52.5z" fill="#f58536"/><path d="M1605.63 794.25l7.42-2.57 41.4 39.3-41.4 28.32-7.42-2.57v-62.48z" fill="#9d5025"/><path d="M1631 854.77l-17.96 4.53v-67.62l17.95 4.53v58.57z" fill="#f58536"/><path d="M1621.42 788.78l9.57-3.28 44.8 42.24-44.8 37.76-9.58-3.28v-73.44z" fill="#9d5025"/><path d="M1679 848.94l-48 16.56v-80l48 16.56v46.88z" fill="#f58536"/><use xlink:href="#l" transform="matrix(1,0,0,1,1583.0101256884973,865.5) translate(30.525 14.4)"/><path d="M1569.23 707.5H1626c2.77 0 5 2.24 5 5v54.77" stroke="#000" stroke-width="2" fill="none"/><path d="M1568.5 712.14l-14.27-4.64 14.26-4.64z"/><path d="M1569.5 713.5l-18.5-6 18.5-6zm-12.04-6l10.03 3.26v-6.52zM1631 782.27l-4.63-14.27h9.27z"/><path d="M1631 785.5l-6-18.5H1637zm-3.25-16.5l3.26 10.03 3.26-10.03z"/><path d="M314 210.33c0 24.65-21.06 44.66-47 44.66s-47-20.02-47-44.67c0-24.66 21.06-44.67 47-44.67s47 20 47 44.67z" fill="#9d5025"/><path d="M220 206.66h94v3.66h-94v-3.66z" fill="#9d5025"/><path d="M314 206.66c0 24.66-21.06 44.67-47 44.67s-47-20-47-44.67C220 182 241.06 162 267 162s47 20 47 44.66z" fill="#f58536"/><path d="M297.57 228.62l-3.66-9.13-8.14 2.95-11.63-29-3.25-8-1.53-3.8-2.36-5.93H251.5v9.72h8.38l2.95 7.24-24.32 41.1h11.75l17.3-29.3 12.28 30.54 2.95-1.06 6.62-2.38 8.15-2.96z" fill="#fff"/><use xlink:href="#m" transform="matrix(1,0,0,1,220,255) translate(-5.900000000000006 14.4)"/><use xlink:href="#n" transform="matrix(1,0,0,1,220,255) translate(8.524999999999999 36)"/><path d="M331.4 218.5h231.9c2.75 0 5 2.24 5 5v97.48" stroke="#000" stroke-width="2" fill="none"/><path d="M330.68 223.14l-14.27-4.64 14.28-4.64z"/><path d="M331.68 224.5l-18.5-6 18.5-6zm-12.03-6l10.03 3.26v-6.52zM568.3 335.98l-4.64-14.26h9.27z"/><path d="M568.3 339.22l-6.02-18.5h12.02zm-3.27-16.5l3.26 10.03 3.25-10.03z"/><path d="M1657.93 554.57c0 21.1-16.55 38.26-36.93 38.26s-36.93-17.15-36.93-38.26c0-21.12 16.55-38.26 36.93-38.26s36.93 17.15 36.93 38.27z" fill="#9d5025"/><path d="M1584.07 551.42h73.86v3.14h-73.86v-3.14z" fill="#9d5025"/><path d="M1657.93 551.43c0 21.12-16.55 38.26-36.93 38.26s-36.93-17.15-36.93-38.27c0-21.12 16.55-38.26 36.93-38.26s36.93 17.14 36.93 38.26z" fill="#f58536"/><path d="M1645.02 570.23l-2.88-7.82-6.4 2.55-9.14-24.84-2.55-6.85-1.2-3.25-1.86-5.08h-12.17v8.33h6.6l2.3 6.2-19.1 35.2h9.23l13.6-25.1 9.64 26.17 2.32-.9 5.2-2.05 6.4-2.54z" fill="#fff"/><use xlink:href="#o" transform="matrix(1,0,0,1,1584.071321251049,592.8333333333334) translate(11.549999999999997 14.4)"/><use xlink:href="#p" transform="matrix(1,0,0,1,1584.071321251049,592.8333333333334) translate(1.5749999999999957 36)"/><path d="M810.54 823c0-2.76 2.24-5 5-5h230c2.77 0 5 2.24 5 5v50c0 2.76-2.23 5-5 5h-230c-2.76 0-5-2.24-5-5z" stroke="#000" stroke-opacity="0" stroke-width="2" fill="#fff" fill-opacity="0"/><use xlink:href="#q" transform="matrix(1,0,0,1,810.5447980898812,818) translate(47.68650413410352 21.319887869520898)"/><use xlink:href="#r" transform="matrix(1,0,0,1,810.5447980898812,818) translate(134.7292043266508 21.319887869520898)"/><use xlink:href="#s" transform="matrix(1,0,0,1,810.5447980898812,818) translate(49.83850322799865 45.78471967380224)"/><use xlink:href="#t" transform="matrix(1,0,0,1,810.5447980898812,818) translate(81.43891097519538 45.78471967380224)"/><use xlink:href="#u" transform="matrix(1,0,0,1,810.5447980898812,818) translate(147.13151489409898 45.78471967380224)"/><path d="M700.1 636c0-2.76 2.23-5 5-5H854c2.76 0 5 2.24 5 5v69c0 2.76-2.24 5-5 5H705.1c-2.77 0-5-2.24-5-5z" stroke="#000" stroke-opacity="0" stroke-width="2" fill="#e5e5e5" fill-opacity=".68"/><use xlink:href="#v" transform="matrix(1,0,0,1,700.0895961797796,631) translate(40.08 31.68125)"/><use xlink:href="#w" transform="matrix(1,0,0,1,700.0895961797796,631) translate(87.03 31.68125)"/><use xlink:href="#x" transform="matrix(1,0,0,1,700.0895961797796,631) translate(38.505 53.28125)"/><use xlink:href="#y" transform="matrix(1,0,0,1,700.0895961797796,631) translate(77.055 53.28125)"/><use xlink:href="#z" transform="matrix(1,0,0,1,700.0895961797796,631) translate(98.505 53.28125)"/><path d="M725.58 584H571c-2.76 0-5 2.24-5 5v52.8" stroke="#000" stroke-width="2" fill="none"/><path d="M740.58 584l-14.26 4.64v-9.28z"/><path d="M743.82 584l-18.5 6v-12zm-16.5 3.26l10.03-3.26-10.03-3.26zM567 642.27l-1-.47h1z"/><path d="M240 650.33c0-2.76 2.24-5 5-5h190c2.76 0 5 2.24 5 5v75.34c0 2.76-2.24 5-5 5H245c-2.76 0-5-2.24-5-5z" stroke="#000" stroke-opacity="0" stroke-width="2" fill="#e5e5e5" fill-opacity=".68"/><use xlink:href="#A" transform="matrix(1,0,0,1,240,645.3333333333334) translate(17.654999999999994 35.9)"/><use xlink:href="#B" transform="matrix(1,0,0,1,240,645.3333333333334) translate(63.654999999999994 35.9)"/><use xlink:href="#C" transform="matrix(1,0,0,1,240,645.3333333333334) translate(140.45499999999998 35.9)"/><use xlink:href="#D" transform="matrix(1,0,0,1,240,645.3333333333334) translate(63.605 57.5)"/><path d="M923.93 412.33c0-2.76 2.24-5 5-5h230c2.76 0 5 2.24 5 5v43c0 2.76-2.24 5-5 5h-230c-2.76 0-5-2.24-5-5z" stroke="#000" stroke-opacity="0" stroke-width="2" fill="#e5e5e5" fill-opacity=".68"/><use xlink:href="#E" transform="matrix(1,0,0,1,923.9286787489509,407.3333333333333) translate(10.729999999999984 30.9625)"/><use xlink:href="#F" transform="matrix(1,0,0,1,923.9286787489509,407.3333333333333) translate(15.729999999999984 30.9625)"/><use xlink:href="#G" transform="matrix(1,0,0,1,923.9286787489509,407.3333333333333) translate(75.57999999999998 30.9625)"/><use xlink:href="#H" transform="matrix(1,0,0,1,923.9286787489509,407.3333333333333) translate(169.38 30.9625)"/><path d="M420 862.46c0-2.76 2.24-5 5-5h244c2.76 0 5 2.24 5 5v47.2c0 2.77-2.24 5-5 5H425c-2.76 0-5-2.23-5-5z" stroke="#000" stroke-opacity="0" stroke-width="2" fill="#e5e5e5" fill-opacity=".68"/><use xlink:href="#E" transform="matrix(1,0,0,1,420,857.4583333333333) translate(35.12999999999999 32.525)"/><use xlink:href="#F" transform="matrix(1,0,0,1,420,857.4583333333333) translate(40.12999999999999 32.525)"/><use xlink:href="#I" transform="matrix(1,0,0,1,420,857.4583333333333) translate(99.97999999999999 32.525)"/><use xlink:href="#H" transform="matrix(1,0,0,1,420,857.4583333333333) translate(158.98000000000002 32.525)"/><path d="M1163.93 558c0-2.76 2.24-5 5-5h230c2.76 0 5 2.24 5 5v68c0 2.76-2.24 5-5 5h-230c-2.76 0-5-2.24-5-5z" stroke="#000" stroke-opacity="0" stroke-width="2" fill="#e5e5e5" fill-opacity=".68"/><use xlink:href="#J" transform="matrix(1,0,0,1,1163.928678748951,553) translate(16.130000000000003 31.68125)"/><use xlink:href="#K" transform="matrix(1,0,0,1,1163.928678748951,553) translate(96.08000000000001 31.68125)"/><use xlink:href="#L" transform="matrix(1,0,0,1,1163.928678748951,553) translate(202.93 31.68125)"/><use xlink:href="#M" transform="matrix(1,0,0,1,1163.928678748951,553) translate(48.12999999999999 53.28125)"/><use xlink:href="#N" transform="matrix(1,0,0,1,1163.928678748951,553) translate(92.13 53.28125)"/><use xlink:href="#O" transform="matrix(1,0,0,1,1163.928678748951,553) translate(168.98000000000002 53.28125)"/><path d="M1417 891c0-2.76 2.24-5 5-5h331c2.76 0 5 2.24 5 5v68c0 2.76-2.24 5-5 5h-331c-2.76 0-5-2.24-5-5z" stroke="#000" stroke-opacity="0" stroke-width="2" fill="#e5e5e5" fill-opacity=".68"/><g><use xlink:href="#P" transform="matrix(1,0,0,1,1417,886) translate(5.01 31.960149082568808)"/><use xlink:href="#Q" transform="matrix(1,0,0,1,1417,886) translate(26.365759429153925 31.960149082568808)"/><use xlink:href="#R" transform="matrix(1,0,0,1,1417,886) translate(93.54211009174313 31.960149082568808)"/><use xlink:href="#S" transform="matrix(1,0,0,1,1417,886) translate(132.83874617737004 31.960149082568808)"/><use xlink:href="#T" transform="matrix(1,0,0,1,1417,886) translate(159.29134556574925 31.960149082568808)"/><use xlink:href="#U" transform="matrix(1,0,0,1,1417,886) translate(5.01 53.97849770642202)"/><use xlink:href="#V" transform="matrix(1,0,0,1,1417,886) translate(76.26382262996944 53.97849770642202)"/><use xlink:href="#W" transform="matrix(1,0,0,1,1417,886) translate(182.17615698267076 53.97849770642202)"/><use xlink:href="#X" transform="matrix(1,0,0,1,1417,886) translate(206.6409887869521 53.97849770642202)"/><use xlink:href="#Y" transform="matrix(1,0,0,1,1417,886) translate(232.1251885830785 53.97849770642202)"/></g><path d="M1337 503h106c2.76 0 5-2.24 5-5V218.5" stroke="#000" stroke-width="2" fill="none"/><path/><path d="M1452.64 217.75h-9.28l4.64-14.26z"/><path d="M1454 218.75h-12l6-18.5zm-9.26-2h6.52l-3.26-10.03z"/><path d="M1337.25 125c0-2.76 2.24-5 5-5h211.5c2.76 0 5 2.24 5 5v70c0 2.76-2.24 5-5 5h-211.5c-2.76 0-5-2.24-5-5z" fill="#e5e5e5"/><path d="M1347.15 120h.5m2.43 0h.5m2.44 0h4.9m2.44 0h.5m2.44 0h.5m2.44 0h4.9m2.44 0h.5m2.44 0h.5m2.44 0h4.9m2.44 0h.5m2.44 0h.5m2.44 0h4.9m2.44 0h.5m2.44 0h.5m2.44 0h4.9m2.44 0h.5m2.44 0h.5m2.43 0h4.9m2.46 0h.5m2.44 0h.5m2.43 0h4.9m2.45 0h.5m2.43 0h.5m2.45 0h4.9m2.45 0h.5m2.43 0h.5m2.44 0h4.9m2.44 0h.5m2.45 0h.5m2.44 0h4.9m2.43 0h.5m2.44 0h.5m2.44 0h4.9m2.45 0h.5m2.44 0h.48m2.45 0h4.9m2.44 0h.5m2.44 0h.5m2.45 0h4.9m2.44 0h.48m2.45 0h.5m2.43 0h4.9m2.45 0h.5m2.45 0h.5m2.43 0h4.9m2.45 0h.5m2.43 0h.5m2.44 0h2.45l2.95.96 1.8 2.46.25 1.58v2.6m0 2.6v.5m0 2.6v.5m0 2.6v5.2m0 2.6v.5m0 2.6v.5m0 2.6v5.2m0 2.6v.5m0 2.6v.5m0 2.6v5.2m0 2.6v.5m0 2.6v.5m0 2.6v5.2m0 2.6v.5m0 2.6v.5m0 2.6v2.6l-.96 2.95-2.47 1.8-1.58.25h-2.45m-2.45 0h-.5m-2.43 0h-.5m-2.44 0h-4.9m-2.44 0h-.5m-2.44 0h-.5m-2.44 0h-4.9m-2.44 0h-.5m-2.44 0h-.5m-2.44 0h-4.9m-2.44 0h-.5m-2.44 0h-.5m-2.44 0h-4.9m-2.44 0h-.5m-2.44 0h-.5m-2.44 0h-4.9m-2.44 0h-.5m-2.44 0h-.5m-2.43 0h-4.9m-2.46 0h-.5m-2.44 0h-.5m-2.43 0h-4.9m-2.45 0h-.5m-2.43 0h-.5m-2.45 0h-4.9m-2.45 0h-.5m-2.43 0h-.5m-2.44 0h-4.9m-2.44 0h-.5m-2.45 0h-.5m-2.44 0h-4.9m-2.43 0h-.5m-2.44 0h-.5m-2.44 0h-4.9m-2.45 0h-.5m-2.44 0h-.48m-2.45 0h-4.9m-2.44 0h-.5m-2.44 0h-.5m-2.45 0h-4.9m-2.44 0h-.48m-2.45 0h-.5m-2.43 0h-4.9m-2.45 0h-.5m-2.45 0h-.5m-2.43 0h-4.9m-2.45 0h-.5m-2.43 0h-.5m-2.44 0h-2.45l-2.95-.96-1.8-2.46-.25-1.58v-2.6m0-2.6v-.5m0-2.6v-.5m0-2.6v-5.2m0-2.6v-.5m0-2.6v-.5m0-2.6v-5.2m0-2.6v-.5m0-2.6v-.5m0-2.6v-5.2m0-2.6v-.5m0-2.6v-.5m0-2.6v-5.2m0-2.6v-.5m0-2.6v-.5m0-2.6V125l.96-2.95 2.47-1.8 1.58-.25h2.45" stroke="#000" stroke-width=".5" fill="none"/><g><use xlink:href="#Z" transform="matrix(1,0,0,1,1337.25,120) translate(31.305 31.9)"/><use xlink:href="#aa" transform="matrix(1,0,0,1,1337.25,120) translate(83.20500000000001 31.9)"/><use xlink:href="#ab" transform="matrix(1,0,0,1,1337.25,120) translate(124.80499999999999 31.9)"/><use xlink:href="#ac" transform="matrix(1,0,0,1,1337.25,120) translate(30.15499999999998 53.5)"/><use xlink:href="#ad" transform="matrix(1,0,0,1,1337.25,120) translate(107.955 53.5)"/></g><path d="M977 304.34c0 22.63-20.6 40.98-46 40.98s-46-18.35-46-40.98c0-22.62 20.6-40.98 46-40.98s46 18.36 46 40.98z" fill="#9d5025"/><path d="M885 300.98h92v3.36h-92v-3.36z" fill="#9d5025"/><path d="M977 300.98c0 22.62-20.6 40.98-46 40.98s-46-18.36-46-40.98c0-22.62 20.6-40.98 46-40.98s46 18.36 46 40.98z" fill="#f58536"/><path d="M960.92 321.13l-3.58-8.38-7.98 2.72-11.38-26.6-3.18-7.36-1.5-3.47-2.3-5.44h-15.16v8.9h8.2l2.9 6.65-23.8 37.7h11.5L931.55 299 943.58 327l2.9-.98 6.47-2.17 7.97-2.72z" fill="#fff"/><path d="M931 363.56v89.68" fill="none"/><path d="M931 363.56v9.97m0 9.96v19.92m0 9.96v19.93m0 9.98v9.96" stroke="#000" stroke-width="2" fill="none"/><path d="M935.64 362.83h-9.28l4.64-14.27z"/><path d="M937 363.83h-12l6-18.5zm-9.26-2h6.52L931 351.8zM932 453.73l-1-.5h1zm-2-.48h.02z"/><path d="M930.54 818V559.9" fill="none"/><path d="M931.54 818c0 .55-.44 1-1 1-.55 0-1-.45-1-1s.45-1 1-1c.56 0 1 .45 1 1zm0-8.07c0 .56-.44 1-1 1-.55 0-1-.44-1-1 0-.55.45-1 1-1 .56 0 1 .45 1 1zm0-8.06c0 .55-.44 1-1 1-.55 0-1-.45-1-1s.45-1 1-1c.56 0 1 .45 1 1zm0-8.07c0 .56-.44 1-1 1-.55 0-1-.44-1-1 0-.55.45-1 1-1 .56 0 1 .45 1 1zm0-8.06c0 .55-.44 1-1 1-.55 0-1-.45-1-1s.45-1 1-1c.56 0 1 .45 1 1zm0-8.07c0 .55-.44 1-1 1-.55 0-1-.45-1-1s.45-1 1-1c.56 0 1 .45 1 1zm0-8.06c0 .56-.44 1-1 1-.55 0-1-.44-1-1 0-.55.45-1 1-1 .56 0 1 .45 1 1zm0-8.06c0 .55-.44 1-1 1-.55 0-1-.45-1-1s.45-1 1-1c.56 0 1 .45 1 1zm0-8.06c0 .55-.44 1-1 1-.55 0-1-.45-1-1 0-.56.45-1 1-1 .56 0 1 .44 1 1zm0-8.07c0 .56-.44 1-1 1-.55 0-1-.44-1-1 0-.54.45-1 1-1 .56 0 1 .46 1 1zm0-8.06c0 .56-.44 1-1 1-.55 0-1-.44-1-1 0-.55.45-1 1-1 .56 0 1 .45 1 1zm0-8.06c0 .55-.44 1-1 1-.55 0-1-.45-1-1s.45-1 1-1c.56 0 1 .45 1 1zm0-8.07c0 .57-.44 1-1 1-.55 0-1-.43-1-1 0-.54.45-1 1-1 .56 0 1 .46 1 1zm0-8.05c0 .55-.44 1-1 1-.55 0-1-.45-1-1 0-.56.45-1 1-1 .56 0 1 .44 1 1zm0-8.07c0 .55-.44 1-1 1-.55 0-1-.45-1-1s.45-1 1-1c.56 0 1 .45 1 1zm0-8.06c0 .55-.44 1-1 1-.55 0-1-.45-1-1 0-.56.45-1 1-1 .56 0 1 .44 1 1zm0-8.07c0 .55-.44 1-1 1-.55 0-1-.45-1-1s.45-1 1-1c.56 0 1 .45 1 1zm0-8.07c0 .56-.44 1-1 1-.55 0-1-.44-1-1 0-.55.45-1 1-1 .56 0 1 .45 1 1zm0-8.06c0 .55-.44 1-1 1-.55 0-1-.45-1-1s.45-1 1-1c.56 0 1 .45 1 1zm0-8.07c0 .56-.44 1-1 1-.55 0-1-.44-1-1 0-.55.45-1 1-1 .56 0 1 .45 1 1zm0-8.06c0 .54-.44 1-1 1-.55 0-1-.46-1-1 0-.56.45-1 1-1 .56 0 1 .44 1 1zm0-8.08c0 .55-.44 1-1 1-.55 0-1-.45-1-1s.45-1 1-1c.56 0 1 .45 1 1zm0-8.06c0 .55-.44 1-1 1-.55 0-1-.45-1-1 0-.56.45-1 1-1 .56 0 1 .44 1 1zm0-8.07c0 .54-.44 1-1 1-.55 0-1-.46-1-1 0-.56.45-1 1-1 .56 0 1 .44 1 1zm0-8.07c0 .55-.44 1-1 1-.55 0-1-.45-1-1 0-.56.45-1 1-1 .56 0 1 .44 1 1zm0-8.07c0 .55-.44 1-1 1-.55 0-1-.45-1-1s.45-1 1-1c.56 0 1 .45 1 1zm0-8.07c0 .55-.44 1-1 1-.55 0-1-.45-1-1 0-.56.45-1 1-1 .56 0 1 .44 1 1zm0-8.07c0 .55-.44 1-1 1-.55 0-1-.45-1-1s.45-1 1-1c.56 0 1 .45 1 1zm0-8.07c0 .56-.44 1-1 1-.55 0-1-.44-1-1 0-.55.45-1 1-1 .56 0 1 .45 1 1zm0-8.06c0 .55-.44 1-1 1-.55 0-1-.45-1-1s.45-1 1-1c.56 0 1 .45 1 1zm0-8.07c0 .55-.44 1-1 1-.55 0-1-.45-1-1s.45-1 1-1c.56 0 1 .45 1 1zm0-8.06c0 .55-.44 1-1 1-.55 0-1-.45-1-1 0-.56.45-1 1-1 .56 0 1 .44 1 1z"/><path/><path d="M935.18 559.17h-9.27l4.64-14.27z"/><path d="M936.56 560.17h-12.03l6-18.5zm-9.27-2h6.5l-3.26-10.03z"/><defs><path d="M233-177c-1 41-23 64-60 70L243 0h-38l-65-103H63V0H30v-248c88 3 205-21 203 71zM63-129c60-2 137 13 137-47 0-61-80-42-137-45v92" id="ae"/><path d="M30-248c118-7 216 8 213 122C240-48 200 0 122 0H30v-248zM63-27c89 8 146-16 146-99s-60-101-146-95v194" id="af"/><path d="M185-189c-5-48-123-54-124 2 14 75 158 14 163 119 3 78-121 87-175 55-17-10-28-26-33-46l33-7c5 56 141 63 141-1 0-78-155-14-162-118-5-82 145-84 179-34 5 7 8 16 11 25" id="ag"/><g id="a"><use transform="matrix(0.05,0,0,0.05,0,0)" xlink:href="#ae"/><use transform="matrix(0.05,0,0,0.05,12.950000000000001,0)" xlink:href="#af"/><use transform="matrix(0.05,0,0,0.05,25.900000000000002,0)" xlink:href="#ag"/></g><path d="M160-131c35 5 61 23 61 61C221 17 115-2 30 0v-248c76 3 177-17 177 60 0 33-19 50-47 57zm-97-11c50-1 110 9 110-42 0-47-63-36-110-37v79zm0 115c55-2 124 14 124-45 0-56-70-42-124-44v89" id="ah"/><g id="b"><use transform="matrix(0.05,0,0,0.05,0,0)" xlink:href="#af"/><use transform="matrix(0.05,0,0,0.05,12.950000000000001,0)" xlink:href="#ah"/></g><path d="M24-231v-30h32v30H24zM24 0v-190h32V0H24" id="ai"/><path d="M117-194c89-4 53 116 60 194h-32v-121c0-31-8-49-39-48C34-167 62-67 57 0H25l-1-190h30c1 10-1 24 2 32 11-22 29-35 61-36" id="aj"/><path d="M135-143c-3-34-86-38-87 0 15 53 115 12 119 90S17 21 10-45l28-5c4 36 97 45 98 0-10-56-113-15-118-90-4-57 82-63 122-42 12 7 21 19 24 35" id="ak"/><path d="M59-47c-2 24 18 29 38 22v24C64 9 27 4 27-40v-127H5v-23h24l9-43h21v43h35v23H59v120" id="al"/><path d="M141-36C126-15 110 5 73 4 37 3 15-17 15-53c-1-64 63-63 125-63 3-35-9-54-41-54-24 1-41 7-42 31l-33-3c5-37 33-52 76-52 45 0 72 20 72 64v82c-1 20 7 32 28 27v20c-31 9-61-2-59-35zM48-53c0 20 12 33 32 33 41-3 63-29 60-74-43 2-92-5-92 41" id="am"/><path d="M96-169c-40 0-48 33-48 73s9 75 48 75c24 0 41-14 43-38l32 2c-6 37-31 61-74 61-59 0-76-41-82-99-10-93 101-131 147-64 4 7 5 14 7 22l-32 3c-4-21-16-35-41-35" id="an"/><path d="M100-194c63 0 86 42 84 106H49c0 40 14 67 53 68 26 1 43-12 49-29l28 8c-11 28-37 45-77 45C44 4 14-33 15-96c1-61 26-98 85-98zm52 81c6-60-76-77-97-28-3 7-6 17-6 28h103" id="ao"/><g id="c"><use transform="matrix(0.05,0,0,0.05,0,0)" xlink:href="#ai"/><use transform="matrix(0.05,0,0,0.05,3.95,0)" xlink:href="#aj"/><use transform="matrix(0.05,0,0,0.05,13.949999999999998,0)" xlink:href="#ak"/><use transform="matrix(0.05,0,0,0.05,22.95,0)" xlink:href="#al"/><use transform="matrix(0.05,0,0,0.05,27.950000000000003,0)" xlink:href="#am"/><use transform="matrix(0.05,0,0,0.05,37.95,0)" xlink:href="#aj"/><use transform="matrix(0.05,0,0,0.05,47.95,0)" xlink:href="#an"/><use transform="matrix(0.05,0,0,0.05,56.95,0)" xlink:href="#ao"/></g><path d="M205 0l-28-72H64L36 0H1l101-248h38L239 0h-34zm-38-99l-47-123c-12 45-31 82-46 123h93" id="ap"/><path d="M266 0h-40l-56-210L115 0H75L2-248h35L96-30l15-64 43-154h32l59 218 59-218h35" id="aq"/><g id="d"><use transform="matrix(0.05,0,0,0.05,0,0)" xlink:href="#ap"/><use transform="matrix(0.05,0,0,0.05,11.35,0)" xlink:href="#aq"/><use transform="matrix(0.05,0,0,0.05,28.299999999999997,0)" xlink:href="#ag"/></g><path d="M30 0v-248h187v28H63v79h144v27H63v87h162V0H30" id="ar"/><g id="e"><use transform="matrix(0.05,0,0,0.05,0,0)" xlink:href="#ag"/><use transform="matrix(0.05,0,0,0.05,12,0)" xlink:href="#ar"/><use transform="matrix(0.05,0,0,0.05,24,0)" xlink:href="#ag"/></g><path d="M177-190C167-65 218 103 67 71c-23-6-38-20-44-43l32-5c15 47 100 32 89-28v-30C133-14 115 1 83 1 29 1 15-40 15-95c0-56 16-97 71-98 29-1 48 16 59 35 1-10 0-23 2-32h30zM94-22c36 0 50-32 50-73 0-42-14-75-50-75-39 0-46 34-46 75s6 73 46 73" id="as"/><path d="M16-82v-28h88v28H16" id="at"/><path d="M114-163C36-179 61-72 57 0H25l-1-190h30c1 12-1 29 2 39 6-27 23-49 58-41v29" id="au"/><path d="M106-169C34-169 62-67 57 0H25v-261h32l-1 103c12-21 28-36 61-36 89 0 53 116 60 194h-32v-121c2-32-8-49-39-48" id="av"/><path d="M108 0H70L1-190h34L89-25l56-165h34" id="aw"/><g id="f"><use transform="matrix(0.05,0,0,0.05,0,0)" xlink:href="#as"/><use transform="matrix(0.05,0,0,0.05,10,0)" xlink:href="#aj"/><use transform="matrix(0.05,0,0,0.05,20,0)" xlink:href="#ak"/><use transform="matrix(0.05,0,0,0.05,29,0)" xlink:href="#ak"/><use transform="matrix(0.05,0,0,0.05,38,0)" xlink:href="#at"/><use transform="matrix(0.05,0,0,0.05,43.95,0)" xlink:href="#am"/><use transform="matrix(0.05,0,0,0.05,53.95,0)" xlink:href="#au"/><use transform="matrix(0.05,0,0,0.05,59.900000000000006,0)" xlink:href="#an"/><use transform="matrix(0.05,0,0,0.05,68.9,0)" xlink:href="#av"/><use transform="matrix(0.05,0,0,0.05,78.9,0)" xlink:href="#ai"/><use transform="matrix(0.05,0,0,0.05,82.85000000000001,0)" xlink:href="#aw"/><use transform="matrix(0.05,0,0,0.05,91.85000000000001,0)" xlink:href="#ao"/></g><path d="M143 4C61 4 22-44 18-125c-5-107 100-154 193-111 17 8 29 25 37 43l-32 9c-13-25-37-40-76-40-61 0-88 39-88 99 0 61 29 100 91 101 35 0 62-11 79-27v-45h-74v-28h105v86C228-13 192 4 143 4" id="ax"/><path d="M100-194c62-1 85 37 85 99 1 63-27 99-86 99S16-35 15-95c0-66 28-99 85-99zM99-20c44 1 53-31 53-75 0-43-8-75-51-75s-53 32-53 75 10 74 51 75" id="ay"/><g id="g"><use transform="matrix(0.05,0,0,0.05,0,0)" xlink:href="#ax"/><use transform="matrix(0.05,0,0,0.05,14,0)" xlink:href="#ao"/><use transform="matrix(0.05,0,0,0.05,24,0)" xlink:href="#ay"/><use transform="matrix(0.05,0,0,0.05,34,0)" xlink:href="#aj"/><use transform="matrix(0.05,0,0,0.05,44,0)" xlink:href="#ao"/><use transform="matrix(0.05,0,0,0.05,54,0)" xlink:href="#al"/></g><path d="M63-220v92h138v28H63V0H30v-248h175v28H63" id="az"/><path d="M127-220V0H93v-220H8v-28h204v28h-85" id="aA"/><path d="M30-248c87 1 191-15 191 75 0 78-77 80-158 76V0H30v-248zm33 125c57 0 124 11 124-50 0-59-68-47-124-48v98" id="aB"/><g id="h"><use transform="matrix(0.05,0,0,0.05,0,0)" xlink:href="#az"/><use transform="matrix(0.05,0,0,0.05,10.950000000000001,0)" xlink:href="#aA"/><use transform="matrix(0.05,0,0,0.05,21.900000000000002,0)" xlink:href="#aB"/></g><path d="M210-169c-67 3-38 105-44 169h-31v-121c0-29-5-50-35-48C34-165 62-65 56 0H25l-1-190h30c1 10-1 24 2 32 10-44 99-50 107 0 11-21 27-35 58-36 85-2 47 119 55 194h-31v-121c0-29-5-49-35-48" id="aC"/><path d="M9 0v-24l116-142H16v-24h144v24L44-24h123V0H9" id="aD"/><g id="i"><use transform="matrix(0.05,0,0,0.05,0,0)" xlink:href="#ap"/><use transform="matrix(0.05,0,0,0.05,12,0)" xlink:href="#aC"/><use transform="matrix(0.05,0,0,0.05,26.950000000000003,0)" xlink:href="#am"/><use transform="matrix(0.05,0,0,0.05,36.95,0)" xlink:href="#aD"/><use transform="matrix(0.05,0,0,0.05,45.95,0)" xlink:href="#ay"/><use transform="matrix(0.05,0,0,0.05,55.95,0)" xlink:href="#aj"/></g><path d="M137 0h-34L2-248h35l83 218 83-218h36" id="aE"/><path d="M212-179c-10-28-35-45-73-45-59 0-87 40-87 99 0 60 29 101 89 101 43 0 62-24 78-52l27 14C228-24 195 4 139 4 59 4 22-46 18-125c-6-104 99-153 187-111 19 9 31 26 39 46" id="aF"/><g id="j"><use transform="matrix(0.05,0,0,0.05,0,0)" xlink:href="#aE"/><use transform="matrix(0.05,0,0,0.05,12,0)" xlink:href="#aB"/><use transform="matrix(0.05,0,0,0.05,24,0)" xlink:href="#aF"/></g><path d="M85-194c31 0 48 13 60 33l-1-100h32l1 261h-30c-2-10 0-23-3-31C134-8 116 4 85 4 32 4 16-35 15-94c0-66 23-100 70-100zm9 24c-40 0-46 34-46 75 0 40 6 74 45 74 42 0 51-32 51-76 0-42-9-74-50-73" id="aG"/><path d="M115-194c55 1 70 41 70 98S169 2 115 4C84 4 66-9 55-30l1 105H24l-1-265h31l2 30c10-21 28-34 59-34zm-8 174c40 0 45-34 45-75s-6-73-45-74c-42 0-51 32-51 76 0 43 10 73 51 73" id="aH"/><g id="k"><use transform="matrix(0.05,0,0,0.05,0,0)" xlink:href="#ao"/><use transform="matrix(0.05,0,0,0.05,10,0)" xlink:href="#aj"/><use transform="matrix(0.05,0,0,0.05,20,0)" xlink:href="#aG"/><use transform="matrix(0.05,0,0,0.05,30,0)" xlink:href="#aH"/><use transform="matrix(0.05,0,0,0.05,40,0)" xlink:href="#ay"/><use transform="matrix(0.05,0,0,0.05,50,0)" xlink:href="#ai"/><use transform="matrix(0.05,0,0,0.05,53.95,0)" xlink:href="#aj"/><use transform="matrix(0.05,0,0,0.05,63.95,0)" xlink:href="#al"/><use transform="matrix(0.05,0,0,0.05,68.95,0)" xlink:href="#ak"/></g><path d="M101-251c82-7 93 87 43 132L82-64C71-53 59-42 53-27h129V0H18c2-99 128-94 128-182 0-28-16-43-45-43s-46 15-49 41l-32-3c6-41 34-60 81-64" id="aI"/><g id="l"><use transform="matrix(0.05,0,0,0.05,0,0)" xlink:href="#ar"/><use transform="matrix(0.05,0,0,0.05,12,0)" xlink:href="#aF"/><use transform="matrix(0.05,0,0,0.05,24.950000000000003,0)" xlink:href="#aI"/></g><g id="m"><use transform="matrix(0.05,0,0,0.05,0,0)" xlink:href="#aF"/><use transform="matrix(0.05,0,0,0.05,12.950000000000001,0)" xlink:href="#ay"/><use transform="matrix(0.05,0,0,0.05,22.950000000000003,0)" xlink:href="#aC"/><use transform="matrix(0.05,0,0,0.05,37.900000000000006,0)" xlink:href="#aH"/><use transform="matrix(0.05,0,0,0.05,47.900000000000006,0)" xlink:href="#au"/><use transform="matrix(0.05,0,0,0.05,53.85,0)" xlink:href="#ao"/><use transform="matrix(0.05,0,0,0.05,63.85,0)" xlink:href="#ak"/><use transform="matrix(0.05,0,0,0.05,72.85000000000001,0)" xlink:href="#ak"/><use transform="matrix(0.05,0,0,0.05,81.85000000000001,0)" xlink:href="#ai"/><use transform="matrix(0.05,0,0,0.05,85.80000000000001,0)" xlink:href="#aj"/><use transform="matrix(0.05,0,0,0.05,95.80000000000001,0)" xlink:href="#as"/></g><path d="M197 0v-115H63V0H30v-248h33v105h134v-105h34V0h-34" id="aJ"/><path d="M143 0L79-87 56-68V0H24v-261h32v163l83-92h37l-77 82L181 0h-38" id="aK"/><g id="n"><use transform="matrix(0.05,0,0,0.05,0,0)" xlink:href="#aJ"/><use transform="matrix(0.05,0,0,0.05,12.950000000000001,0)" xlink:href="#am"/><use transform="matrix(0.05,0,0,0.05,22.950000000000003,0)" xlink:href="#al"/><use transform="matrix(0.05,0,0,0.05,27.950000000000003,0)" xlink:href="#am"/><use transform="matrix(0.05,0,0,0.05,37.95,0)" xlink:href="#aj"/><use transform="matrix(0.05,0,0,0.05,47.95,0)" xlink:href="#am"/><use transform="matrix(0.05,0,0,0.05,57.95,0)" xlink:href="#aK"/><use transform="matrix(0.05,0,0,0.05,66.95,0)" xlink:href="#am"/></g><g id="o"><use transform="matrix(0.05,0,0,0.05,0,0)" xlink:href="#ap"/><use transform="matrix(0.05,0,0,0.05,12,0)" xlink:href="#aG"/><use transform="matrix(0.05,0,0,0.05,22,0)" xlink:href="#aC"/><use transform="matrix(0.05,0,0,0.05,36.95,0)" xlink:href="#ai"/><use transform="matrix(0.05,0,0,0.05,40.900000000000006,0)" xlink:href="#aj"/></g><g id="p"><use transform="matrix(0.05,0,0,0.05,0,0)" xlink:href="#au"/><use transform="matrix(0.05,0,0,0.05,5.95,0)" xlink:href="#ao"/><use transform="matrix(0.05,0,0,0.05,15.949999999999998,0)" xlink:href="#aH"/><use transform="matrix(0.05,0,0,0.05,25.950000000000003,0)" xlink:href="#ay"/><use transform="matrix(0.05,0,0,0.05,35.95,0)" xlink:href="#au"/><use transform="matrix(0.05,0,0,0.05,41.900000000000006,0)" xlink:href="#al"/><use transform="matrix(0.05,0,0,0.05,46.900000000000006,0)" xlink:href="#ai"/><use transform="matrix(0.05,0,0,0.05,50.85000000000001,0)" xlink:href="#aj"/><use transform="matrix(0.05,0,0,0.05,60.85,0)" xlink:href="#as"/></g><path d="M240 0l2-218c-23 76-54 145-80 218h-23L58-218 59 0H30v-248h44l77 211c21-75 51-140 76-211h43V0h-30" id="aL"/><path d="M84 4C-5 8 30-112 23-190h32v120c0 31 7 50 39 49 72-2 45-101 50-169h31l1 190h-30c-1-10 1-25-2-33-11 22-28 36-60 37" id="aM"/><path d="M24 0v-261h32V0H24" id="aN"/><path d="M179-190L93 31C79 59 56 82 12 73V49c39 6 53-20 64-50L1-190h34L92-34l54-156h33" id="aO"/><g id="q"><use transform="matrix(0.05663155510250311,0,0,0.05663155510250311,0,0)" xlink:href="#aL"/><use transform="matrix(0.05663155510250311,0,0,0.05663155510250311,16.93283497564843,0)" xlink:href="#am"/><use transform="matrix(0.05663155510250311,0,0,0.05663155510250311,28.25914599614905,0)" xlink:href="#aj"/><use transform="matrix(0.05663155510250311,0,0,0.05663155510250311,39.58545701664967,0)" xlink:href="#aM"/><use transform="matrix(0.05663155510250311,0,0,0.05663155510250311,50.911768037150296,0)" xlink:href="#am"/><use transform="matrix(0.05663155510250311,0,0,0.05663155510250311,62.23807905765092,0)" xlink:href="#aN"/><use transform="matrix(0.05663155510250311,0,0,0.05663155510250311,66.71197191074867,0)" xlink:href="#aN"/><use transform="matrix(0.05663155510250311,0,0,0.05663155510250311,71.18586476384642,0)" xlink:href="#aO"/></g><g id="r"><use transform="matrix(0.05663155510250311,0,0,0.05663155510250311,0,0)" xlink:href="#al"/><use transform="matrix(0.05663155510250311,0,0,0.05663155510250311,5.663155510250311,0)" xlink:href="#au"/><use transform="matrix(0.05663155510250311,0,0,0.05663155510250311,12.40231056744818,0)" xlink:href="#ai"/><use transform="matrix(0.05663155510250311,0,0,0.05663155510250311,16.876203420545927,0)" xlink:href="#as"/><use transform="matrix(0.05663155510250311,0,0,0.05663155510250311,28.20251444104655,0)" xlink:href="#as"/><use transform="matrix(0.05663155510250311,0,0,0.05663155510250311,39.52882546154717,0)" xlink:href="#ao"/><use transform="matrix(0.05663155510250311,0,0,0.05663155510250311,50.8551364820478,0)" xlink:href="#au"/></g><path d="M101-234c-31-9-42 10-38 44h38v23H63V0H32v-167H5v-23h27c-7-52 17-82 69-68v24" id="aP"/><g id="s"><use transform="matrix(0.05663155510250311,0,0,0.05663155510250311,0,0)" xlink:href="#aP"/><use transform="matrix(0.05663155510250311,0,0,0.05663155510250311,5.663155510250311,0)" xlink:href="#aM"/><use transform="matrix(0.05663155510250311,0,0,0.05663155510250311,16.98946653075093,0)" xlink:href="#aN"/><use transform="matrix(0.05663155510250311,0,0,0.05663155510250311,21.463359383848676,0)" xlink:href="#aN"/></g><path d="M115-194c53 0 69 39 70 98 0 66-23 100-70 100C84 3 66-7 56-30L54 0H23l1-261h32v101c10-23 28-34 59-34zm-8 174c40 0 45-34 45-75 0-40-5-75-45-74-42 0-51 32-51 76 0 43 10 73 51 73" id="aQ"/><g id="t"><use transform="matrix(0.05663155510250311,0,0,0.05663155510250311,0,0)" xlink:href="#aQ"/><use transform="matrix(0.05663155510250311,0,0,0.05663155510250311,11.326311020500622,0)" xlink:href="#aM"/><use transform="matrix(0.05663155510250311,0,0,0.05663155510250311,22.652622041001244,0)" xlink:href="#an"/><use transform="matrix(0.05663155510250311,0,0,0.05663155510250311,32.84630195945181,0)" xlink:href="#aK"/><use transform="matrix(0.05663155510250311,0,0,0.05663155510250311,43.03998187790236,0)" xlink:href="#ao"/><use transform="matrix(0.05663155510250311,0,0,0.05663155510250311,54.36629289840299,0)" xlink:href="#al"/></g><g id="u"><use transform="matrix(0.05663155510250311,0,0,0.05663155510250311,0,0)" xlink:href="#ak"/><use transform="matrix(0.05663155510250311,0,0,0.05663155510250311,10.19367991845056,0)" xlink:href="#an"/><use transform="matrix(0.05663155510250311,0,0,0.05663155510250311,20.38735983690112,0)" xlink:href="#am"/><use transform="matrix(0.05663155510250311,0,0,0.05663155510250311,31.71367085740174,0)" xlink:href="#aj"/></g><g id="v"><use transform="matrix(0.05,0,0,0.05,0,0)" xlink:href="#aF"/><use transform="matrix(0.05,0,0,0.05,12.950000000000001,0)" xlink:href="#ay"/><use transform="matrix(0.05,0,0,0.05,22.950000000000003,0)" xlink:href="#aH"/><use transform="matrix(0.05,0,0,0.05,32.95,0)" xlink:href="#aO"/></g><g id="w"><use transform="matrix(0.05,0,0,0.05,0,0)" xlink:href="#aP"/><use transform="matrix(0.05,0,0,0.05,5,0)" xlink:href="#ai"/><use transform="matrix(0.05,0,0,0.05,8.95,0)" xlink:href="#aN"/><use transform="matrix(0.05,0,0,0.05,12.899999999999999,0)" xlink:href="#ao"/><use transform="matrix(0.05,0,0,0.05,22.9,0)" xlink:href="#ak"/></g><g id="x"><use transform="matrix(0.05,0,0,0.05,0,0)" xlink:href="#az"/><use transform="matrix(0.05,0,0,0.05,10.950000000000001,0)" xlink:href="#aA"/><use transform="matrix(0.05,0,0,0.05,21.900000000000002,0)" xlink:href="#aB"/></g><path d="M18-27v-27l151-64-151-65v-27l175 74v36" id="aR"/><g id="y"><use transform="matrix(0.05,0,0,0.05,0,0)" xlink:href="#at"/><use transform="matrix(0.05,0,0,0.05,5.95,0)" xlink:href="#aR"/></g><path d="M126-127c33 6 58 20 58 59 0 88-139 92-164 29-3-8-5-16-6-25l32-3c6 27 21 44 54 44 32 0 52-15 52-46 0-38-36-46-79-43v-28c39 1 72-4 72-42 0-27-17-43-46-43-28 0-47 15-49 41l-32-3c6-42 35-63 81-64 48-1 79 21 79 65 0 36-21 52-52 59" id="aS"/><g id="z"><use transform="matrix(0.05,0,0,0.05,0,0)" xlink:href="#ag"/><use transform="matrix(0.05,0,0,0.05,12,0)" xlink:href="#aS"/></g><g id="A"><use transform="matrix(0.05,0,0,0.05,0,0)" xlink:href="#ag"/><use transform="matrix(0.05,0,0,0.05,12,0)" xlink:href="#an"/><use transform="matrix(0.05,0,0,0.05,21,0)" xlink:href="#am"/><use transform="matrix(0.05,0,0,0.05,31,0)" xlink:href="#aj"/></g><g id="B"><use transform="matrix(0.05,0,0,0.05,0,0)" xlink:href="#af"/><use transform="matrix(0.05,0,0,0.05,12.950000000000001,0)" xlink:href="#ai"/><use transform="matrix(0.05,0,0,0.05,16.900000000000002,0)" xlink:href="#au"/><use transform="matrix(0.05,0,0,0.05,22.85,0)" xlink:href="#ao"/><use transform="matrix(0.05,0,0,0.05,32.85,0)" xlink:href="#an"/><use transform="matrix(0.05,0,0,0.05,41.85,0)" xlink:href="#al"/><use transform="matrix(0.05,0,0,0.05,46.85,0)" xlink:href="#ay"/><use transform="matrix(0.05,0,0,0.05,56.85,0)" xlink:href="#au"/><use transform="matrix(0.05,0,0,0.05,62.800000000000004,0)" xlink:href="#aO"/></g><g id="C"><use transform="matrix(0.05,0,0,0.05,0,0)" xlink:href="#af"/><use transform="matrix(0.05,0,0,0.05,12.950000000000001,0)" xlink:href="#ao"/><use transform="matrix(0.05,0,0,0.05,22.950000000000003,0)" xlink:href="#aN"/><use transform="matrix(0.05,0,0,0.05,26.900000000000002,0)" xlink:href="#al"/><use transform="matrix(0.05,0,0,0.05,31.900000000000002,0)" xlink:href="#am"/></g><path d="M87 75C49 33 22-17 22-94c0-76 28-126 65-167h31c-38 41-64 92-64 168S80 34 118 75H87" id="aT"/><path d="M0 4l72-265h28L28 4H0" id="aU"/><path d="M33-261c38 41 65 92 65 168S71 34 33 75H2C39 34 66-17 66-93S39-220 2-261h31" id="aV"/><g id="D"><use transform="matrix(0.05,0,0,0.05,0,0)" xlink:href="#aT"/><use transform="matrix(0.05,0,0,0.05,5.95,0)" xlink:href="#az"/><use transform="matrix(0.05,0,0,0.05,16.900000000000002,0)" xlink:href="#aA"/><use transform="matrix(0.05,0,0,0.05,27.85,0)" xlink:href="#aB"/><use transform="matrix(0.05,0,0,0.05,39.85,0)" xlink:href="#aU"/><use transform="matrix(0.05,0,0,0.05,44.85,0)" xlink:href="#ag"/><use transform="matrix(0.05,0,0,0.05,56.85,0)" xlink:href="#aS"/><use transform="matrix(0.05,0,0,0.05,66.85,0)" xlink:href="#aV"/></g><g id="F"><use transform="matrix(0.05,0,0,0.05,0,0)" xlink:href="#ag"/><use transform="matrix(0.05,0,0,0.05,12,0)" xlink:href="#ai"/><use transform="matrix(0.05,0,0,0.05,15.949999999999998,0)" xlink:href="#aC"/><use transform="matrix(0.05,0,0,0.05,30.899999999999995,0)" xlink:href="#aH"/><use transform="matrix(0.05,0,0,0.05,40.9,0)" xlink:href="#aN"/><use transform="matrix(0.05,0,0,0.05,44.85,0)" xlink:href="#ao"/></g><path d="M190 0L58-211 59 0H30v-248h39L202-35l-2-213h31V0h-41" id="aW"/><g id="G"><use transform="matrix(0.05,0,0,0.05,0,0)" xlink:href="#aW"/><use transform="matrix(0.05,0,0,0.05,12.950000000000001,0)" xlink:href="#ay"/><use transform="matrix(0.05,0,0,0.05,22.950000000000003,0)" xlink:href="#al"/><use transform="matrix(0.05,0,0,0.05,27.950000000000003,0)" xlink:href="#ai"/><use transform="matrix(0.05,0,0,0.05,31.900000000000002,0)" xlink:href="#aP"/><use transform="matrix(0.05,0,0,0.05,36.900000000000006,0)" xlink:href="#ai"/><use transform="matrix(0.05,0,0,0.05,40.85000000000001,0)" xlink:href="#an"/><use transform="matrix(0.05,0,0,0.05,49.85000000000001,0)" xlink:href="#am"/><use transform="matrix(0.05,0,0,0.05,59.85,0)" xlink:href="#al"/><use transform="matrix(0.05,0,0,0.05,64.85000000000001,0)" xlink:href="#ai"/><use transform="matrix(0.05,0,0,0.05,68.80000000000001,0)" xlink:href="#ay"/><use transform="matrix(0.05,0,0,0.05,78.80000000000001,0)" xlink:href="#aj"/></g><g id="H"><use transform="matrix(0.05,0,0,0.05,0,0)" xlink:href="#ag"/><use transform="matrix(0.05,0,0,0.05,12,0)" xlink:href="#ao"/><use transform="matrix(0.05,0,0,0.05,22,0)" xlink:href="#au"/><use transform="matrix(0.05,0,0,0.05,27.950000000000003,0)" xlink:href="#aw"/><use transform="matrix(0.05,0,0,0.05,36.95,0)" xlink:href="#ai"/><use transform="matrix(0.05,0,0,0.05,40.900000000000006,0)" xlink:href="#an"/><use transform="matrix(0.05,0,0,0.05,49.900000000000006,0)" xlink:href="#ao"/></g><path d="M140-251c81 0 123 46 123 126C263-53 228-8 163 1c7 30 30 48 69 40v23c-55 16-95-15-103-61C56-3 17-48 17-125c0-80 42-126 123-126zm0 227c63 0 89-41 89-101s-29-99-89-99c-61 0-89 39-89 99S79-25 140-24" id="aX"/><g id="I"><use transform="matrix(0.05,0,0,0.05,0,0)" xlink:href="#aX"/><use transform="matrix(0.05,0,0,0.05,14,0)" xlink:href="#aM"/><use transform="matrix(0.05,0,0,0.05,24,0)" xlink:href="#ao"/><use transform="matrix(0.05,0,0,0.05,34,0)" xlink:href="#aM"/><use transform="matrix(0.05,0,0,0.05,44,0)" xlink:href="#ao"/></g><g id="J"><use transform="matrix(0.05,0,0,0.05,0,0)" xlink:href="#ax"/><use transform="matrix(0.05,0,0,0.05,14,0)" xlink:href="#ao"/><use transform="matrix(0.05,0,0,0.05,24,0)" xlink:href="#aj"/><use transform="matrix(0.05,0,0,0.05,34,0)" xlink:href="#ao"/><use transform="matrix(0.05,0,0,0.05,44,0)" xlink:href="#au"/><use transform="matrix(0.05,0,0,0.05,49.95,0)" xlink:href="#am"/><use transform="matrix(0.05,0,0,0.05,59.95,0)" xlink:href="#al"/><use transform="matrix(0.05,0,0,0.05,64.95,0)" xlink:href="#ao"/></g><g id="K"><use transform="matrix(0.05,0,0,0.05,0,0)" xlink:href="#af"/><use transform="matrix(0.05,0,0,0.05,12.950000000000001,0)" xlink:href="#am"/><use transform="matrix(0.05,0,0,0.05,22.950000000000003,0)" xlink:href="#al"/><use transform="matrix(0.05,0,0,0.05,27.950000000000003,0)" xlink:href="#am"/><use transform="matrix(0.05,0,0,0.05,37.95,0)" xlink:href="#at"/><use transform="matrix(0.05,0,0,0.05,43.900000000000006,0)" xlink:href="#an"/><use transform="matrix(0.05,0,0,0.05,52.900000000000006,0)" xlink:href="#am"/><use transform="matrix(0.05,0,0,0.05,62.900000000000006,0)" xlink:href="#al"/><use transform="matrix(0.05,0,0,0.05,67.9,0)" xlink:href="#am"/><use transform="matrix(0.05,0,0,0.05,77.9,0)" xlink:href="#aN"/><use transform="matrix(0.05,0,0,0.05,81.85000000000001,0)" xlink:href="#ay"/><use transform="matrix(0.05,0,0,0.05,91.85000000000001,0)" xlink:href="#as"/></g><g id="L"><use transform="matrix(0.05,0,0,0.05,0,0)" xlink:href="#aP"/><use transform="matrix(0.05,0,0,0.05,5,0)" xlink:href="#ay"/><use transform="matrix(0.05,0,0,0.05,15,0)" xlink:href="#au"/></g><g id="M"><use transform="matrix(0.05,0,0,0.05,0,0)" xlink:href="#ao"/><use transform="matrix(0.05,0,0,0.05,10,0)" xlink:href="#am"/><use transform="matrix(0.05,0,0,0.05,20,0)" xlink:href="#an"/><use transform="matrix(0.05,0,0,0.05,29,0)" xlink:href="#av"/></g><g id="N"><use transform="matrix(0.05,0,0,0.05,0,0)" xlink:href="#ai"/><use transform="matrix(0.05,0,0,0.05,3.95,0)" xlink:href="#aj"/><use transform="matrix(0.05,0,0,0.05,13.949999999999998,0)" xlink:href="#an"/><use transform="matrix(0.05,0,0,0.05,22.95,0)" xlink:href="#ay"/><use transform="matrix(0.05,0,0,0.05,32.95,0)" xlink:href="#aC"/><use transform="matrix(0.05,0,0,0.05,47.900000000000006,0)" xlink:href="#ai"/><use transform="matrix(0.05,0,0,0.05,51.85,0)" xlink:href="#aj"/><use transform="matrix(0.05,0,0,0.05,61.85,0)" xlink:href="#as"/></g><g id="O"><use transform="matrix(0.05,0,0,0.05,0,0)" xlink:href="#aP"/><use transform="matrix(0.05,0,0,0.05,5,0)" xlink:href="#ai"/><use transform="matrix(0.05,0,0,0.05,8.95,0)" xlink:href="#aN"/><use transform="matrix(0.05,0,0,0.05,12.899999999999999,0)" xlink:href="#ao"/></g><path d="M27 0v-27h64v-190l-56 39v-29l58-41h29v221h61V0H27" id="aY"/><g id="P"><use transform="matrix(0.05096839959225281,0,0,0.05096839959225281,0,0)" xlink:href="#aY"/><use transform="matrix(0.05096839959225281,0,0,0.05096839959225281,10.193679918450561,0)" xlink:href="#aV"/></g><g id="Q"><use transform="matrix(0.05096839959225281,0,0,0.05096839959225281,0,0)" xlink:href="#aJ"/><use transform="matrix(0.05096839959225281,0,0,0.05096839959225281,13.200815494393478,0)" xlink:href="#ay"/><use transform="matrix(0.05096839959225281,0,0,0.05096839959225281,23.394495412844037,0)" xlink:href="#ak"/><use transform="matrix(0.05096839959225281,0,0,0.05096839959225281,32.56880733944954,0)" xlink:href="#al"/><use transform="matrix(0.05096839959225281,0,0,0.05096839959225281,37.66564729867482,0)" xlink:href="#ai"/><use transform="matrix(0.05096839959225281,0,0,0.05096839959225281,41.69215086646279,0)" xlink:href="#aj"/><use transform="matrix(0.05096839959225281,0,0,0.05096839959225281,51.88583078491335,0)" xlink:href="#as"/></g><g id="R"><use transform="matrix(0.05096839959225281,0,0,0.05096839959225281,0,0)" xlink:href="#az"/><use transform="matrix(0.05096839959225281,0,0,0.05096839959225281,11.162079510703364,0)" xlink:href="#aA"/><use transform="matrix(0.05096839959225281,0,0,0.05096839959225281,22.32415902140673,0)" xlink:href="#aB"/></g><g id="S"><use transform="matrix(0.05096839959225281,0,0,0.05096839959225281,0,0)" xlink:href="#aP"/><use transform="matrix(0.05096839959225281,0,0,0.05096839959225281,5.096839959225281,0)" xlink:href="#ay"/><use transform="matrix(0.05096839959225281,0,0,0.05096839959225281,15.290519877675843,0)" xlink:href="#au"/></g><path d="M101-251c68 0 85 55 85 127S166 4 100 4C33 4 14-52 14-124c0-73 17-127 87-127zm-1 229c47 0 54-49 54-102s-4-102-53-102c-51 0-55 48-55 102 0 53 5 102 54 102" id="aZ"/><path d="M-5 72V49h209v23H-5" id="ba"/><g id="T"><use transform="matrix(0.05096839959225281,0,0,0.05096839959225281,0,0)" xlink:href="#al"/><use transform="matrix(0.05096839959225281,0,0,0.05096839959225281,5.096839959225281,0)" xlink:href="#aZ"/><use transform="matrix(0.05096839959225281,0,0,0.05096839959225281,15.290519877675843,0)" xlink:href="#aI"/><use transform="matrix(0.05096839959225281,0,0,0.05096839959225281,25.484199796126404,0)" xlink:href="#ba"/><use transform="matrix(0.05096839959225281,0,0,0.05096839959225281,35.67787971457697,0)" xlink:href="#aP"/><use transform="matrix(0.05096839959225281,0,0,0.05096839959225281,40.774719673802245,0)" xlink:href="#ai"/><use transform="matrix(0.05096839959225281,0,0,0.05096839959225281,44.801223241590215,0)" xlink:href="#aN"/><use transform="matrix(0.05096839959225281,0,0,0.05096839959225281,48.827726809378184,0)" xlink:href="#ao"/><use transform="matrix(0.05096839959225281,0,0,0.05096839959225281,59.02140672782875,0)" xlink:href="#ak"/></g><g id="U"><use transform="matrix(0.05096839959225281,0,0,0.05096839959225281,0,0)" xlink:href="#aI"/><use transform="matrix(0.05096839959225281,0,0,0.05096839959225281,10.193679918450561,0)" xlink:href="#aV"/><use transform="matrix(0.05096839959225281,0,0,0.05096839959225281,16.258919469928646,0)" xlink:href="#aX"/><use transform="matrix(0.05096839959225281,0,0,0.05096839959225281,30.530071355759432,0)" xlink:href="#aM"/><use transform="matrix(0.05096839959225281,0,0,0.05096839959225281,40.723751274209995,0)" xlink:href="#ao"/><use transform="matrix(0.05096839959225281,0,0,0.05096839959225281,50.91743119266056,0)" xlink:href="#au"/><use transform="matrix(0.05096839959225281,0,0,0.05096839959225281,56.98267074413865,0)" xlink:href="#aO"/></g><g id="V"><use transform="matrix(0.05096839959225281,0,0,0.05096839959225281,0,0)" xlink:href="#aG"/><use transform="matrix(0.05096839959225281,0,0,0.05096839959225281,10.193679918450561,0)" xlink:href="#am"/><use transform="matrix(0.05096839959225281,0,0,0.05096839959225281,20.387359836901123,0)" xlink:href="#al"/><use transform="matrix(0.05096839959225281,0,0,0.05096839959225281,25.484199796126404,0)" xlink:href="#am"/><use transform="matrix(0.05096839959225281,0,0,0.05096839959225281,35.67787971457697,0)" xlink:href="#at"/><use transform="matrix(0.05096839959225281,0,0,0.05096839959225281,41.743119266055054,0)" xlink:href="#an"/><use transform="matrix(0.05096839959225281,0,0,0.05096839959225281,50.91743119266056,0)" xlink:href="#am"/><use transform="matrix(0.05096839959225281,0,0,0.05096839959225281,61.11111111111113,0)" xlink:href="#al"/><use transform="matrix(0.05096839959225281,0,0,0.05096839959225281,66.2079510703364,0)" xlink:href="#am"/><use transform="matrix(0.05096839959225281,0,0,0.05096839959225281,76.40163098878696,0)" xlink:href="#aN"/><use transform="matrix(0.05096839959225281,0,0,0.05096839959225281,80.42813455657493,0)" xlink:href="#ay"/><use transform="matrix(0.05096839959225281,0,0,0.05096839959225281,90.62181447502549,0)" xlink:href="#as"/></g><g id="W"><use transform="matrix(0.05096839959225281,0,0,0.05096839959225281,0,0)" xlink:href="#am"/><use transform="matrix(0.05096839959225281,0,0,0.05096839959225281,10.193679918450561,0)" xlink:href="#ak"/></g><g id="X"><use transform="matrix(0.05096839959225281,0,0,0.05096839959225281,0,0)" xlink:href="#am"/><use transform="matrix(0.05096839959225281,0,0,0.05096839959225281,10.193679918450561,0)" xlink:href="#aj"/></g><g id="Y"><use transform="matrix(0.05096839959225281,0,0,0.05096839959225281,0,0)" xlink:href="#ap"/><use transform="matrix(0.05096839959225281,0,0,0.05096839959225281,12.232415902140673,0)" xlink:href="#aG"/><use transform="matrix(0.05096839959225281,0,0,0.05096839959225281,22.426095820591236,0)" xlink:href="#aC"/><use transform="matrix(0.05096839959225281,0,0,0.05096839959225281,37.66564729867483,0)" xlink:href="#aC"/><use transform="matrix(0.05096839959225281,0,0,0.05096839959225281,52.90519877675841,0)" xlink:href="#ai"/><use transform="matrix(0.05096839959225281,0,0,0.05096839959225281,56.93170234454639,0)" xlink:href="#aj"/></g><g id="Z"><use transform="matrix(0.05,0,0,0.05,0,0)" xlink:href="#aH"/><use transform="matrix(0.05,0,0,0.05,10,0)" xlink:href="#aM"/><use transform="matrix(0.05,0,0,0.05,20,0)" xlink:href="#aQ"/><use transform="matrix(0.05,0,0,0.05,30,0)" xlink:href="#aN"/><use transform="matrix(0.05,0,0,0.05,33.95,0)" xlink:href="#ai"/><use transform="matrix(0.05,0,0,0.05,37.900000000000006,0)" xlink:href="#an"/></g><g id="aa"><use transform="matrix(0.05,0,0,0.05,0,0)" xlink:href="#aq"/><use transform="matrix(0.05,0,0,0.05,16.599999999999998,0)" xlink:href="#ao"/><use transform="matrix(0.05,0,0,0.05,26.599999999999994,0)" xlink:href="#aQ"/></g><g id="ab"><use transform="matrix(0.05,0,0,0.05,0,0)" xlink:href="#ak"/><use transform="matrix(0.05,0,0,0.05,9,0)" xlink:href="#ao"/><use transform="matrix(0.05,0,0,0.05,19,0)" xlink:href="#au"/><use transform="matrix(0.05,0,0,0.05,24.95,0)" xlink:href="#aw"/><use transform="matrix(0.05,0,0,0.05,33.95,0)" xlink:href="#ai"/><use transform="matrix(0.05,0,0,0.05,37.900000000000006,0)" xlink:href="#an"/><use transform="matrix(0.05,0,0,0.05,46.900000000000006,0)" xlink:href="#ao"/><use transform="matrix(0.05,0,0,0.05,56.900000000000006,0)" xlink:href="#ak"/></g><g id="ac"><use transform="matrix(0.05,0,0,0.05,0,0)" xlink:href="#aT"/><use transform="matrix(0.05,0,0,0.05,5.95,0)" xlink:href="#ae"/><use transform="matrix(0.05,0,0,0.05,18.900000000000002,0)" xlink:href="#ar"/><use transform="matrix(0.05,0,0,0.05,30.900000000000002,0)" xlink:href="#ag"/><use transform="matrix(0.05,0,0,0.05,42.900000000000006,0)" xlink:href="#aA"/><use transform="matrix(0.05,0,0,0.05,53.85,0)" xlink:href="#aP"/><use transform="matrix(0.05,0,0,0.05,58.85,0)" xlink:href="#aM"/><use transform="matrix(0.05,0,0,0.05,68.85000000000001,0)" xlink:href="#aN"/></g><g id="ad"><use transform="matrix(0.05,0,0,0.05,0,0)" xlink:href="#ao"/><use transform="matrix(0.05,0,0,0.05,10,0)" xlink:href="#aj"/><use transform="matrix(0.05,0,0,0.05,20,0)" xlink:href="#aG"/><use transform="matrix(0.05,0,0,0.05,30,0)" xlink:href="#aH"/><use transform="matrix(0.05,0,0,0.05,40,0)" xlink:href="#ay"/><use transform="matrix(0.05,0,0,0.05,50,0)" xlink:href="#ai"/><use transform="matrix(0.05,0,0,0.05,53.95,0)" xlink:href="#aj"/><use transform="matrix(0.05,0,0,0.05,63.95,0)" xlink:href="#al"/><use transform="matrix(0.05,0,0,0.05,68.95,0)" xlink:href="#ak"/><use transform="matrix(0.05,0,0,0.05,77.95,0)" xlink:href="#aV"/></g></defs></g></svg>