<svg xmlns="http://www.w3.org/2000/svg" xmlns:xlink="http://www.w3.org/1999/xlink" xmlns:lucid="lucid" width="1531" height="1097.5"><g transform="translate(-260 -100)" lucid:page-tab-id="dwMx1pv.R5gH"><path d="M1547.5 269.22h-38.66c-2.07 0-3.73.95-3.73 2.1h46.08c0-1.15-1.66-2.1-3.7-2.1zM1508.87 273.43h38.65c2.02 0 3.68-.94 3.68-2.1h-46.06c.04 1.17 1.7 2.1 3.73 2.1z" fill-opacity="0"/><path d="M1551.17 271.34c0 1.16-1.6 2.1-3.66 2.1h-38.66c-2.08 0-3.66-.93-3.78-2.1h-66.12v2.1c0 2.9 4.15 5.26 9.27 5.26h103.46c5.12 0 9.27-2.35 9.27-5.26v-2.1zM1556.84 246.32l-5.97 3.72c0 1.33-1.94 2.4-4.26 2.4h-93.46c-2.3-.02-4.26-1.08-4.26-2.4l-5-3.72h-4.86v3.72c0 4.4 6.33 7.96 14.12 7.95h93.47c7.8 0 14.13-3.56 14.13-7.96v-3.72z" fill="#7d7c7c"/><path d="M1551.67 260.88c5 0 9.27 2.3 9.27 5.2V270.36c0 2.9-4.15 5.25-9.27 5.25H1448.2c-5.1 0-9.26-2.34-9.26-5.24v-4.24c0-2.88 4.15-5.24 9.27-5.22zm-4.15 9.47c2.07 0 3.66-.94 3.66-2.1 0-1.17-1.6-2.1-3.66-2.1h-38.68c-2.07 0-3.66.93-3.66 2.1 0 1.16 1.6 2.1 3.66 2.1h38.68M1546.6 209.35c7.8 0 14.13 3.55 14.13 7.93v29.7c0 4.37-6.33 7.92-14.12 7.92h-93.46c-7.8 0-14.12-3.55-14.12-7.92v-29.7c0-4.38 6.33-7.93 14.12-7.93zm4.27 37.63v-29.7c0-1.32-1.94-2.37-4.26-2.37h-93.46c-2.3 0-4.26 1.06-4.26 2.38v29.7c0 1.27 1.95 2.37 4.26 2.37h93.47c2.33 0 4.27-1.05 4.27-2.37" fill="#d2d3d3"/><use xlink:href="#a" transform="matrix(1,0,0,1,1438.9385787489512,278.704081632653) translate(8.275000000000006 14.4)"/><use xlink:href="#b" transform="matrix(1,0,0,1,1438.9385787489512,278.704081632653) translate(49.875 14.4)"/><path d="M520 312.22c0 16.43-18.82 29.77-42 29.77s-42-13.35-42-29.78c0-16.44 18.82-29.78 42-29.78s42 13.34 42 29.78z" fill="#9d5025"/><path d="M436 309.77h84v2.45h-84v-2.45z" fill="#9d5025"/><path d="M520 309.78c0 16.43-18.82 29.77-42 29.77s-42-13.34-42-29.77c0-16.44 18.82-29.78 42-29.78s42 13.34 42 29.78z" fill="#f58536"/><path d="M446.33 312.73v-.77c.32-3.6 3.17-6.62 7.78-8.2.46-6.64 8.43-11.77 17.86-11.42 5.88.2 10.8 2.32 13.8 5.93 4.8-1.44 10.3.14 12.33 3.52.3.48.5.88.62 1.37 6.33.88 10.88 5.18 10.88 8.8v.7c0 4.42-6.45 8.3-13.8 8.3h-35.74c-7.27.02-13.73-3.85-13.73-8.24z" fill="#fff"/><path d="M486.6 301.43l-2.68 1.3-1.37-2.1c-2.08-3.26-6.35-5.27-11.44-5.3h-.04c-6.95 0-12.64 4.03-12.64 9v1.66l-1.97.4c-3.34.95-5.53 3.03-5.8 5.58v.72c0 2.4 4.16 5.2 9.47 5.2h35.78c5.36 0 9.47-2.8 9.47-5.2v-.72c0-2.44-3.83-5.62-8.27-5.87l-2.4-.13-.17-1.7c0-.7-.33-1.3-.87-1.9-1.6-1.64-4.76-2.04-7.06-.9z" fill="#f58536"/><use xlink:href="#c" transform="matrix(1,0,0,1,436,342) translate(12.024999999999999 14.4)"/><use xlink:href="#d" transform="matrix(1,0,0,1,436,342) translate(9.024999999999999 36)"/><path d="M385.2 561.57c0 21.2-20.24 38.42-45.2 38.42-24.96 0-45.2-17.22-45.2-38.43 0-21.2 20.24-38.42 45.2-38.42 24.96 0 45.2 17.2 45.2 38.42z" fill="#9d5025"/><path d="M385.2 558.42c0 21.2-20.24 38.42-45.2 38.42-24.96 0-45.2-17.2-45.2-38.42 0-21.2 20.24-38.42 45.2-38.42 24.96 0 45.2 17.2 45.2 38.42z" fill="#f58536"/><path d="M301.98 547.2h16.42v22.43h-16.42V547.2zM354.45 531.9h14.65v12.44h-14.65V531.9zM354.45 552.2h14.65v12.44h-14.65V552.2zM354.45 572.5h14.65v12.46h-14.65V572.5z" fill="#fff"/><path d="M350.4 560.05l2.45-1 1.6-.67-1.6-.67-2.17-.9-6.54-2.75v2.74h-19.6l22.3-12.16 1.75 2.34 3.68-5.32 1.1-1.55 1.07-1.54-2.1.2-2.35.24-6.98.7 1.68 2.2-27.35 14.9-3 1.62 3.6 1.95 26.75 14.57-1.68 2.2 6.98.7 2.36.24 2.1.2-1.1-1.55-1.08-1.55-3.7-5.32-1.75 2.34-22.3-12.15h19.6v2.66l6.27-2.65z" fill="#fff"/><use xlink:href="#e" transform="matrix(1,0,0,1,294.7870567506222,600) translate(23.025 14.4)"/><use xlink:href="#f" transform="matrix(1,0,0,1,294.7870567506222,600) translate(62.025 14.4)"/><use xlink:href="#g" transform="matrix(1,0,0,1,294.7870567506222,600) translate(-7.25 36)"/><path d="M678.46 561.2c0 21.2-20.25 38.42-45.2 38.42-24.97 0-45.22-17.2-45.22-38.42 0-21.2 20.25-38.42 45.2-38.42 24.97 0 45.22 17.2 45.22 38.42z" fill="#9d5025"/><path d="M678.46 558.05c0 21.2-20.25 38.42-45.2 38.42-24.97 0-45.22-17.22-45.22-38.42 0-21.2 20.25-38.42 45.2-38.42 24.97 0 45.22 17.2 45.22 38.42z" fill="#f58536"/><path d="M595.23 546.83h16.42v22.43h-16.42v-22.43zM647.7 531.5h14.65v12.46H647.7V531.5zM647.7 551.82h14.65v12.45H647.7v-12.45zM647.7 572.14h14.65v12.45H647.7v-12.46z" fill="#fff"/><path d="M643.65 559.67l2.45-1 1.6-.66-1.6-.67-2.17-.9-6.54-2.75v2.74h-19.62l22.3-12.16 1.76 2.35 3.7-5.32 1.08-1.54 1.08-1.55-2.1.18-2.35.24-6.98.72 1.68 2.18-27.35 14.9-3 1.63 3.6 1.94 26.75 14.57-1.68 2.18 6.98.72 2.36.24 2.1.2-1.08-1.54-1.1-1.55-3.68-5.3-1.76 2.33-22.3-12.16h19.6v2.67l6.27-2.67z" fill="#fff"/><use xlink:href="#e" transform="matrix(1,0,0,1,588.037056750622,599.6260274844108) translate(23.025 14.4)"/><use xlink:href="#f" transform="matrix(1,0,0,1,588.037056750622,599.6260274844108) translate(62.025 14.4)"/><use xlink:href="#h" transform="matrix(1,0,0,1,588.037056750622,599.6260274844108) translate(2.049999999999997 36)"/><path d="M295.46 1059.84l-4.96 2.5v70.32l4.96 2.48 20.1-35.84-20.1-39.46z" fill="#9d5025"/><path d="M307.02 1132.43l-11.56 2.7v-75.3l11.56 2.65v69.95z" fill="#f58536"/><path d="M300.93 1057.08l6.1-3.04 28.97 46.58-28.96 40.32-6.1-3.04v-80.82z" fill="#9d5025"/><path d="M321.46 1136.86l-14.43 4.08v-86.9l14.43 4.08v78.74z" fill="#f58536"/><path d="M313.82 1050.63l7.66-3.85 42.72 58.92-42.72 42.5-7.66-3.85v-93.72z" fill="#9d5025"/><path d="M339.98 1141.4l-18.5 6.8v-101.42l18.5 6.8v87.82z" fill="#f58536"/><path d="M330.1 1042.42l9.88-4.92 46.23 63.36L340 1157.5l-9.87-4.92v-110.16z" fill="#9d5025"/><path d="M389.5 1132.66l-49.52 24.84v-120l49.5 24.84v70.32z" fill="#f58536"/><use xlink:href="#i" transform="matrix(1,0,0,1,290.5,1157.5) translate(6.049999999999997 14.4)"/><path d="M804.96 822.22L800 824.7v70.33l4.96 2.5 20.1-35.85-20.1-39.46z" fill="#9d5025"/><path d="M816.52 894.8l-11.56 2.72v-75.3l11.56 2.63v69.96z" fill="#f58536"/><path d="M810.43 819.45l6.1-3.04L845.5 863l-28.96 40.3-6.1-3.03v-80.82z" fill="#9d5025"/><path d="M830.96 899.23l-14.43 4.08v-86.9l14.43 4.1v78.73z" fill="#f58536"/><path d="M823.32 813l7.66-3.85 42.72 58.93-42.72 42.5-7.66-3.86V813z" fill="#9d5025"/><path d="M849.48 903.78l-18.5 6.8V809.14l18.5 6.8v87.83z" fill="#f58536"/><path d="M839.6 804.8l9.88-4.93 46.23 63.36-46.22 56.64-9.87-4.92V804.8z" fill="#9d5025"/><path d="M899 895.03l-49.52 24.84v-120l49.5 24.84v70.33z" fill="#f58536"/><use xlink:href="#j" transform="matrix(1,0,0,1,800,919.8739725155892) translate(1.25 14.4)"/><path d="M633.25 599.62V702.2c0 .06-.05.1-.1.1-.07 0-.12.06-.12.12v84.35" stroke="#000" stroke-width="2" fill="none"/><path d="M633.25 599.62h-1v-.06zm1 0h-1 1zM633.03 801.77l-4.63-14.27h9.27z"/><path d="M633.03 805l-6-18.5h12.02zm-3.26-16.5l3.26 10.03 3.26-10.03z"/><path d="M340 600v184.27" stroke="#000" stroke-width="2" fill="none"/><path d="M340 600h-1v-.06zm1 0h-1l1-.02zM340 799.27L335.36 785h9.28z"/><path d="M340 802.5l-6-18.5h12zm-3.26-16.5l3.26 10.03 3.26-10.03z"/><path d="M478 362v104.33c0 2.76 2.24 5 5 5h145.25c2.76 0 5 2.24 5 5v25.06" stroke="#666" stroke-width="2" fill="none"/><path d="M479 362h-2v-3h2zM633.25 516.4l-4.64-14.28h9.3z" fill="#666"/><path d="M633.25 519.63l-6-18.5h12zm-3.26-16.5l3.25 10.02 3.26-10.03z" fill="#666"/><path d="M478 362v104.7c0 2.77-2.24 5-5 5H345c-2.76 0-5 2.24-5 5v25.06" stroke="#666" stroke-width="2" fill="none"/><path d="M479 362h-2v-3h2zM340 516.76l-4.64-14.26h9.28z" fill="#666"/><path d="M340 520l-6-18.5h12zm-3.26-16.5l3.26 10.03 3.26-10.03z" fill="#666"/><path d="M895.5 1070.56c0 3.97-20.6 7.28-46 7.28s-46-3.25-46-7.28v-3.28l46-3.97 46 3.98zM849.5 1083.67l-46 40.75v3.28c0 4 20.6 7.3 46 7.3 25.38 0 46-3.24 46-7.3v-3.28z" fill="#19486f"/><path d="M849.5 1060c25.38 0 46 3.26 46 7.28 0 4.02-20.62 7.3-46 7.3-25.4 0-46-3.28-46-7.3s20.6-7.28 46-7.28z" fill="#2e73b8"/><path d="M849.5 1080.37c-25.4 0-46-3.22-46-7.27v51.34c0 4 20.6 7.27 46 7.27 25.38 0 46-3.27 46-7.26v-51.34c0 4.05-20.62 7.27-46 7.27z" fill="#2e73b8"/><path d="M820.1 1089.62h20.2l9.2 22.07 9.06-22.08H879v33.1h-13.02v-25.16h-.17l-11.07 25.15h-10.55l-11.07-25.14h-.1v25.15h-12.9z" fill="#fff"/><use xlink:href="#k" transform="matrix(1,0,0,1,803.5,1135) translate(12.074999999999996 14.4)"/><use xlink:href="#l" transform="matrix(1,0,0,1,803.5,1135) translate(54.975 14.4)"/><use xlink:href="#m" transform="matrix(1,0,0,1,803.5,1135) translate(12.524999999999999 36)"/><path d="M1622.08 505.6l-16.92 15.84-8.87-15.82 16.16-.7 9.62.67zM1644.16 505.6l17.1 15.93 8.7-15.9-16-.7-9.8.66z" fill="#fbbf93"/><path d="M1622.08 495l-16.92-15.9-8.87 15.92 16.3.68 9.48-.7zM1644.16 495l17.12-15.9 8.86 15.93-16.2.68-9.78-.7z" fill="#6b3a19"/><path d="M1644.16 495l17.1-.9v-15l-17.1 3.1V495z" fill="#9d5025"/><path d="M1670.14 495.02l-8.87-.9v-15l8.87 3.08v12.82z" fill="#f58536"/><path d="M1644.16 505.6l17.1.92v15l-17.1-3.1v-12.83z" fill="#9d5025"/><path d="M1669.97 505.64l-8.7.9v15l8.7-3.04v-12.86zM1622.08 495l-16.93-.9v-15l16.93 3.1V495z" fill="#f58536"/><path d="M1596.3 495.02l8.85-.9v-15l-8.86 3.08v12.82z" fill="#9d5025"/><path d="M1622.08 505.6l-16.93.92v15l16.93-3.1v-12.83z" fill="#f58536"/><path d="M1596.3 505.62l8.85.9v15l-8.86-3.07v-12.83z" fill="#9d5025"/><path d="M1650.84 507.58l-17.65-1.22-17.8 1.2 17.8 23.76 17.64-23.74z" fill="#fbbf93"/><path d="M1650.84 493.06l-17.65 1.23-17.8-1.2 17.8-23.78 17.64 23.74z" fill="#6b3a19"/><path d="M1650.84 493.07l-17.63-1.78V469.3l17.64 6.15v17.6z" fill="#f58536"/><path d="M1615.4 493.08l17.8-1.8v-21.96l-17.8 6.2v17.56z" fill="#9d5025"/><path d="M1650.84 507.57l-17.63 1.78v21.97l17.64-6.15v-17.6z" fill="#f58536"/><path d="M1615.4 507.56l17.8 1.8v21.96l-17.8-6.2v-17.56z" fill="#9d5025"/><use xlink:href="#n" transform="matrix(1,0,0,1,1596.2852850041963,531.3239795918367) translate(4.024999999999999 14.4)"/><use xlink:href="#o" transform="matrix(1,0,0,1,1596.2852850041963,531.3239795918367) translate(-7.400000000000006 36)"/><path d="M1633.2 551.32v77.05" stroke="#666" stroke-width="2" fill="none"/><path d="M1634.2 551.32h-2v-3h2zM1633.2 643.37l-4.62-14.26h9.27z" fill="#666"/><path d="M1633.22 646.6l-6.02-18.5h12.03zm-3.26-16.5l3.25 10.04 3.27-10.03z" fill="#666"/><path d="M1602.24 657.93l-5.95 2.18v38.23l5.94 2.17 14.58-21.28-14.58-21.3z" fill="#8c3123"/><path d="M1633.2 695l-30.98 5.5v-42.57l30.98 5.5 14.65 15.83L1633.2 695z" fill="#e05243"/><path d="M1633.2 695l31 5.5 5.34-20.73-5.34-21.84-31 5.5V695z" fill="#8c3123"/><path d="M1664.18 657.93l5.96 2.18v38.23l-5.96 2.17v-42.57z" fill="#e05243"/><path d="M1619.7 686.25l13.5 1.27 10.72-8.24-10.7-8.24-13.52 1.24v13.97z" fill="#8c3123"/><path d="M1646.72 665.5l-13.5 1.82-13.52-1.8 13.5-18.92 13.52 18.9z" fill="#5e1f18"/><path d="M1646.72 693l-13.5-1.8-13.52 1.8 13.5 18.93 13.52-18.92z" fill="#f2b0a9"/><path d="M1646.72 665.52l-13.5-2.44V646.6l13.5 4.94v13.98z" fill="#e05243"/><path d="M1619.7 665.52l13.5-2.44V646.6l-13.5 4.94v13.98z" fill="#8c3123"/><path d="M1633.2 711.93l13.52-4.94v-14l-13.5 2.45v16.48z" fill="#e05243"/><path d="M1633.2 711.93l-13.5-4.94v-14l13.5 2.45v16.48z" fill="#8c3123"/><path d="M1646.72 686.25l-13.5 1.27v-16.48l13.5 1.24v13.97z" fill="#e05243"/><use xlink:href="#p" transform="matrix(1,0,0,1,1596.2852850041963,711.9323093870464) translate(1.0249999999999986 14.4)"/><use xlink:href="#q" transform="matrix(1,0,0,1,1596.2852850041963,711.9323093870464) translate(38.975 14.4)"/><use xlink:href="#r" transform="matrix(1,0,0,1,1596.2852850041963,711.9323093870464) translate(3 36)"/><path d="M648.3 895.5v-17.63l-7.57-7.53-4.96-4.94 4.96-4.94 7.56-7.52V834.8h8.8v-5.7l-24.07-16.55-24.07 16.55v5.7h8.8V852.95l7.57 7.52 4.95 4.94-4.95 4.94-7.56 7.53v17.62l-8.8-5.38v5.8L633.02 920l24.06-24.08v-5.8l-8.8 5.37z" fill="#9d5025"/><path d="M619.04 865.38v-5.78l-24.06-6.77h-21.95v25.1h21.95v11.5l24.06-24.05zM693.02 852.83h-21.94L647 859.6v5.78l24.08 24.04v-11.5h21.94v-25.1z" fill="#9d5025"/><path d="M648.3 889.76v-17.7l-7.57-7.53-4.96-4.92 4.96-5 7.56-7.44v-18.13h8.8L633.02 805l-24.07 24.03h8.8v18.14l7.57 7.42 4.95 5-4.95 4.93-7.56 7.54v18.13h-8.8l24.06 24.03 24.06-24.03h-8.8v-.44z" fill="#f58536"/><path d="M619.04 859.6l-24.06-24.06v11.5h-21.95v25.12h21.95v11.5l24.06-24.06zM693.02 847.04h-21.94v-11.5L647 859.6l24.08 24.06v-11.5h21.94v-25.12z" fill="#f58536"/><use xlink:href="#s" transform="matrix(1,0,0,1,573.0336474538421,920) translate(9.549999999999997 14.4)"/><use xlink:href="#t" transform="matrix(1,0,0,1,573.0336474538421,920) translate(51.55 14.4)"/><path d="M355.25 893v-17.63l-7.55-7.53-4.96-4.94 4.96-4.94 7.55-7.52V832.3h8.8v-5.7L340 810.03l-24.07 16.55v5.7h8.8V850.45l7.56 7.52 4.95 4.94-4.96 4.94-7.56 7.53V893l-8.8-5.38v5.8l24.05 24.07 24.06-24.08v-5.8l-8.8 5.37z" fill="#9d5025"/><path d="M326 862.88v-5.78l-24.05-6.77H280v25.1h21.95v11.5L326 862.87zM400 850.33h-21.96l-24.06 6.77v5.78l24.06 24.04v-11.5H400v-25.1z" fill="#9d5025"/><path d="M355.25 887.26v-17.7l-7.55-7.53-4.96-4.92 4.96-5 7.55-7.44v-18.13h8.8L340 802.5l-24.07 24.03h8.8v18.14l7.56 7.42 4.95 5-4.96 4.93-7.56 7.54v18.13h-8.8l24.05 24.03 24.06-24.03h-8.8v-.44z" fill="#f58536"/><path d="M326 857.1l-24.05-24.06v11.5H280v25.12h21.95v11.5L326 857.1zM400 844.54h-21.96v-11.5l-24.06 24.06 24.06 24.06v-11.5H400v-25.12z" fill="#f58536"/><use xlink:href="#s" transform="matrix(1,0,0,1,280,917.5) translate(9.549999999999997 14.4)"/><use xlink:href="#t" transform="matrix(1,0,0,1,280,917.5) translate(51.55 14.4)"/><path d="M340 1019.27V937.5" stroke="#000" stroke-width="2" fill="none"/><path d="M340 1034.27l-4.64-14.26h9.28z"/><path d="M340 1037.5l-6-18.5h12zm-3.26-16.5l3.26 10.04 3.26-10.03zM341 937.5h-2v-3h2z"/><path d="M849.5 919.86v121.9" stroke="#000" stroke-width="2" fill="none"/><path d="M849.46 919.86h-.96v-.48zm1.04 0h-1l1-.5zM849.5 1056.76l-4.64-14.26h9.28z"/><path d="M849.5 1060l-6-18.5h12zm-3.26-16.5l3.26 10.03 3.26-10.03z"/><path d="M1392.3 900.62l-8.38-2.9-7.9-11.1 8.82.9 7.45 13.1z" fill="#b8852e"/><path d="M1392.3 900.62l5.98-15.45-5.6-.97-7.85 3.33 7.46 13.1z" fill="#d9a741"/><path d="M1372.94 893.3l-4.7-1.63-5.18-7.28 5.5 1.05 4.38 7.85z" fill="#b8852e"/><path d="M1372.94 893.3l3.37-8.7-3.14-.55-4.6 1.4 4.38 7.85z" fill="#d9a741"/><path d="M1361 884.6l4.83 1.23 23.53-25.24-23.53-28.24-4.82 3v49.24z" fill="#876929"/><path d="M1384.4 837.33v46.36l-18.6 2.13v-53.47l18.6 4.97z" fill="#d9a741"/><path d="M1371.75 887.4l8.25 2.05 22.75-32.5-22.75-33.42-8.25 5.14v58.73z" fill="#876929"/><path d="M1427.06 841.92V882l-47.06 7.45v-65.92l47.06 18.4z" fill="#d9a741"/><path d="M1418.54 910.16l-11.9-4.1-11.23-15.8 12.54 1.3 10.6 18.6z" fill="#b8852e"/><path d="M1418.53 910.16l8.52-21.94-7.97-1.4-11.13 4.73 10.58 18.6z" fill="#d9a741"/><path d="M1389.36 891.64l12.1 2.87 16.47-42.16-16.46-42.17-12.1 7.6v73.87z" fill="#876929"/><path d="M1401.5 894.5l40.5-9.95v-49.42l-40.5-24.96v84.34z" fill="#d9a741"/><use xlink:href="#u" transform="matrix(1,0,0,1,1361.0099,910.1666666666666) translate(2.5249999999999986 14.4)"/><use xlink:href="#v" transform="matrix(1,0,0,1,1361.0099,910.1666666666666) translate(7.524999999999999 14.4)"/><use xlink:href="#w" transform="matrix(1,0,0,1,1361.0099,910.1666666666666) translate(40.525 14.4)"/><use xlink:href="#x" transform="matrix(1,0,0,1,1361.0099,910.1666666666666) translate(16.05 36)"/><use xlink:href="#y" transform="matrix(1,0,0,1,1361.0099,910.1666666666666) translate(24.025 57.6)"/><use xlink:href="#z" transform="matrix(1,0,0,1,1361.0099,910.1666666666666) translate(-4.425000000000004 79.20000000000002)"/><use xlink:href="#A" transform="matrix(1,0,0,1,1361.0099,910.1666666666666) translate(15.549999999999997 100.80000000000001)"/><path d="M1387.58 507.37l13.94 1.44 12.86-8.95-12.86-10.7-13.94 1.46v16.77zM1426.1 474.52l7.9-1.7 5.82 20.93-5.82 27.63-7.9-.97v-45.88z" fill="#692f56"/><path d="M1434 519.46l6.5 2.97V475.6l-6.5-2.78v46.64z" fill="#ad688b"/><path d="M1426.1 513.74l7.9.98-32.5 24.27-8.7-18.22 33.3-7.04z" fill="#cfb2c1"/><path d="M1376.92 523.45l-7.92 1.72-4.5-47.67 12.42 1.66v44.3z" fill="#ad688b"/><path d="M1376.92 484.26l-7.9-1 32.5-24.26 8.68 18.2-33.28 7.06z" fill="#512843"/><path d="M1410.2 520.77l-21.06-4.45-8.4 1.36 20.8 20.55 8.66-17.46z" fill="#cfb2c1"/><path d="M1392.8 477.2l8.67-18.18 20.8 21.3-8.4 1.34-21.06-4.46z" fill="#512843"/><path d="M1415.43 507.37l-13.92 1.44v-19.64l13.93 1.45v16.77zM1440.5 522.43l-39 16.56v-16l34.64-8.83 2.38.6 2 7.66z" fill="#ad688b"/><path d="M1380.75 517.7l20.75 5.3v15.97l-20.75-8.8v-12.48z" fill="#692f56"/><path d="M1422.27 480.3l-20.76-5.3v-15.98l20.77 8.8v12.48z" fill="#ad688b"/><path d="M1362.5 475.57l39-16.57v16l-39 9.93v-9.36z" fill="#692f56"/><path d="M1369 479.13l-6.5-3.57v46.83l6.5 2.77v-46.04z" fill="#692f56"/><use xlink:href="#n" transform="matrix(1,0,0,1,1362.5099,539) translate(6.024999999999999 14.4)"/><use xlink:href="#B" transform="matrix(1,0,0,1,1362.5099,539) translate(8.049999999999997 36)"/><path d="M1342.77 870.17h-272.6c-.1 0-.16-.07-.16-.15 0-.08-.06-.15-.14-.15H899" fill="none"/><path d="M1342.77 870.17h-10.1m-10.1 0h-20.18m-10.1 0h-20.2m-10.1 0h-20.2m-10.1 0h-20.2m-10.08 0h-20.2m-10.1 0h-20.2m-10.1 0h-20.18m-10.1 0h-20.2m-10.1 0h-10.08l-.1-.05-.05-.1-.03-.1-.1-.05h-9.5m-9.5 0h-18.98m-9.5 0h-19m-9.48 0h-19m-9.48 0h-19m-9.48 0h-18.98m-9.5 0h-9.5" stroke="#000" stroke-width="2" fill="none"/><path d="M1357.77 870.17l-14.26 4.63v-9.27z"/><path d="M1361 870.17l-18.5 6v-12.02zm-16.5 3.26l10.04-3.26-10.03-3.26z"/><path/><path d="M1401.5 559v69.36" fill="none"/><path d="M1401.5 559v11.56m0 11.56v23.12m0 11.56v11.56" stroke="#000" stroke-width="2" fill="none"/><path d="M1402.5 559h-2v-3h2zM1401.5 643.36l-4.63-14.26h9.28z"/><path d="M1401.5 646.6l-6-18.5h12.02zm-3.25-16.5l3.26 10.03 3.27-10.03z"/><path d="M1499.94 298.7v56.62c0 2.77-2.24 5-5 5h-88.43c-2.75 0-5 2.24-5 5v75.44" stroke="#3aa6dd" stroke-width="2" fill="none"/><path d="M1500.94 298.7h-2v-3h2zM1401.5 455.76l-4.63-14.26h9.28z" fill="#3aa6dd"/><path d="M1401.5 459l-6-18.5h12.02zm-3.25-16.5l3.26 10.03 3.27-10.03z" fill="#3aa6dd"/><path d="M1653.85 870.35v22.18h-64.77v-22.18z" fill="#876929"/><path d="M1588.2 869.52h64.63v21.72h-64.64z" fill="#fff"/><path d="M1653.85 841.58v48.1h-64.77v-29.53c5.7 1.35 11.14-.87 14.9-6.1L1621 867.1l32.85-25.54z" fill="#d9a741"/><path d="M1605.14 848.94v2.86l15.9 11.94 30.3-23.57v-2.85z" fill="#876929"/><path d="M1607.52 837.32h43.8l-30.3 23.55-15.9-11.94c2-3.58 2.77-7.35 2.4-11.6zM1603.06 833.78c1.56 3.63 1.73 7.82.5 11.62-.63 2.2-1.84 3.84-3.6 4.9-.56.37-1.2.55-1.83.55-1.68 0-3.1-.9-4.04-2.5l-.4-.7c-.93 1.32-2.17 1.98-3.6 1.86-1.72.16-3.18-1.36-3.3-3.35 0-.2 0-.4.02-.63-.04-1.84.86-3.45 2.32-4.16 1.4-.53 2.63-.8 4.1-.86v-.36c.07-.65 0-1.22-.25-1.84-.33-.45-.8-.7-1.25-.66-.83-.06-1.6.6-1.76 1.55-.03.23-.2.4-.4.44l-2.12-.27c-.22-.06-.36-.27-.34-.54.5-3 2.8-3.92 4.9-3.92 1.27-.02 2.36.42 3.34 1.35 1.02 1.16.95 2.7.95 4.4v3.98c0 .86.3 1.67.8 2.32.25.2.52.33.83.33 1.03 0 2.2-1.2 2.83-3.1.97-2.85.9-6.03-.18-8.83-1.5-3.27-5.02-5.08-8.46-5.08-2.05-.06-3.82.56-5.5 1.93-4.56 3.96-5.7 11.36-2.6 16.98 2.06 3.6 5.27 5.56 8.98 5.47 2.02 0 4-.62 5.73-1.84.44-.3 1.02-.14 1.3.4v.02c.23.5.1 1.16-.35 1.46h-.03c-2.05 1.5-4.44 2.3-6.86 2.26-4.2.12-8.18-2.3-10.6-6.36-3.9-6.75-2.6-15.82 2.95-20.73 2.04-1.78 4.55-2.7 7.08-2.64.88 0 1.64.1 2.5.27 3.57.54 6.42 2.7 8.28 6.3zm-10.26 12.07c.34-.83.48-1.78.4-2.7v-.54c-1.57 0-3.26.4-3.26 2.57 0 1.1.5 1.84 1.34 1.84.66-.02 1.22-.5 1.52-1.18v.03z" fill="#d9a741"/><use xlink:href="#C" transform="matrix(1,0,0,1,1580,892.540639182256) translate(16.85 14.4)"/><use xlink:href="#D" transform="matrix(1,0,0,1,1580,892.540639182256) translate(19 36)"/><path d="M1442 870.17h72.95c.08 0 .15-.07.15-.15 0-.08.06-.15.14-.15h54.7" fill="none"/><path d="M1442 870.17h12.16m12.16 0h24.3m12.17 0h12.15l.1-.05.05-.1.04-.1.1-.05h9.12m9.12 0h18.24m9.12 0h9.1" stroke="#000" stroke-width="2" fill="none"/><path/><path d="M1584.95 869.87l-14.26 4.64v-9.26z"/><path d="M1588.2 869.87l-18.5 6.02v-12.04zm-16.5 3.26l10.02-3.26-10.03-3.25z"/><path d="M1438.44 680.55c0 17.32-16.55 31.38-36.93 31.38-20.37 0-36.92-14.06-36.92-31.38s16.55-31.38 36.93-31.38c20.4 0 36.94 14.06 36.94 31.38z" fill="#9d5025"/><path d="M1364.58 677.97h73.86v2.58h-73.86v-2.58z" fill="#9d5025"/><path d="M1438.44 677.98c0 17.32-16.55 31.37-36.93 31.37-20.37 0-36.92-14.05-36.92-31.37s16.55-31.38 36.93-31.38c20.4 0 36.94 14.06 36.94 31.38z" fill="#f58536"/><path d="M1425.53 693.4l-2.88-6.42-6.4 2.1-9.14-20.4-2.54-5.6-1.2-2.68-1.86-4.16h-12.16v6.83h6.6l2.3 5.08-19.1 28.87h9.23l13.6-20.58 9.64 21.46 2.33-.75 5.2-1.67 6.4-2.08z" fill="#fff"/><use xlink:href="#E" transform="matrix(1,0,0,1,1364.581221251049,711.9323093870464) translate(4.524999999999999 14.4)"/><path d="M1401.5 711.93v80.02" fill="none"/><path d="M1401.5 711.93v8.9m0 8.88v17.8m0 8.88v17.78m0 8.9v8.9" stroke="#000" stroke-width="2" fill="none"/><path d="M1401.5 711.93h-1v-.07zm1 0h-1l1-.04zM1401.5 806.95l-4.63-14.27h9.28z"/><path d="M1401.5 810.18l-6-18.5h12.02zm-3.25-16.5l3.26 10.03 3.27-10.02z"/><path d="M1043.54 323.88l-6.3 2.65v46.8l6.3 2.67 15.4-26.06-15.4-26.06z" fill="#8c3123"/><path d="M1076.24 369.26l-32.72 6.73v-52.12l32.72 6.72 15.46 19.38-15.46 19.28z" fill="#e05243"/><path d="M1076.25 369.26l32.72 6.73 5.64-25.4-5.63-26.72-32.72 6.72v38.66z" fill="#8c3123"/><path d="M1108.96 323.88l6.28 2.65v46.8l-6.28 2.67v-52.12z" fill="#e05243"/><path d="M1061.98 358.55l14.27 1.56 11.3-10.08-11.3-10.1-14.27 1.52v17.1z" fill="#8c3123"/><path d="M1090.5 333.16l-14.26 2.2-14.26-2.2 14.26-23.16 14.27 23.16z" fill="#5e1f18"/><path d="M1090.5 366.83l-14.26-2.23-14.26 2.23 14.26 23.16 14.27-23.17z" fill="#f2b0a9"/><path d="M1090.52 333.16l-14.27-3V310l14.27 6.04v17.12z" fill="#e05243"/><path d="M1061.98 333.16l14.26-3V310l-14.26 6.04v17.12z" fill="#8c3123"/><path d="M1076.25 390l14.27-6.06v-17.12l-14.27 3v20.17z" fill="#e05243"/><path d="M1076.24 390l-14.26-6.06v-17.12l14.26 3v20.17z" fill="#8c3123"/><path d="M1090.52 358.55l-14.27 1.56v-20.18l14.27 1.52v17.1z" fill="#e05243"/><use xlink:href="#F" transform="matrix(1,0,0,1,1037.25,389.99503275177096) translate(11.55 14.4)"/><use xlink:href="#G" transform="matrix(1,0,0,1,1037.25,389.99503275177096) translate(-2.450000000000003 36)"/><path d="M816.8 323.88l-6.3 2.65v46.8l6.3 2.67 15.38-26.06-15.4-26.06z" fill="#8c3123"/><path d="M849.5 369.26L816.76 376v-52.12l32.72 6.72 15.45 19.38-15.46 19.28z" fill="#e05243"/><path d="M849.5 369.26l32.72 6.73 5.64-25.4-5.64-26.72-32.72 6.72v38.66z" fill="#8c3123"/><path d="M882.2 323.88l6.3 2.65v46.8l-6.3 2.67v-52.12z" fill="#e05243"/><path d="M835.23 358.55l14.27 1.56 11.3-10.08-11.3-10.1-14.27 1.52v17.1z" fill="#8c3123"/><path d="M863.76 333.16l-14.27 2.2-14.27-2.2L849.5 310l14.26 23.16z" fill="#5e1f18"/><path d="M863.76 366.83l-14.27-2.23-14.27 2.23L849.5 390l14.26-23.17z" fill="#f2b0a9"/><path d="M863.77 333.16l-14.27-3V310l14.27 6.04v17.12z" fill="#e05243"/><path d="M835.23 333.16l14.26-3V310l-14.27 6.04v17.12z" fill="#8c3123"/><path d="M849.5 390l14.27-6.06v-17.12l-14.27 3v20.17z" fill="#e05243"/><path d="M849.5 390l-14.27-6.06v-17.12l14.26 3v20.17z" fill="#8c3123"/><path d="M863.77 358.55l-14.27 1.56v-20.18l14.27 1.52v17.1z" fill="#e05243"/><use xlink:href="#H" transform="matrix(1,0,0,1,810.5,389.99503275177096) translate(11.55 14.4)"/><use xlink:href="#I" transform="matrix(1,0,0,1,810.5,389.99503275177096) translate(2.549999999999997 36)"/><path d="M1106.25 571.62c0 17.32-13.44 31.37-30 31.37-16.56 0-30-14.06-30-31.38s13.44-31.38 30-31.38c16.56 0 30 14.06 30 31.38z" fill="#9d5025"/><path d="M1046.25 569.04h60v2.57h-60v-2.56z" fill="#9d5025"/><path d="M1106.25 569.04c0 17.32-13.44 31.38-30 31.38-16.56 0-30-14.06-30-31.38s13.44-31.37 30-31.37c16.56 0 30 14.05 30 31.37z" fill="#f58536"/><path d="M1095.76 584.47l-2.33-6.42-5.2 2.08-7.43-20.37-2.07-5.62-.98-2.67-1.5-4.17H1066.36v6.84h5.35l1.88 5.08-15.52 28.87h7.5l11.04-20.6 7.84 21.47 1.88-.75 4.22-1.67 5.2-2.08z" fill="#fff"/><use xlink:href="#J" transform="matrix(1,0,0,1,1046.25,603) translate(-1.4500000000000028 14.4)"/><path d="M744.25 351.28c0 17.32-14.74 31.38-32.9 31.38-18.15 0-32.9-14.06-32.9-31.38s14.75-31.38 32.9-31.38c18.16 0 32.9 14.06 32.9 31.38z" fill="#9d5025"/><path d="M678.46 348.7h65.8v2.58h-65.8v-2.58z" fill="#9d5025"/><path d="M744.25 348.7c0 17.32-14.74 31.38-32.9 31.38-18.15 0-32.9-14.06-32.9-31.38s14.75-31.37 32.9-31.37c18.16 0 32.9 14.05 32.9 31.37z" fill="#f58536"/><path d="M732.75 364.13l-2.56-6.42-5.7 2.1-8.15-20.38-2.28-5.62-1.07-2.67-1.65-4.16h-10.83v6.83h5.87l2.05 5.08-17.02 28.87h8.22l12.1-20.58 8.6 21.46 2.07-.75 4.63-1.67 5.7-2.07z" fill="#fff"/><use xlink:href="#K" transform="matrix(1,0,0,1,678.4629432493776,382.6616994184376) translate(13.5 14.4)"/><use xlink:href="#L" transform="matrix(1,0,0,1,678.4629432493776,382.6616994184376) translate(2.5500000000000007 36)"/><use xlink:href="#M" transform="matrix(1,0,0,1,678.4629432493776,382.6616994184376) translate(43.45 36)"/><path d="M742.94 360h49.32" stroke="#000" stroke-width="2" fill="none"/><path d="M742.94 361h-.35l.27-.72.07-.28zM807.26 360L793 364.63v-9.27z"/><path d="M810.5 360l-18.5 6V354zm-16.5 3.25l10.03-3.25-10.03-3.26z"/><path d="M879.5 572.95c0 17.32-13.44 31.37-30 31.37-16.56 0-30-14.05-30-31.37s13.44-31.38 30-31.38c16.56 0 30 14.06 30 31.38z" fill="#9d5025"/><path d="M819.5 570.37h60v2.57h-60v-2.57z" fill="#9d5025"/><path d="M879.5 570.37c0 17.32-13.44 31.38-30 31.38-16.56 0-30-14.06-30-31.38s13.44-31.37 30-31.37c16.56 0 30 14.05 30 31.37z" fill="#f58536"/><path d="M869 585.8l-2.32-6.42-5.2 2.08-7.43-20.37-2.07-5.64-.98-2.66-1.5-4.17H839.6v6.83h5.35l1.88 5.1-15.52 28.86h7.5l11.04-20.58 7.84 21.45 1.9-.76 4.2-1.66 5.2-2.08z" fill="#fff"/><use xlink:href="#N" transform="matrix(1,0,0,1,819.5,604.3283660851043) translate(0.5249999999999986 14.4)"/><use xlink:href="#O" transform="matrix(1,0,0,1,819.5,604.3283660851043) translate(11.024999999999999 36)"/><path d="M849.5 390v130.76" stroke="#000" stroke-width="2" fill="none"/><path d="M849.5 390h-1v-.43zm0 0l-1-1.62v-1.4h1zm0 0v-.03zm1 0h-1l1-.44zM849.5 535.76l-4.64-14.27h9.28z"/><path d="M849.5 539l-6-18.5h12zm-3.26-16.5l3.26 10.02 3.26-10.03z"/><path d="M849.5 604.32v177.33" stroke="#000" stroke-width="2" fill="none"/><path d="M849.5 604.32h-1v-.08zm1 0h-1l1-.07zM849.5 796.65l-4.64-14.27h9.28z"/><path d="M849.5 799.88l-6-18.5h12zm-3.26-16.5l3.26 10.03 3.26-10.02z"/><path d="M1076.25 621.23v75.2c0 2.77-2.24 5-5 5H854.5c-2.76 0-5 2.25-5 5v93.45" stroke="#000" stroke-width="2" fill="none"/><path d="M1080.9 620.5h-9.3l4.65-14.27z"/><path d="M1082.26 621.5h-12.02l6-18.5zm-9.27-2h6.5l-3.25-10.03zM850.5 800.4l-1-.52h1zm-2-.04v-.48h.96z"/><path d="M711.36 299.1V200" stroke="#3aa6dd" stroke-width="2" fill="none"/><path d="M711.36 314.1l-4.64-14.27H716z" fill="#3aa6dd"/><path d="M711.36 317.33l-6.02-18.5h12.03zm-3.26-16.5l3.26 10.03 3.26-10.03z" fill="#3aa6dd"/><path d="M1076.25 537.67V428.23" stroke="#000" stroke-width="2" fill="none"/><path d="M1077.25 537.75l-1-.08-1 .06v-.06h2zM1080.9 427.5h-9.3l4.65-14.27z"/><path d="M1082.26 428.5h-12.02l6-18.5zm-9.27-2h6.5l-3.25-10.03z"/><path d="M1499.94 298.7V355c0 2.76 2.24 5 5 5h123.27c2.78 0 5 2.24 5 5v86.12" stroke="#3aa6dd" stroke-width="2" fill="none"/><path d="M1500.94 298.7h-2v-3h2zM1633.2 466.12l-4.62-14.27h9.27z" fill="#3aa6dd"/><path d="M1633.22 469.33v.02-.02h-.02l-6-18.48h12.03zm-3.26-16.48l3.25 10.03 3.27-10.03z" fill="#3aa6dd"/><path d="M375.25 179.87H346.6c-1.54 0-2.77.95-2.77 2.1h34.15c0-1.15-1.23-2.1-2.73-2.1zM346.62 184.07h28.65c1.5 0 2.73-.93 2.73-2.08h-34.15c.04 1.15 1.27 2.07 2.77 2.07z" fill-opacity="0"/><path d="M377.97 182c0 1.15-1.17 2.08-2.7 2.08H346.6c-1.54 0-2.72-.92-2.8-2.1h-49v2.1c0 2.9 3.06 5.27 6.86 5.27h76.67c3.8 0 6.87-2.35 6.87-5.27v-2.1zM382.17 156.96l-4.42 3.73c0 1.32-1.44 2.38-3.16 2.38h-69.3c-1.7 0-3.14-1.07-3.14-2.4l-3.7-3.72h-3.6v3.73c0 4.4 4.68 7.95 10.45 7.94h69.3c5.77 0 10.46-3.55 10.46-7.95v-3.74z" fill="#7d7c7c"/><path d="M378.34 171.53c3.7-.02 6.87 2.3 6.87 5.2V181c0 2.9-3.06 5.25-6.86 5.25h-76.68c-3.8 0-6.87-2.34-6.87-5.24v-4.23c0-2.9 3.06-5.24 6.86-5.23zm-3.07 9.47c1.53 0 2.7-.95 2.7-2.1 0-1.17-1.17-2.12-2.7-2.12H346.6c-1.54 0-2.7.95-2.7 2.1 0 1.17 1.16 2.12 2.7 2.12h28.67M374.6 120c5.77 0 10.46 3.55 10.46 7.93v29.7c0 4.37-4.7 7.92-10.47 7.92h-69.3c-5.76 0-10.45-3.55-10.45-7.93v-29.7c0-4.37 4.7-7.92 10.46-7.92zm3.15 37.62v-29.7c0-1.32-1.44-2.36-3.16-2.36h-69.3c-1.7 0-3.14 1.04-3.14 2.37v29.7c0 1.27 1.44 2.36 3.15 2.36h69.3c1.7 0 3.15-1.05 3.15-2.38" fill="#d2d3d3"/><use xlink:href="#P" transform="matrix(1,0,0,1,294.7870567506222,189.3520408163265) translate(27.200000000000003 14.4)"/><use xlink:href="#b" transform="matrix(1,0,0,1,294.7870567506222,189.3520408163265) translate(13.575 36)"/><path d="M383.57 164.68H473c2.76 0 5 2.23 5 5v92.08" stroke="#3aa6dd" stroke-width="2" fill="none"/><path d="M383.57 165.68h-.87l.22-.17.65-.82zm-2.64-1.75l-.36.15v-.4h.7zM478 276.76l-4.64-14.26h9.28z" fill="#3aa6dd"/><path d="M478 280l-6-18.5h12zm-3.26-16.5l3.26 10.03 3.26-10.03z" fill="#3aa6dd"/><path d="M1105 580.33h123c2.76 0 5 2.24 5 5v279.84c0 2.76 2.24 5 5 5h104.77" fill="none"/><path d="M1105 580.33h10.24m10.25 0h20.5m10.24 0h20.5m10.25 0h20.5m10.25 0H1228l2.95.97 1.8 2.45.25 1.58v10.37m0 10.36v20.73m0 10.35v20.73m0 10.37v20.73m0 10.36v20.73m0 10.36v20.73m0 10.36v20.73m0 10.37v20.73m0 10.36v20.74m0 10.36v10.37l.96 2.95 2.46 1.8 1.58.25h11.64m11.64 0h23.28m11.65 0h23.3m11.63 0h11.64" stroke="#000" stroke-width="2" fill="none"/><path d="M1105 581.33h-.26l.25-1zM1357.77 870.17l-14.26 4.63v-9.27z"/><path d="M1361 870.17l-18.5 6v-12.02zm-16.5 3.26l10.04-3.26-10.03-3.26z"/><path d="M849.5 291.76V200" stroke="#3aa6dd" stroke-width="2" fill="none"/><path d="M849.5 306.76l-4.64-14.27h9.28z" fill="#3aa6dd"/><path d="M849.5 310l-6-18.5h12zm-3.26-16.5l3.26 10.02 3.26-10.03z" fill="#3aa6dd"/><path d="M389.5 1107.5h395.76" stroke="#000" stroke-width="2" fill="none"/><path/><path d="M800.26 1107.5l-14.26 4.64v-9.28z"/><path d="M803.5 1107.5l-18.5 6v-12zm-16.5 3.26l10.03-3.26-10.03-3.26z"/><path d="M693.02 872.5h88.74" stroke="#000" stroke-width="2" fill="none"/><path/><path d="M796.76 872.5l-14.26 4.64v-9.28z"/><path d="M800 872.5l-18.5 6v-12zm-16.5 3.26l10.03-3.26-10.03-3.26z"/><path d="M1240 351.13c0 15.38-13.44 27.86-30 27.86-16.56 0-30-12.5-30-27.87 0-15.37 13.44-27.85 30-27.85 16.56 0 30 12.48 30 27.85z" fill="#9d5025"/><path d="M1180 348.85h60v2.28h-60v-2.28z" fill="#9d5025"/><path d="M1240 348.85c0 15.38-13.44 27.85-30 27.85-16.56 0-30-12.47-30-27.85s13.44-27.85 30-27.85c16.56 0 30 12.47 30 27.85z" fill="#f58536"/><path d="M1229.5 362.54l-2.32-5.7-5.2 1.86-7.43-18.1-2.07-4.98-.98-2.37-1.5-3.7H1200.1v6.07h5.35l1.88 4.5-15.52 25.64h7.5l11.04-18.27 7.84 19.04 1.9-.67 4.2-1.48 5.2-1.86z" fill="#fff"/><g><use xlink:href="#Q" transform="matrix(1,0,0,1,1180,378.99503275177096) translate(-2.4750000000000014 14.4)"/><use xlink:href="#R" transform="matrix(1,0,0,1,1180,378.99503275177096) translate(9 36)"/><use xlink:href="#S" transform="matrix(1,0,0,1,1180,378.99503275177096) translate(-13.424999999999997 57.6)"/><use xlink:href="#T" transform="matrix(1,0,0,1,1180,378.99503275177096) translate(12 79.20000000000002)"/><use xlink:href="#U" transform="matrix(1,0,0,1,1180,378.99503275177096) translate(3.0249999999999986 100.80000000000001)"/></g><path d="M1344.27 509h-38.8c-2.77 0-5-2.24-5-5V365c0-2.77-2.24-5-5-5h-38.82" stroke="#000" stroke-width="2" fill="none"/><path d="M1359.27 509l-14.26 4.64v-9.28z"/><path d="M1362.5 509l-18.5 6v-12zm-16.5 3.26l10.04-3.26-10.03-3.26zM1255.92 364.63l-14.27-4.63 14.27-4.64z"/><path d="M1256.92 366l-18.5-6 18.5-6.02zm-12.03-6l10.02 3.25v-6.5z"/><path d="M1653.85 869.87h87.9" stroke="#3aa6dd" stroke-width="2" fill="none"/><path fill="#3aa6dd"/><path d="M1756.76 869.87l-14.26 4.64v-9.26z" stroke="#3aa6dd" stroke-width="2" fill="#3aa6dd"/><defs><path d="M266 0h-40l-56-210L115 0H75L2-248h35L96-30l15-64 43-154h32l59 218 59-218h35" id="V"/><path d="M100-194c63 0 86 42 84 106H49c0 40 14 67 53 68 26 1 43-12 49-29l28 8c-11 28-37 45-77 45C44 4 14-33 15-96c1-61 26-98 85-98zm52 81c6-60-76-77-97-28-3 7-6 17-6 28h103" id="W"/><path d="M115-194c53 0 69 39 70 98 0 66-23 100-70 100C84 3 66-7 56-30L54 0H23l1-261h32v101c10-23 28-34 59-34zm-8 174c40 0 45-34 45-75 0-40-5-75-45-74-42 0-51 32-51 76 0 43 10 73 51 73" id="X"/><g id="a"><use transform="matrix(0.05,0,0,0.05,0,0)" xlink:href="#V"/><use transform="matrix(0.05,0,0,0.05,16.599999999999998,0)" xlink:href="#W"/><use transform="matrix(0.05,0,0,0.05,26.599999999999994,0)" xlink:href="#X"/></g><path d="M114-163C36-179 61-72 57 0H25l-1-190h30c1 12-1 29 2 39 6-27 23-49 58-41v29" id="Y"/><path d="M100-194c62-1 85 37 85 99 1 63-27 99-86 99S16-35 15-95c0-66 28-99 85-99zM99-20c44 1 53-31 53-75 0-43-8-75-51-75s-53 32-53 75 10 74 51 75" id="Z"/><path d="M206 0h-36l-40-164L89 0H53L-1-190h32L70-26l43-164h34l41 164 42-164h31" id="aa"/><path d="M135-143c-3-34-86-38-87 0 15 53 115 12 119 90S17 21 10-45l28-5c4 36 97 45 98 0-10-56-113-15-118-90-4-57 82-63 122-42 12 7 21 19 24 35" id="ab"/><g id="b"><use transform="matrix(0.05,0,0,0.05,0,0)" xlink:href="#X"/><use transform="matrix(0.05,0,0,0.05,10,0)" xlink:href="#Y"/><use transform="matrix(0.05,0,0,0.05,15.949999999999998,0)" xlink:href="#Z"/><use transform="matrix(0.05,0,0,0.05,25.950000000000003,0)" xlink:href="#aa"/><use transform="matrix(0.05,0,0,0.05,38.9,0)" xlink:href="#ab"/><use transform="matrix(0.05,0,0,0.05,47.9,0)" xlink:href="#W"/><use transform="matrix(0.05,0,0,0.05,57.900000000000006,0)" xlink:href="#Y"/></g><path d="M33 0v-248h34V0H33" id="ac"/><path d="M117-194c89-4 53 116 60 194h-32v-121c0-31-8-49-39-48C34-167 62-67 57 0H25l-1-190h30c1 10-1 24 2 32 11-22 29-35 61-36" id="ad"/><path d="M59-47c-2 24 18 29 38 22v24C64 9 27 4 27-40v-127H5v-23h24l9-43h21v43h35v23H59v120" id="ae"/><g id="c"><use transform="matrix(0.05,0,0,0.05,0,0)" xlink:href="#ac"/><use transform="matrix(0.05,0,0,0.05,5,0)" xlink:href="#ad"/><use transform="matrix(0.05,0,0,0.05,15,0)" xlink:href="#ae"/><use transform="matrix(0.05,0,0,0.05,20,0)" xlink:href="#W"/><use transform="matrix(0.05,0,0,0.05,30,0)" xlink:href="#Y"/><use transform="matrix(0.05,0,0,0.05,35.95,0)" xlink:href="#ad"/><use transform="matrix(0.05,0,0,0.05,45.95,0)" xlink:href="#W"/><use transform="matrix(0.05,0,0,0.05,55.95,0)" xlink:href="#ae"/></g><path d="M177-190C167-65 218 103 67 71c-23-6-38-20-44-43l32-5c15 47 100 32 89-28v-30C133-14 115 1 83 1 29 1 15-40 15-95c0-56 16-97 71-98 29-1 48 16 59 35 1-10 0-23 2-32h30zM94-22c36 0 50-32 50-73 0-42-14-75-50-75-39 0-46 34-46 75s6 73 46 73" id="af"/><path d="M141-36C126-15 110 5 73 4 37 3 15-17 15-53c-1-64 63-63 125-63 3-35-9-54-41-54-24 1-41 7-42 31l-33-3c5-37 33-52 76-52 45 0 72 20 72 64v82c-1 20 7 32 28 27v20c-31 9-61-2-59-35zM48-53c0 20 12 33 32 33 41-3 63-29 60-74-43 2-92-5-92 41" id="ag"/><path d="M179-190L93 31C79 59 56 82 12 73V49c39 6 53-20 64-50L1-190h34L92-34l54-156h33" id="ah"/><g id="d"><use transform="matrix(0.05,0,0,0.05,0,0)" xlink:href="#af"/><use transform="matrix(0.05,0,0,0.05,10,0)" xlink:href="#ag"/><use transform="matrix(0.05,0,0,0.05,20,0)" xlink:href="#ae"/><use transform="matrix(0.05,0,0,0.05,25,0)" xlink:href="#W"/><use transform="matrix(0.05,0,0,0.05,35,0)" xlink:href="#aa"/><use transform="matrix(0.05,0,0,0.05,47.95,0)" xlink:href="#ag"/><use transform="matrix(0.05,0,0,0.05,57.95,0)" xlink:href="#ah"/></g><path d="M30 0v-248h187v28H63v79h144v27H63v87h162V0H30" id="ai"/><path d="M30 0v-248h33v221h125V0H30" id="aj"/><path d="M160-131c35 5 61 23 61 61C221 17 115-2 30 0v-248c76 3 177-17 177 60 0 33-19 50-47 57zm-97-11c50-1 110 9 110-42 0-47-63-36-110-37v79zm0 115c55-2 124 14 124-45 0-56-70-42-124-44v89" id="ak"/><g id="e"><use transform="matrix(0.05,0,0,0.05,0,0)" xlink:href="#ai"/><use transform="matrix(0.05,0,0,0.05,12,0)" xlink:href="#aj"/><use transform="matrix(0.05,0,0,0.05,22,0)" xlink:href="#ak"/></g><path d="M16-82v-28h88v28H16" id="al"/><use transform="matrix(0.05,0,0,0.05,0,0)" xlink:href="#al" id="f"/><path d="M185-189c-5-48-123-54-124 2 14 75 158 14 163 119 3 78-121 87-175 55-17-10-28-26-33-46l33-7c5 56 141 63 141-1 0-78-155-14-162-118-5-82 145-84 179-34 5 7 8 16 11 25" id="am"/><path d="M108 0H70L1-190h34L89-25l56-165h34" id="an"/><path d="M24-231v-30h32v30H24zM24 0v-190h32V0H24" id="ao"/><path d="M96-169c-40 0-48 33-48 73s9 75 48 75c24 0 41-14 43-38l32 2c-6 37-31 61-74 61-59 0-76-41-82-99-10-93 101-131 147-64 4 7 5 14 7 22l-32 3c-4-21-16-35-41-35" id="ap"/><g id="g"><use transform="matrix(0.05,0,0,0.05,0,0)" xlink:href="#V"/><use transform="matrix(0.05,0,0,0.05,16.599999999999998,0)" xlink:href="#W"/><use transform="matrix(0.05,0,0,0.05,26.599999999999994,0)" xlink:href="#X"/><use transform="matrix(0.05,0,0,0.05,36.599999999999994,0)" xlink:href="#am"/><use transform="matrix(0.05,0,0,0.05,48.599999999999994,0)" xlink:href="#W"/><use transform="matrix(0.05,0,0,0.05,58.599999999999994,0)" xlink:href="#Y"/><use transform="matrix(0.05,0,0,0.05,64.55,0)" xlink:href="#an"/><use transform="matrix(0.05,0,0,0.05,73.55,0)" xlink:href="#ao"/><use transform="matrix(0.05,0,0,0.05,77.5,0)" xlink:href="#ap"/><use transform="matrix(0.05,0,0,0.05,86.5,0)" xlink:href="#W"/><use transform="matrix(0.05,0,0,0.05,96.5,0)" xlink:href="#ab"/></g><path d="M143 4C61 4 22-44 18-125c-5-107 100-154 193-111 17 8 29 25 37 43l-32 9c-13-25-37-40-76-40-61 0-88 39-88 99 0 61 29 100 91 101 35 0 62-11 79-27v-45h-74v-28h105v86C228-13 192 4 143 4" id="aq"/><g id="h"><use transform="matrix(0.05,0,0,0.05,0,0)" xlink:href="#aq"/><use transform="matrix(0.05,0,0,0.05,14,0)" xlink:href="#W"/><use transform="matrix(0.05,0,0,0.05,24,0)" xlink:href="#Z"/><use transform="matrix(0.05,0,0,0.05,34,0)" xlink:href="#am"/><use transform="matrix(0.05,0,0,0.05,46,0)" xlink:href="#W"/><use transform="matrix(0.05,0,0,0.05,56,0)" xlink:href="#Y"/><use transform="matrix(0.05,0,0,0.05,61.95,0)" xlink:href="#an"/><use transform="matrix(0.05,0,0,0.05,70.95,0)" xlink:href="#W"/><use transform="matrix(0.05,0,0,0.05,80.95,0)" xlink:href="#Y"/></g><g id="i"><use transform="matrix(0.05,0,0,0.05,0,0)" xlink:href="#aq"/><use transform="matrix(0.05,0,0,0.05,14,0)" xlink:href="#W"/><use transform="matrix(0.05,0,0,0.05,24,0)" xlink:href="#Z"/><use transform="matrix(0.05,0,0,0.05,34,0)" xlink:href="#am"/><use transform="matrix(0.05,0,0,0.05,46,0)" xlink:href="#W"/><use transform="matrix(0.05,0,0,0.05,56,0)" xlink:href="#Y"/><use transform="matrix(0.05,0,0,0.05,61.95,0)" xlink:href="#an"/><use transform="matrix(0.05,0,0,0.05,70.95,0)" xlink:href="#W"/><use transform="matrix(0.05,0,0,0.05,80.95,0)" xlink:href="#Y"/></g><g id="j"><use transform="matrix(0.05,0,0,0.05,0,0)" xlink:href="#V"/><use transform="matrix(0.05,0,0,0.05,16.599999999999998,0)" xlink:href="#W"/><use transform="matrix(0.05,0,0,0.05,26.599999999999994,0)" xlink:href="#X"/><use transform="matrix(0.05,0,0,0.05,36.599999999999994,0)" xlink:href="#am"/><use transform="matrix(0.05,0,0,0.05,48.599999999999994,0)" xlink:href="#W"/><use transform="matrix(0.05,0,0,0.05,58.599999999999994,0)" xlink:href="#Y"/><use transform="matrix(0.05,0,0,0.05,64.55,0)" xlink:href="#an"/><use transform="matrix(0.05,0,0,0.05,73.55,0)" xlink:href="#ao"/><use transform="matrix(0.05,0,0,0.05,77.5,0)" xlink:href="#ap"/><use transform="matrix(0.05,0,0,0.05,86.5,0)" xlink:href="#W"/></g><path d="M233-177c-1 41-23 64-60 70L243 0h-38l-65-103H63V0H30v-248c88 3 205-21 203 71zM63-129c60-2 137 13 137-47 0-61-80-42-137-45v92" id="ar"/><path d="M30-248c118-7 216 8 213 122C240-48 200 0 122 0H30v-248zM63-27c89 8 146-16 146-99s-60-101-146-95v194" id="as"/><g id="k"><use transform="matrix(0.05,0,0,0.05,0,0)" xlink:href="#ar"/><use transform="matrix(0.05,0,0,0.05,12.950000000000001,0)" xlink:href="#as"/><use transform="matrix(0.05,0,0,0.05,25.900000000000002,0)" xlink:href="#am"/></g><g id="l"><use transform="matrix(0.05,0,0,0.05,0,0)" xlink:href="#as"/><use transform="matrix(0.05,0,0,0.05,12.950000000000001,0)" xlink:href="#ak"/></g><g id="m"><use transform="matrix(0.05,0,0,0.05,0,0)" xlink:href="#ao"/><use transform="matrix(0.05,0,0,0.05,3.95,0)" xlink:href="#ad"/><use transform="matrix(0.05,0,0,0.05,13.949999999999998,0)" xlink:href="#ab"/><use transform="matrix(0.05,0,0,0.05,22.95,0)" xlink:href="#ae"/><use transform="matrix(0.05,0,0,0.05,27.950000000000003,0)" xlink:href="#ag"/><use transform="matrix(0.05,0,0,0.05,37.95,0)" xlink:href="#ad"/><use transform="matrix(0.05,0,0,0.05,47.95,0)" xlink:href="#ap"/><use transform="matrix(0.05,0,0,0.05,56.95,0)" xlink:href="#W"/></g><path d="M205 0l-28-72H64L36 0H1l101-248h38L239 0h-34zm-38-99l-47-123c-12 45-31 82-46 123h93" id="at"/><path d="M210-169c-67 3-38 105-44 169h-31v-121c0-29-5-50-35-48C34-165 62-65 56 0H25l-1-190h30c1 10-1 24 2 32 10-44 99-50 107 0 11-21 27-35 58-36 85-2 47 119 55 194h-31v-121c0-29-5-49-35-48" id="au"/><path d="M9 0v-24l116-142H16v-24h144v24L44-24h123V0H9" id="av"/><g id="n"><use transform="matrix(0.05,0,0,0.05,0,0)" xlink:href="#at"/><use transform="matrix(0.05,0,0,0.05,12,0)" xlink:href="#au"/><use transform="matrix(0.05,0,0,0.05,26.950000000000003,0)" xlink:href="#ag"/><use transform="matrix(0.05,0,0,0.05,36.95,0)" xlink:href="#av"/><use transform="matrix(0.05,0,0,0.05,45.95,0)" xlink:href="#Z"/><use transform="matrix(0.05,0,0,0.05,55.95,0)" xlink:href="#ad"/></g><path d="M212-179c-10-28-35-45-73-45-59 0-87 40-87 99 0 60 29 101 89 101 43 0 62-24 78-52l27 14C228-24 195 4 139 4 59 4 22-46 18-125c-6-104 99-153 187-111 19 9 31 26 39 46" id="aw"/><path d="M24 0v-261h32V0H24" id="ax"/><path d="M84 4C-5 8 30-112 23-190h32v120c0 31 7 50 39 49 72-2 45-101 50-169h31l1 190h-30c-1-10 1-25-2-33-11 22-28 36-60 37" id="ay"/><path d="M85-194c31 0 48 13 60 33l-1-100h32l1 261h-30c-2-10 0-23-3-31C134-8 116 4 85 4 32 4 16-35 15-94c0-66 23-100 70-100zm9 24c-40 0-46 34-46 75 0 40 6 74 45 74 42 0 51-32 51-76 0-42-9-74-50-73" id="az"/><path d="M63-220v92h138v28H63V0H30v-248h175v28H63" id="aA"/><g id="o"><use transform="matrix(0.05,0,0,0.05,0,0)" xlink:href="#aw"/><use transform="matrix(0.05,0,0,0.05,12.950000000000001,0)" xlink:href="#ax"/><use transform="matrix(0.05,0,0,0.05,16.900000000000002,0)" xlink:href="#Z"/><use transform="matrix(0.05,0,0,0.05,26.900000000000002,0)" xlink:href="#ay"/><use transform="matrix(0.05,0,0,0.05,36.900000000000006,0)" xlink:href="#az"/><use transform="matrix(0.05,0,0,0.05,46.900000000000006,0)" xlink:href="#aA"/><use transform="matrix(0.05,0,0,0.05,57.85,0)" xlink:href="#Y"/><use transform="matrix(0.05,0,0,0.05,63.80000000000001,0)" xlink:href="#Z"/><use transform="matrix(0.05,0,0,0.05,73.80000000000001,0)" xlink:href="#ad"/><use transform="matrix(0.05,0,0,0.05,83.80000000000001,0)" xlink:href="#ae"/></g><g id="p"><use transform="matrix(0.05,0,0,0.05,0,0)" xlink:href="#aa"/><use transform="matrix(0.05,0,0,0.05,12.950000000000001,0)" xlink:href="#W"/><use transform="matrix(0.05,0,0,0.05,22.950000000000003,0)" xlink:href="#X"/></g><path d="M106-169C34-169 62-67 57 0H25v-261h32l-1 103c12-21 28-36 61-36 89 0 53 116 60 194h-32v-121c2-32-8-49-39-48" id="aB"/><g id="q"><use transform="matrix(0.05,0,0,0.05,0,0)" xlink:href="#aB"/><use transform="matrix(0.05,0,0,0.05,10,0)" xlink:href="#Z"/><use transform="matrix(0.05,0,0,0.05,20,0)" xlink:href="#ab"/><use transform="matrix(0.05,0,0,0.05,29,0)" xlink:href="#ae"/></g><g id="r"><use transform="matrix(0.05,0,0,0.05,0,0)" xlink:href="#ap"/><use transform="matrix(0.05,0,0,0.05,9,0)" xlink:href="#Z"/><use transform="matrix(0.05,0,0,0.05,19,0)" xlink:href="#ad"/><use transform="matrix(0.05,0,0,0.05,29,0)" xlink:href="#ae"/><use transform="matrix(0.05,0,0,0.05,34,0)" xlink:href="#W"/><use transform="matrix(0.05,0,0,0.05,44,0)" xlink:href="#ad"/><use transform="matrix(0.05,0,0,0.05,54,0)" xlink:href="#ae"/><use transform="matrix(0.05,0,0,0.05,59,0)" xlink:href="#ab"/></g><g id="s"><use transform="matrix(0.05,0,0,0.05,0,0)" xlink:href="#at"/><use transform="matrix(0.05,0,0,0.05,12,0)" xlink:href="#ay"/><use transform="matrix(0.05,0,0,0.05,22,0)" xlink:href="#ae"/><use transform="matrix(0.05,0,0,0.05,27,0)" xlink:href="#Z"/></g><g id="t"><use transform="matrix(0.05,0,0,0.05,0,0)" xlink:href="#am"/><use transform="matrix(0.05,0,0,0.05,12,0)" xlink:href="#ap"/><use transform="matrix(0.05,0,0,0.05,21,0)" xlink:href="#ag"/><use transform="matrix(0.05,0,0,0.05,31,0)" xlink:href="#ax"/><use transform="matrix(0.05,0,0,0.05,34.95,0)" xlink:href="#ao"/><use transform="matrix(0.05,0,0,0.05,38.900000000000006,0)" xlink:href="#ad"/><use transform="matrix(0.05,0,0,0.05,48.900000000000006,0)" xlink:href="#af"/></g><g id="v"><use transform="matrix(0.05,0,0,0.05,0,0)" xlink:href="#ab"/><use transform="matrix(0.05,0,0,0.05,9,0)" xlink:href="#ad"/><use transform="matrix(0.05,0,0,0.05,19,0)" xlink:href="#ab"/></g><path d="M115-194c55 1 70 41 70 98S169 2 115 4C84 4 66-9 55-30l1 105H24l-1-265h31l2 30c10-21 28-34 59-34zm-8 174c40 0 45-34 45-75s-6-73-45-74c-42 0-51 32-51 76 0 43 10 73 51 73" id="aC"/><g id="w"><use transform="matrix(0.05,0,0,0.05,0,0)" xlink:href="#ae"/><use transform="matrix(0.05,0,0,0.05,5,0)" xlink:href="#Z"/><use transform="matrix(0.05,0,0,0.05,15,0)" xlink:href="#aC"/><use transform="matrix(0.05,0,0,0.05,25,0)" xlink:href="#ao"/><use transform="matrix(0.05,0,0,0.05,28.950000000000003,0)" xlink:href="#ap"/></g><path d="M87 75C49 33 22-17 22-94c0-76 28-126 65-167h31c-38 41-64 92-64 168S80 34 118 75H87" id="aD"/><path d="M101-234c-31-9-42 10-38 44h38v23H63V0H32v-167H5v-23h27c-7-52 17-82 69-68v24" id="aE"/><g id="x"><use transform="matrix(0.05,0,0,0.05,0,0)" xlink:href="#aD"/><use transform="matrix(0.05,0,0,0.05,5.95,0)" xlink:href="#ad"/><use transform="matrix(0.05,0,0,0.05,15.949999999999998,0)" xlink:href="#Z"/><use transform="matrix(0.05,0,0,0.05,25.950000000000003,0)" xlink:href="#ae"/><use transform="matrix(0.05,0,0,0.05,30.950000000000003,0)" xlink:href="#ao"/><use transform="matrix(0.05,0,0,0.05,34.9,0)" xlink:href="#aE"/><use transform="matrix(0.05,0,0,0.05,39.9,0)" xlink:href="#ah"/></g><g id="y"><use transform="matrix(0.05,0,0,0.05,0,0)" xlink:href="#ad"/><use transform="matrix(0.05,0,0,0.05,10,0)" xlink:href="#W"/><use transform="matrix(0.05,0,0,0.05,20,0)" xlink:href="#aa"/></g><path d="M0 4l72-265h28L28 4H0" id="aF"/><g id="z"><use transform="matrix(0.05,0,0,0.05,0,0)" xlink:href="#ab"/><use transform="matrix(0.05,0,0,0.05,9,0)" xlink:href="#ao"/><use transform="matrix(0.05,0,0,0.05,12.949999999999998,0)" xlink:href="#ae"/><use transform="matrix(0.05,0,0,0.05,17.95,0)" xlink:href="#W"/><use transform="matrix(0.05,0,0,0.05,27.950000000000003,0)" xlink:href="#ax"/><use transform="matrix(0.05,0,0,0.05,31.899999999999995,0)" xlink:href="#Z"/><use transform="matrix(0.05,0,0,0.05,41.9,0)" xlink:href="#af"/><use transform="matrix(0.05,0,0,0.05,51.900000000000006,0)" xlink:href="#aF"/><use transform="matrix(0.05,0,0,0.05,56.900000000000006,0)" xlink:href="#ad"/><use transform="matrix(0.05,0,0,0.05,66.9,0)" xlink:href="#W"/><use transform="matrix(0.05,0,0,0.05,76.9,0)" xlink:href="#aa"/></g><path d="M33-261c38 41 65 92 65 168S71 34 33 75H2C39 34 66-17 66-93S39-220 2-261h31" id="aG"/><g id="A"><use transform="matrix(0.05,0,0,0.05,0,0)" xlink:href="#ay"/><use transform="matrix(0.05,0,0,0.05,10,0)" xlink:href="#ab"/><use transform="matrix(0.05,0,0,0.05,19,0)" xlink:href="#W"/><use transform="matrix(0.05,0,0,0.05,29,0)" xlink:href="#Y"/><use transform="matrix(0.05,0,0,0.05,34.95,0)" xlink:href="#ab"/><use transform="matrix(0.05,0,0,0.05,43.95,0)" xlink:href="#aG"/></g><g id="B"><use transform="matrix(0.05,0,0,0.05,0,0)" xlink:href="#aw"/><use transform="matrix(0.05,0,0,0.05,12.950000000000001,0)" xlink:href="#Z"/><use transform="matrix(0.05,0,0,0.05,22.950000000000003,0)" xlink:href="#af"/><use transform="matrix(0.05,0,0,0.05,32.95,0)" xlink:href="#ad"/><use transform="matrix(0.05,0,0,0.05,42.95,0)" xlink:href="#ao"/><use transform="matrix(0.05,0,0,0.05,46.900000000000006,0)" xlink:href="#ae"/><use transform="matrix(0.05,0,0,0.05,51.900000000000006,0)" xlink:href="#Z"/></g><g id="C"><use transform="matrix(0.05,0,0,0.05,0,0)" xlink:href="#at"/><use transform="matrix(0.05,0,0,0.05,11.35,0)" xlink:href="#V"/><use transform="matrix(0.05,0,0,0.05,28.299999999999997,0)" xlink:href="#am"/></g><g id="D"><use transform="matrix(0.05,0,0,0.05,0,0)" xlink:href="#am"/><use transform="matrix(0.05,0,0,0.05,12,0)" xlink:href="#ai"/><use transform="matrix(0.05,0,0,0.05,24,0)" xlink:href="#am"/></g><g id="E"><use transform="matrix(0.05,0,0,0.05,0,0)" xlink:href="#aj"/><use transform="matrix(0.05,0,0,0.05,10,0)" xlink:href="#ag"/><use transform="matrix(0.05,0,0,0.05,20,0)" xlink:href="#au"/><use transform="matrix(0.05,0,0,0.05,34.95,0)" xlink:href="#X"/><use transform="matrix(0.05,0,0,0.05,44.95,0)" xlink:href="#az"/><use transform="matrix(0.05,0,0,0.05,54.95,0)" xlink:href="#ag"/></g><g id="F"><use transform="matrix(0.05,0,0,0.05,0,0)" xlink:href="#am"/><use transform="matrix(0.05,0,0,0.05,12,0)" xlink:href="#ao"/><use transform="matrix(0.05,0,0,0.05,15.949999999999998,0)" xlink:href="#ae"/><use transform="matrix(0.05,0,0,0.05,20.95,0)" xlink:href="#W"/><use transform="matrix(0.05,0,0,0.05,30.950000000000003,0)" xlink:href="#ax"/><use transform="matrix(0.05,0,0,0.05,34.9,0)" xlink:href="#Z"/><use transform="matrix(0.05,0,0,0.05,44.9,0)" xlink:href="#af"/></g><g id="G"><use transform="matrix(0.05,0,0,0.05,0,0)" xlink:href="#aw"/><use transform="matrix(0.05,0,0,0.05,12.950000000000001,0)" xlink:href="#Z"/><use transform="matrix(0.05,0,0,0.05,22.950000000000003,0)" xlink:href="#ad"/><use transform="matrix(0.05,0,0,0.05,32.95,0)" xlink:href="#an"/><use transform="matrix(0.05,0,0,0.05,41.95,0)" xlink:href="#W"/><use transform="matrix(0.05,0,0,0.05,51.95,0)" xlink:href="#Y"/><use transform="matrix(0.05,0,0,0.05,57.900000000000006,0)" xlink:href="#ae"/><use transform="matrix(0.05,0,0,0.05,62.900000000000006,0)" xlink:href="#W"/><use transform="matrix(0.05,0,0,0.05,72.9,0)" xlink:href="#az"/></g><g id="H"><use transform="matrix(0.05,0,0,0.05,0,0)" xlink:href="#am"/><use transform="matrix(0.05,0,0,0.05,12,0)" xlink:href="#ao"/><use transform="matrix(0.05,0,0,0.05,15.949999999999998,0)" xlink:href="#ae"/><use transform="matrix(0.05,0,0,0.05,20.95,0)" xlink:href="#W"/><use transform="matrix(0.05,0,0,0.05,30.950000000000003,0)" xlink:href="#ax"/><use transform="matrix(0.05,0,0,0.05,34.9,0)" xlink:href="#Z"/><use transform="matrix(0.05,0,0,0.05,44.9,0)" xlink:href="#af"/></g><g id="I"><use transform="matrix(0.05,0,0,0.05,0,0)" xlink:href="#ac"/><use transform="matrix(0.05,0,0,0.05,5,0)" xlink:href="#ad"/><use transform="matrix(0.05,0,0,0.05,15,0)" xlink:href="#ap"/><use transform="matrix(0.05,0,0,0.05,24,0)" xlink:href="#Z"/><use transform="matrix(0.05,0,0,0.05,34,0)" xlink:href="#au"/><use transform="matrix(0.05,0,0,0.05,48.95,0)" xlink:href="#ao"/><use transform="matrix(0.05,0,0,0.05,52.900000000000006,0)" xlink:href="#ad"/><use transform="matrix(0.05,0,0,0.05,62.900000000000006,0)" xlink:href="#af"/></g><g id="J"><use transform="matrix(0.05,0,0,0.05,0,0)" xlink:href="#aw"/><use transform="matrix(0.05,0,0,0.05,12.950000000000001,0)" xlink:href="#Z"/><use transform="matrix(0.05,0,0,0.05,22.950000000000003,0)" xlink:href="#ad"/><use transform="matrix(0.05,0,0,0.05,32.95,0)" xlink:href="#an"/><use transform="matrix(0.05,0,0,0.05,41.95,0)" xlink:href="#W"/><use transform="matrix(0.05,0,0,0.05,51.95,0)" xlink:href="#Y"/><use transform="matrix(0.05,0,0,0.05,57.900000000000006,0)" xlink:href="#ae"/></g><g id="K"><use transform="matrix(0.05,0,0,0.05,0,0)" xlink:href="#aE"/><use transform="matrix(0.05,0,0,0.05,5,0)" xlink:href="#W"/><use transform="matrix(0.05,0,0,0.05,15,0)" xlink:href="#ae"/><use transform="matrix(0.05,0,0,0.05,20,0)" xlink:href="#ap"/><use transform="matrix(0.05,0,0,0.05,29,0)" xlink:href="#aB"/></g><g id="L"><use transform="matrix(0.05,0,0,0.05,0,0)" xlink:href="#aE"/><use transform="matrix(0.05,0,0,0.05,5,0)" xlink:href="#Y"/><use transform="matrix(0.05,0,0,0.05,10.95,0)" xlink:href="#Z"/><use transform="matrix(0.05,0,0,0.05,20.95,0)" xlink:href="#au"/></g><g id="M"><use transform="matrix(0.05,0,0,0.05,0,0)" xlink:href="#aE"/><use transform="matrix(0.05,0,0,0.05,5,0)" xlink:href="#ae"/><use transform="matrix(0.05,0,0,0.05,10,0)" xlink:href="#aC"/></g><g id="N"><use transform="matrix(0.05,0,0,0.05,0,0)" xlink:href="#ac"/><use transform="matrix(0.05,0,0,0.05,5,0)" xlink:href="#ad"/><use transform="matrix(0.05,0,0,0.05,15,0)" xlink:href="#af"/><use transform="matrix(0.05,0,0,0.05,25,0)" xlink:href="#Y"/><use transform="matrix(0.05,0,0,0.05,30.950000000000003,0)" xlink:href="#W"/><use transform="matrix(0.05,0,0,0.05,40.95,0)" xlink:href="#ab"/><use transform="matrix(0.05,0,0,0.05,49.95,0)" xlink:href="#ab"/></g><g id="O"><use transform="matrix(0.05,0,0,0.05,0,0)" xlink:href="#as"/><use transform="matrix(0.05,0,0,0.05,12.950000000000001,0)" xlink:href="#ag"/><use transform="matrix(0.05,0,0,0.05,22.950000000000003,0)" xlink:href="#ae"/><use transform="matrix(0.05,0,0,0.05,27.950000000000003,0)" xlink:href="#ag"/></g><g id="P"><use transform="matrix(0.05,0,0,0.05,0,0)" xlink:href="#V"/><use transform="matrix(0.05,0,0,0.05,16.599999999999998,0)" xlink:href="#W"/><use transform="matrix(0.05,0,0,0.05,26.599999999999994,0)" xlink:href="#X"/></g><g id="Q"><use transform="matrix(0.05,0,0,0.05,0,0)" xlink:href="#aj"/><use transform="matrix(0.05,0,0,0.05,10,0)" xlink:href="#ag"/><use transform="matrix(0.05,0,0,0.05,20,0)" xlink:href="#au"/><use transform="matrix(0.05,0,0,0.05,34.95,0)" xlink:href="#X"/><use transform="matrix(0.05,0,0,0.05,44.95,0)" xlink:href="#az"/><use transform="matrix(0.05,0,0,0.05,54.95,0)" xlink:href="#ag"/></g><g id="R"><use transform="matrix(0.05,0,0,0.05,0,0)" xlink:href="#ai"/><use transform="matrix(0.05,0,0,0.05,12,0)" xlink:href="#az"/><use transform="matrix(0.05,0,0,0.05,22,0)" xlink:href="#af"/><use transform="matrix(0.05,0,0,0.05,32,0)" xlink:href="#W"/></g><path d="M30-248c87 1 191-15 191 75 0 78-77 80-158 76V0H30v-248zm33 125c57 0 124 11 124-50 0-59-68-47-124-48v98" id="aH"/><g id="S"><use transform="matrix(0.05,0,0,0.05,0,0)" xlink:href="#aD"/><use transform="matrix(0.05,0,0,0.05,5.95,0)" xlink:href="#aH"/><use transform="matrix(0.05,0,0,0.05,17.95,0)" xlink:href="#Y"/><use transform="matrix(0.05,0,0,0.05,23.9,0)" xlink:href="#Z"/><use transform="matrix(0.05,0,0,0.05,33.9,0)" xlink:href="#ae"/><use transform="matrix(0.05,0,0,0.05,38.9,0)" xlink:href="#W"/><use transform="matrix(0.05,0,0,0.05,48.9,0)" xlink:href="#ap"/><use transform="matrix(0.05,0,0,0.05,57.900000000000006,0)" xlink:href="#ae"/><use transform="matrix(0.05,0,0,0.05,62.900000000000006,0)" xlink:href="#ao"/><use transform="matrix(0.05,0,0,0.05,66.85,0)" xlink:href="#ad"/><use transform="matrix(0.05,0,0,0.05,76.85,0)" xlink:href="#af"/></g><path d="M195 0l-74-108L45 0H8l94-129-87-119h37l69 98 67-98h37l-84 118L233 0h-38" id="aI"/><g id="T"><use transform="matrix(0.05,0,0,0.05,0,0)" xlink:href="#aI"/><use transform="matrix(0.05,0,0,0.05,12,0)" xlink:href="#am"/><use transform="matrix(0.05,0,0,0.05,24,0)" xlink:href="#am"/></g><path d="M143 0L79-87 56-68V0H24v-261h32v163l83-92h37l-77 82L181 0h-38" id="aJ"/><g id="U"><use transform="matrix(0.05,0,0,0.05,0,0)" xlink:href="#ag"/><use transform="matrix(0.05,0,0,0.05,10,0)" xlink:href="#ae"/><use transform="matrix(0.05,0,0,0.05,15,0)" xlink:href="#ae"/><use transform="matrix(0.05,0,0,0.05,20,0)" xlink:href="#ag"/><use transform="matrix(0.05,0,0,0.05,30,0)" xlink:href="#ap"/><use transform="matrix(0.05,0,0,0.05,39,0)" xlink:href="#aJ"/><use transform="matrix(0.05,0,0,0.05,48,0)" xlink:href="#aG"/></g></defs></g></svg>